<?xml version="1.0" encoding="utf-8"?>
<!-- Generator: Adobe Illustrator 16.0.0, SVG Export Plug-In . SVG Version: 6.00 Build 0)  -->
<!DOCTYPE svg PUBLIC "-//W3C//DTD SVG 1.1//EN" "http://www.w3.org/Graphics/SVG/1.1/DTD/svg11.dtd">
<svg version="1.1" id="CLOUDY" xmlns="http://www.w3.org/2000/svg" xmlns:xlink="http://www.w3.org/1999/xlink" x="0px" y="0px"
	 width="64px" height="64px" viewBox="0 0 64 64" enable-background="new 0 0 64 64" xml:space="preserve">
<g>
	<g id="day_bg_5_">
		<g>
			<circle fill="#89C4F4" cx="32" cy="32" r="32"/>
		</g>
		<g>
			<path fill="#6BB9F0" d="M32,64c17.673,0,32-14.327,32-32S49.673,0,32,0V64z"/>
		</g>
	</g>
	<defs>
		<filter id="Adobe_OpacityMaskFilter" filterUnits="userSpaceOnUse" x="6.4" y="10.666" width="56.67" height="53.238">
			<feColorMatrix  type="matrix" values="1 0 0 0 0  0 1 0 0 0  0 0 1 0 0  0 0 0 1 0"/>
		</filter>
	</defs>
	<mask maskUnits="userSpaceOnUse" x="6.4" y="10.666" width="56.67" height="53.238" id="SVGID_1_">
		<g filter="url(#Adobe_OpacityMaskFilter)">
			<g>
				
					<radialGradient id="SVGID_2_" cx="70.7803" cy="590.999" r="37.333" gradientTransform="matrix(1 0 0 1 -41.9805 -562.1992)" gradientUnits="userSpaceOnUse">
					<stop  offset="0" style="stop-color:#FFFFFF"/>
					<stop  offset="0.1126" style="stop-color:#E8E8E8"/>
					<stop  offset="0.3492" style="stop-color:#ADADAD"/>
					<stop  offset="0.6869" style="stop-color:#4E4E4E"/>
					<stop  offset="0.9519" style="stop-color:#000000"/>
				</radialGradient>
				<circle fill="url(#SVGID_2_)" cx="28.8" cy="28.8" r="37.333"/>
			</g>
		</g>
	</mask>
	<g opacity="0.2" mask="url(#SVGID_1_)">
		<path d="M63.07,39.533l-0.104,0.023l0.039-0.19l-0.189,0.038l0.039-0.188l-0.188,0.037l0.037-0.19l-0.188,0.039l0.041-0.188
			l-0.19,0.037l0.038-0.188l-0.188,0.039l0.037-0.191l-0.188,0.039l0.039-0.188l-0.188,0.039l0.037-0.188l-0.188,0.041l0.036-0.192
			L61.613,38.2l0.041-0.188l-0.188,0.039l0.037-0.189L61.314,37.9l0.037-0.188l-0.188,0.037l0.039-0.188l-0.188,0.041l0.036-0.19
			l-0.19,0.038l0.039-0.188L60.715,37.3l0.039-0.188l-0.191,0.039l0.041-0.188l-0.19,0.037l0.04-0.188l-0.188,0.037l0.039-0.188
			l-0.193,0.04l0.039-0.188l-0.188,0.037l0.039-0.189L59.813,36.4l0.041-0.188l-0.192,0.037l0.038-0.188L59.514,36.1l0.038-0.188
			l-0.188,0.038l0.041-0.188L59.213,35.8l0.037-0.19l-0.188,0.039L59.1,35.46l-0.188,0.04l0.038-0.188l-0.188,0.037l0.037-0.188
			L58.611,35.2l0.039-0.188l-0.188,0.038l0.038-0.19L58.313,34.9l0.037-0.192l-0.188,0.04l0.038-0.188L58.014,34.6l0.036-0.188
			l-0.188,0.04L57.9,34.26l-0.19,0.039l0.04-0.189l-0.191,0.039l0.039-0.188l-0.209,0.017l0.036-0.188l-0.188,0.038l0.039-0.188
			l-0.188,0.039l0.037-0.189l-0.188,0.041l0.037-0.189l-0.188,0.037l0.037-0.188l-0.188,0.039l0.039-0.19l-0.188,0.039l0.039-0.188
			l-0.188,0.039l0.037-0.189l-0.188,0.039l0.039-0.189l-0.188,0.038l0.038-0.188l-0.191,0.039l0.039-0.191l-0.188,0.039l0.039-0.188
			l-0.188,0.038l0.037-0.189l-0.191,0.038l0.039-0.188l-0.188,0.039l0.039-0.188l-0.19,0.039l0.037-0.191l-0.188,0.039l0.039-0.188
			l-0.188,0.039l0.04-0.189l-0.19,0.039l0.036-0.188l-0.188,0.039l0.041-0.188l-0.188,0.039l0.039-0.188l-0.19,0.037l0.037-0.189
			l-0.188,0.039l0.04-0.188l-0.188,0.039l0.036-0.189l-0.188,0.038l0.037-0.188l-0.188,0.039l0.037-0.188l-0.188,0.038l0.021-0.207
			l-0.188,0.039l0.039-0.188l-0.189,0.038l0.039-0.19l-0.188,0.039l0.037-0.188l-0.188,0.039l0.039-0.189l-0.188,0.038l0.037-0.188
			l-0.188,0.039l0.039-0.188l-0.188,0.039l0.036-0.191l-0.188,0.039l0.037-0.188l-0.188,0.039l0.037-0.19l-0.19,0.039l0.039-0.188
			l-0.188,0.039l0.04-0.188l-0.188,0.039l0.039-0.189l-0.191,0.039l0.039-0.188l-0.188,0.039l0.039-0.188l-0.19,0.039l0.036-0.19
			l-0.188,0.039l0.04-0.188l-0.188,0.039l0.037-0.188l-0.188,0.037l0.039-0.188L50.6,27.212l0.041-0.188l-0.189,0.039l0.039-0.189
			l-0.189,0.038l0.037-0.188l-0.188,0.039l0.039-0.188l-0.188,0.039l0.037-0.191l-0.188,0.039l0.039-0.188l-0.191,0.039l0.041-0.188
			l-0.188,0.039l0.037-0.188l-0.188,0.039l0.039-0.188l-0.188,0.039L49.3,25.67l-0.188,0.039l0.039-0.188l-0.188,0.039L49,25.372
			l-0.189,0.039l0.039-0.189l-0.188,0.038l0.038-0.188l-0.188,0.039l0.037-0.189l-0.189,0.037l0.041-0.188l-0.188,0.039l0.037-0.188
			l-0.19,0.039l0.039-0.19l-0.188,0.037l0.04-0.188l-0.191,0.039l0.037-0.189l-0.188,0.039l0.039-0.188L47.46,24.06l0.04-0.188
			l-0.189,0.039l0.039-0.188l-0.19,0.038l0.04-0.188l-0.188,0.039l0.038-0.188l-0.19,0.038l0.041-0.188l-0.192,0.039l0.04-0.188
			l-0.189,0.039l0.037-0.189l-0.188,0.039l0.037-0.189l-0.188,0.039l0.039-0.188l-0.189,0.039l0.037-0.189l-0.188,0.039l0.038-0.188
			l-0.188,0.039l0.039-0.189l-0.188,0.038l0.038-0.188l-0.188,0.038l0.037-0.188l-0.188,0.039l0.037-0.188l-0.22-0.018l0.04-0.188
			l-0.188,0.038l0.037-0.189l-0.189,0.039l0.037-0.188l-0.188,0.038l0.036-0.19l-0.188,0.039l0.037-0.188l-0.19,0.039l0.039-0.19
			l-0.188,0.039l0.041-0.188l-0.192,0.039l0.04-0.19l-0.189,0.039l0.039-0.188l-0.188,0.039l0.039-0.188l-0.19,0.039l0.037-0.188
			l-0.188,0.039l0.041-0.188l-0.188,0.039l0.039-0.188l-0.191,0.039l0.037-0.188l-0.188,0.039l0.041-0.19l-0.189,0.039l0.037-0.188
			l-0.186,0.034l0.037-0.188l-0.188,0.038l0.028-0.202l-0.188,0.039l0.038-0.188l-0.188,0.039l0.037-0.189l-0.188,0.038l0.037-0.188
			l-0.191,0.037l0.04-0.188l-0.188,0.037l0.039-0.188l-0.19,0.039l0.036-0.191l-0.188,0.039l0.04-0.188l-0.188,0.039l0.037-0.188
			l-0.188,0.038l0.038-0.188l-0.188,0.039l0.039-0.188l-0.189,0.039l0.037-0.19L40.8,17.386l0.038-0.188l-0.188,0.039l0.037-0.189
			L40.5,17.085l0.037-0.188l-0.188,0.04l0.039-0.189l-0.189,0.039l0.039-0.189l-0.188,0.037l0.038-0.188l-3.771,0.755l0.148,0.152
			l0.452,0.452l1.056,1.055l0.15,0.152l1.006,1.004l0.354,0.352l0.451,0.453l1.057,1.056l0.451,0.453l0.381,0.377l0.523,0.527
			l1.713,1.708l1.004,1.007l0,0l0.305,0.303l0.248,0.251l0.201,0.201l0.076,0.075l0.074,0.076l0.754,0.755l0.829,0.828
			c-0.546-0.096-1.104-0.169-1.677-0.169c-0.614,0-1.202,0.089-1.781,0.209c-0.033-0.028-0.059-0.063-0.09-0.09
			c-0.052-0.044-0.096-0.104-0.146-0.15c-0.054-0.044-0.097-0.104-0.15-0.149c-0.055-0.049-0.1-0.108-0.154-0.155
			c-0.054-0.045-0.094-0.103-0.146-0.148c-0.055-0.045-0.096-0.104-0.149-0.149c-0.054-0.047-0.101-0.107-0.153-0.153
			c-0.051-0.046-0.095-0.105-0.147-0.15c-0.052-0.044-0.097-0.104-0.152-0.149c-0.05-0.047-0.096-0.107-0.147-0.152
			c-0.055-0.047-0.096-0.106-0.151-0.151c-0.054-0.047-0.096-0.106-0.149-0.152c-0.053-0.044-0.092-0.102-0.146-0.145
			c-0.055-0.047-0.096-0.106-0.152-0.153c-0.052-0.047-0.098-0.107-0.15-0.154c-0.053-0.045-0.092-0.102-0.146-0.145
			c-0.056-0.047-0.102-0.108-0.157-0.158c-0.053-0.045-0.095-0.103-0.147-0.147c-0.056-0.045-0.097-0.104-0.149-0.149
			c-0.053-0.047-0.097-0.107-0.152-0.154c-0.053-0.045-0.092-0.102-0.145-0.147c-0.058-0.047-0.102-0.108-0.158-0.153
			c-0.05-0.044-0.092-0.105-0.144-0.148c-0.206-0.177-0.431-0.322-0.647-0.484l-0.033-0.044l-0.016,0.018
			c-0.015-0.011-0.031-0.02-0.044-0.03l-0.092-0.139l-0.024,0.039l-0.129-0.189l-0.023,0.038l-0.129-0.188l-0.023,0.038
			l-0.127-0.189l-0.027,0.037l-0.127-0.188l-0.025,0.039l-0.129-0.19l-0.026,0.039l-0.125-0.188l-0.024,0.037l-0.129-0.189
			l-0.025,0.039l-0.125-0.188l-0.024,0.039l-0.127-0.188l-0.024,0.036l-0.129-0.188l-0.023,0.038l-0.129-0.188l-0.025,0.037
			l-0.125-0.188l-0.025,0.039l-0.129-0.189l-0.024,0.039l-0.125-0.188l-0.024,0.039l-0.129-0.19l-0.027,0.039l-0.127-0.189
			l-0.025,0.035l-0.127-0.188l-0.027,0.041l-0.127-0.189l-0.025,0.037l-0.125-0.188l-0.024,0.036l-0.125-0.188l-0.027,0.039
			l-0.127-0.188L36.65,21.28l-0.129-0.189l-0.025,0.035l-0.125-0.188l-0.027,0.039l-0.127-0.187l-0.025,0.039l-0.125-0.189
			l-0.024,0.039l-0.13-0.189l-0.023,0.038l-0.125-0.188l-0.027,0.036l-0.127-0.188l-0.025,0.039l-0.127-0.188l-0.002,0.015
			l-0.125-0.188l-0.027,0.036l-0.127-0.188l-0.025,0.038l-0.129-0.189l-0.025,0.039l-0.117-0.188l-0.025,0.039l-0.129-0.191
			L34.7,19.298l-0.127-0.188l-0.027,0.039l-0.125-0.188l-0.024,0.038l-0.129-0.189l-0.025,0.036l-0.125-0.188l-0.024,0.039
			l-0.127-0.188l-0.024,0.038l-0.127-0.188l-0.024,0.037l-0.128-0.188l-0.023,0.039l-0.125-0.191l-0.02,0.037l-0.128-0.188
			l-0.022,0.039l-0.127-0.188l-0.025,0.036l-0.125-0.189l-0.024,0.041l-0.125-0.188l-0.026,0.035l-0.125-0.189l-0.025,0.037
			l-0.127-0.188l-0.024,0.039l-0.126-0.188l-0.025,0.038l-0.126-0.189l-0.024,0.037L32.162,16.7l-0.025,0.039L32.01,16.55
			l-0.024,0.039l-0.126-0.188l-0.026,0.039l-0.126-0.19l-0.025,0.039L31.556,16.1l-0.026,0.039l-0.125-0.188l-0.026,0.039
			l-0.126-0.188l-0.021,0.03l-0.126-0.188l-0.026,0.038l-0.126-0.188l-0.023,0.036l-0.126-0.189l-0.025,0.038l-0.126-0.188
			l-0.026,0.039l-0.126-0.19l-0.025,0.037l-0.126-0.188l-0.026,0.039l-0.128-0.19l-0.025,0.039l-0.126-0.188l-0.026,0.037
			l-0.125-0.188l-0.026,0.037l-0.126-0.188l-0.025,0.039l-0.126-0.188l-0.026,0.039l-0.126-0.188l-0.025,0.038l-0.126-0.188
			l-0.026,0.039l-0.125-0.188l-0.018,0.032l-0.126-0.188l-0.023,0.034l-0.126-0.188l-0.026,0.039l-0.125-0.188l-0.027,0.039
			l-0.126-0.191l-0.025,0.039l-0.124-0.189l-0.026,0.039L28.24,12.78l-0.025,0.039l-0.126-0.188l-0.026,0.038l-0.125-0.189
			l-0.026,0.039l-0.125-0.189l-0.025,0.037l-0.126-0.188l-0.026,0.039l-0.126-0.189l-0.025,0.035l-0.126-0.188l-0.026,0.039
			l-0.125-0.188l-0.026,0.039l-0.126-0.188l-0.025,0.038l-0.128-0.189l-0.018,0.032l-0.126-0.188l-0.023,0.035l-0.128-0.188
			l-0.025,0.039l-0.124-0.188l-0.026,0.039l-0.127-0.189l-0.025,0.036l-0.124-0.188l-2.133,3.2h0.252l-0.101,0.152h0.25l-0.1,0.15
			h0.253l-0.1,0.151h0.252l-0.1,0.152h0.251l-0.1,0.149h0.252l-0.101,0.151h0.254l-0.1,0.152h0.25l-0.1,0.149h0.252l-0.1,0.152
			h0.251l-0.1,0.151h0.25l-0.101,0.149h0.254l-0.1,0.152h0.252l-0.101,0.151h0.252l-0.109,0.151h0.25l-0.1,0.15h0.251l-0.1,0.151
			h0.252l-0.1,0.152h0.251l-0.1,0.149h0.252l-0.101,0.152h0.252l-0.1,0.151h0.252l-0.101,0.149h0.252l-0.1,0.152h0.251l-0.1,0.151
			h0.25l-0.101,0.149h0.254l-0.1,0.152h0.252l-0.071,0.103c-0.595-0.085-1.199-0.141-1.817-0.141c-2.801,0-5.382,0.908-7.49,2.436
			l-0.081-0.017l0.1-0.1l-0.252-0.049l0.101-0.1l-0.252-0.049l0.1-0.101l-0.252-0.054l0.1-0.1l-0.252-0.048l0.1-0.1l-0.25-0.052
			l0.1-0.1l-0.25-0.051l0.101-0.1l-0.253-0.05l0.1-0.101l-0.251-0.05l0.102-0.102l-0.254-0.049l0.1-0.1l-0.247-0.052l0.1-0.101
			l-0.254-0.051l0.101-0.1l-0.252-0.049l0.1-0.104l-0.249-0.048l0.1-0.1l-0.252-0.049l0.1-0.1l-0.249-0.052l0.1-0.1l-0.254-0.051
			l0.101-0.1L16,17.453l0.1-0.101l-0.251-0.049l0.1-0.1l-3.771-0.755l0.755,3.772l0.1-0.1l0.051,0.251l0.101-0.1l0.049,0.25
			l0.1-0.101l0.051,0.252l0.1-0.1l0.05,0.252l0.1-0.101l0.049,0.252l0.1-0.1l0.049,0.251l0.1-0.1l0.05,0.252l0.1-0.1l0.049,0.251
			l0.1-0.1l0.051,0.252l0.101-0.101l0.049,0.252l0.1-0.1l0.049,0.251l0.1-0.1l0.051,0.252l0.101-0.101l0.049,0.252l0.1-0.1
			l0.051,0.252l0.114-0.109l0.049,0.252l0.1-0.1l0.049,0.249l0.101-0.1l0.049,0.252l0.1-0.101l0.049,0.252l0.1-0.1l0.018,0.081
			c-1.524,2.105-2.432,4.685-2.432,7.483c0,0.617,0.079,1.211,0.167,1.805l-0.13,0.088v-0.252l-0.152,0.1v-0.254l-0.149,0.101v-0.25
			l-0.151,0.1v-0.251l-0.152,0.1v-0.252l-0.151,0.1v-0.251l-0.15,0.1v-0.249l-0.151,0.1V30.98l-0.149,0.1v-0.251l-0.152,0.1v-0.252
			l-0.147,0.104v-0.254l-0.149,0.1v-0.25l-0.152,0.101v-0.252l-0.149,0.1v-0.251l-0.152,0.1v-0.252l-0.149,0.1v-0.251l-0.151,0.1
			v-0.251l-0.152,0.1V29.47l-0.151,0.1v-0.251l-0.152,0.1v-0.252l-0.149,0.101v-0.252l-0.151,0.1v-0.252l-0.15,0.101v-0.252
			l-0.151,0.1v-0.251l-0.15,0.1v-0.246L9.6,28.519v-0.252L6.4,30.4l0.188,0.126l-0.039,0.025l0.193,0.126l-0.039,0.026l0.188,0.126
			l-0.039,0.025l0.188,0.124l-0.038,0.026l0.188,0.125l-0.039,0.026l0.188,0.126L7.3,31.306l0.188,0.126l-0.037,0.026l0.188,0.126
			L7.6,31.609l0.188,0.126l-0.039,0.026l0.188,0.125l-0.039,0.026l0.188,0.126l-0.039,0.024l0.188,0.126l-0.039,0.026l0.188,0.126
			l-0.039,0.025l0.188,0.125l-0.024,0.02l0.188,0.127l-0.036,0.022l0.189,0.126l-0.041,0.025l0.188,0.125l-0.038,0.026l0.188,0.127
			l-0.039,0.024l0.189,0.125l-0.041,0.025l0.188,0.125l-0.039,0.026l0.188,0.127l-0.039,0.024l0.188,0.125l-0.039,0.024l0.189,0.125
			l-0.039,0.027l0.189,0.127l-0.041,0.024l0.188,0.125l-0.039,0.024l0.188,0.127l-0.039,0.024l0.189,0.127l-0.039,0.027l0.188,0.127
			l-0.038,0.025l0.19,0.125l-0.022,0.018l0.188,0.125l-0.039,0.025l0.188,0.127l-0.039,0.025l0.189,0.127l-0.037,0.027l0.188,0.125
			l-0.039,0.024l0.075,0.05c-0.49,1.066-0.769,2.252-0.769,3.506c0,2.396,0.995,4.553,2.581,6.104c0.049,0.05,0.099,0.1,0.15,0.148
			c0.051,0.051,0.1,0.102,0.153,0.15c0.049,0.05,0.1,0.104,0.152,0.152c0.047,0.048,0.096,0.098,0.145,0.144
			c0.051,0.054,0.102,0.104,0.155,0.156c0.047,0.048,0.097,0.098,0.146,0.144c0.051,0.055,0.102,0.106,0.155,0.154
			c0.047,0.05,0.096,0.1,0.146,0.146c0.052,0.054,0.101,0.106,0.154,0.154c0.051,0.053,0.102,0.104,0.153,0.152
			c0.049,0.05,0.099,0.1,0.15,0.146c0.049,0.049,0.096,0.101,0.145,0.147c0.051,0.052,0.102,0.104,0.155,0.155
			c0.048,0.047,0.097,0.099,0.146,0.146c0.051,0.051,0.104,0.104,0.157,0.154c0.047,0.05,0.096,0.098,0.146,0.146
			c0.051,0.049,0.102,0.104,0.155,0.153c0.049,0.05,0.098,0.101,0.149,0.147c0.05,0.053,0.099,0.103,0.15,0.149
			c0.051,0.054,0.1,0.103,0.153,0.152c0.049,0.05,0.1,0.101,0.152,0.149c0.047,0.045,0.096,0.096,0.145,0.145
			c0.051,0.052,0.103,0.105,0.155,0.156c0.05,0.05,0.099,0.1,0.148,0.148c0.051,0.051,0.102,0.102,0.153,0.15
			c0.049,0.05,0.1,0.102,0.15,0.15c0.049,0.049,0.098,0.1,0.147,0.146c0.051,0.052,0.102,0.104,0.153,0.153
			c0.049,0.051,0.099,0.101,0.15,0.149c0.049,0.052,0.1,0.103,0.151,0.15c0.049,0.05,0.098,0.1,0.149,0.147
			c0.052,0.053,0.103,0.105,0.156,0.155c0.049,0.052,0.098,0.099,0.147,0.146c0.049,0.051,0.101,0.101,0.152,0.149
			c0.049,0.052,0.1,0.101,0.151,0.149c0.049,0.051,0.1,0.103,0.151,0.15c0.05,0.053,0.101,0.104,0.152,0.153
			c0.049,0.046,0.098,0.097,0.149,0.146c0.051,0.051,0.103,0.103,0.156,0.154c0.047,0.049,0.096,0.096,0.145,0.146
			c0.051,0.05,0.102,0.104,0.153,0.152c0.05,0.047,0.099,0.1,0.15,0.146c0.049,0.05,0.1,0.102,0.151,0.154
			c0.049,0.047,0.098,0.1,0.15,0.146c0.049,0.052,0.1,0.104,0.153,0.154c0.049,0.05,0.098,0.101,0.149,0.149
			c0.05,0.051,0.099,0.101,0.15,0.147c0.049,0.053,0.098,0.103,0.149,0.147c0.049,0.051,0.098,0.103,0.149,0.149
			c0.062,0.069,0.113,0.122,0.164,0.172c0.049,0.05,0.1,0.104,0.151,0.152c0.049,0.048,0.099,0.098,0.15,0.147
			c0.049,0.047,0.1,0.101,0.151,0.149c0.049,0.05,0.1,0.101,0.152,0.149c0.049,0.052,0.098,0.102,0.147,0.147
			c0.051,0.052,0.102,0.104,0.153,0.154c0.049,0.052,0.101,0.104,0.152,0.151c0.049,0.049,0.098,0.099,0.147,0.145
			c0.051,0.054,0.102,0.105,0.156,0.158C22.204,53.95,22.251,54,22.3,54.046c0.051,0.054,0.104,0.106,0.158,0.158
			c0.049,0.05,0.101,0.101,0.15,0.149c0.049,0.047,0.096,0.097,0.145,0.145c0.051,0.052,0.102,0.105,0.155,0.154
			c0.05,0.048,0.097,0.1,0.148,0.146c0.051,0.051,0.104,0.104,0.157,0.154c0.049,0.052,0.101,0.1,0.152,0.15
			c0.047,0.049,0.096,0.098,0.145,0.146c0.049,0.05,0.1,0.101,0.151,0.149c0.049,0.053,0.101,0.104,0.152,0.151
			c0.048,0.05,0.098,0.103,0.146,0.15c0.051,0.05,0.102,0.104,0.154,0.153c0.049,0.049,0.096,0.097,0.145,0.145
			c0.051,0.052,0.104,0.105,0.159,0.16c0.047,0.046,0.095,0.096,0.144,0.142c0.051,0.054,0.102,0.104,0.153,0.154
			c0.049,0.05,0.1,0.104,0.151,0.151c0.05,0.053,0.101,0.101,0.152,0.147c0.047,0.05,0.096,0.101,0.145,0.146
			c0.051,0.051,0.1,0.104,0.154,0.154c0.049,0.051,0.096,0.1,0.146,0.145c0.051,0.053,0.102,0.105,0.155,0.158
			c0.05,0.049,0.101,0.101,0.152,0.147c0.049,0.048,0.1,0.101,0.151,0.147c0.047,0.049,0.092,0.097,0.141,0.143
			c0.054,0.055,0.105,0.107,0.161,0.16c0.049,0.048,0.098,0.102,0.146,0.148c0.051,0.049,0.101,0.102,0.154,0.153
			c0.049,0.045,0.096,0.097,0.147,0.144c0.051,0.053,0.102,0.104,0.154,0.151c0.049,0.056,0.1,0.104,0.151,0.154
			c0.049,0.048,0.096,0.096,0.147,0.146c0.051,0.051,0.101,0.104,0.154,0.151c0.049,0.054,0.1,0.101,0.151,0.147
			c0.049,0.053,0.098,0.104,0.149,0.149c0.05,0.052,0.099,0.101,0.148,0.149c0.051,0.051,0.102,0.105,0.155,0.154
			c0.049,0.051,0.099,0.101,0.15,0.15c0.051,0.051,0.102,0.104,0.155,0.15c0.047,0.049,0.094,0.095,0.141,0.141
			c0.051,0.055,0.103,0.107,0.156,0.158c0.049,0.051,0.098,0.102,0.147,0.146c0.049,0.049,0.1,0.104,0.152,0.153
			c0.049,0.05,0.098,0.099,0.147,0.146c0.051,0.053,0.104,0.104,0.157,0.156c0.05,0.049,0.097,0.098,0.148,0.147
			c0.051,0.051,0.1,0.101,0.151,0.149c0.049,0.051,0.098,0.101,0.149,0.15c0.052,0.05,0.101,0.104,0.154,0.15
			c0.049,0.049,0.096,0.1,0.147,0.145c0.049,0.053,0.101,0.104,0.152,0.154c0.051,0.053,0.102,0.104,0.155,0.154
			c0.047,0.049,0.094,0.096,0.143,0.142c0.052,0.053,0.104,0.104,0.156,0.153c0.049,0.053,0.1,0.104,0.151,0.152
			c0.049,0.049,0.099,0.098,0.148,0.146c0.049,0.049,0.098,0.102,0.146,0.146c0.051,0.055,0.104,0.108,0.158,0.158
			c0.05,0.051,0.097,0.098,0.148,0.146c0.051,0.055,0.102,0.104,0.153,0.154c0.047,0.047,0.096,0.096,0.148,0.145
			c0.047,0.052,0.096,0.1,0.145,0.146c0.053,0.055,0.106,0.11,0.161,0.162c0.048,0.049,0.097,0.096,0.146,0.145
			c0.049,0.047,0.1,0.103,0.151,0.149c0.035,0.035,0.068,0.068,0.102,0.104C47.193,63.889,59.691,53.496,63.07,39.533z"/>
	</g>
	<g>
		<path fill="#F5D76E" d="M38.934,30.398c0,7.069-5.729,12.802-12.8,12.802c-7.068,0-12.8-5.733-12.8-12.802
			c0-7.068,5.732-12.8,12.8-12.8C33.204,17.598,38.934,23.33,38.934,30.398z M28.265,13.867l-2.133-3.2l-2.133,3.2H28.265z
			 M9.6,28.267L6.4,30.4l3.2,2.131V28.267z M39.329,20.218l0.756-3.772l-3.772,0.755L39.329,20.218z M15.951,17.201l-3.774-0.753
			l0.755,3.772L15.951,17.201z"/>
		<path fill="#FFFFFF" d="M45.866,28.265c-0.824,0-1.612,0.136-2.375,0.33c-1.949-3.778-5.884-6.363-10.425-6.363
			c-5.391,0-9.924,3.644-11.295,8.598c-0.811-0.256-1.657-0.431-2.552-0.431c-4.712,0-8.533,3.824-8.533,8.537
			c0,4.711,3.821,8.533,8.533,8.533h1.289h25.118h0.241c5.305,0,9.601-4.301,9.601-9.602C55.467,32.563,51.171,28.265,45.866,28.265
			z"/>
	</g>
</g>
</svg>
