<?xml version="1.0" encoding="utf-8"?>
<!-- Generator: Adobe Illustrator 16.0.0, SVG Export Plug-In . SVG Version: 6.00 Build 0)  -->
<!DOCTYPE svg PUBLIC "-//W3C//DTD SVG 1.1//EN" "http://www.w3.org/Graphics/SVG/1.1/DTD/svg11.dtd">
<svg version="1.1" id="CLOUDS" xmlns="http://www.w3.org/2000/svg" xmlns:xlink="http://www.w3.org/1999/xlink" x="0px" y="0px"
	 width="64px" height="64px" viewBox="0 0 64 64" enable-background="new 0 0 64 64" xml:space="preserve">
<g>
	<g id="day_bg_7_">
		<g>
			<circle fill="#89C4F4" cx="32" cy="32" r="32"/>
		</g>
		<g>
			<path fill="#6BB9F0" d="M32,64c17.673,0,32-14.327,32-32S49.673,0,32,0V64z"/>
		</g>
	</g>
	<defs>
		<filter id="Adobe_OpacityMaskFilter" filterUnits="userSpaceOnUse" x="8.078" y="20.48" width="54.826" height="43.129">
			<feColorMatrix  type="matrix" values="1 0 0 0 0  0 1 0 0 0  0 0 1 0 0  0 0 0 1 0"/>
		</filter>
	</defs>
	<mask maskUnits="userSpaceOnUse" x="8.078" y="20.48" width="54.826" height="43.129" id="SVGID_1_">
		<g filter="url(#Adobe_OpacityMaskFilter)">
			<g>
				
					<radialGradient id="SVGID_2_" cx="70.7803" cy="590.999" r="37.333" gradientTransform="matrix(1 0 0 1 -41.9805 -562.1992)" gradientUnits="userSpaceOnUse">
					<stop  offset="0" style="stop-color:#FFFFFF"/>
					<stop  offset="0.1126" style="stop-color:#E8E8E8"/>
					<stop  offset="0.3492" style="stop-color:#ADADAD"/>
					<stop  offset="0.6869" style="stop-color:#4E4E4E"/>
					<stop  offset="0.9519" style="stop-color:#000000"/>
				</radialGradient>
				<circle fill="url(#SVGID_2_)" cx="28.8" cy="28.8" r="37.333"/>
			</g>
		</g>
	</mask>
	<g opacity="0.2" mask="url(#SVGID_1_)">
		<path fill="#1A171B" d="M62.904,40.171c-0.033-0.032-0.064-0.067-0.102-0.104c-0.048-0.047-0.096-0.096-0.144-0.144
			c-0.052-0.052-0.106-0.106-0.16-0.159c-0.046-0.047-0.099-0.097-0.146-0.146c-0.052-0.049-0.102-0.1-0.152-0.148
			c-0.051-0.051-0.104-0.104-0.154-0.15c-0.044-0.051-0.094-0.098-0.145-0.146c-0.047-0.05-0.101-0.104-0.149-0.154
			c-0.049-0.049-0.101-0.1-0.151-0.149c-0.049-0.05-0.101-0.103-0.151-0.149c-0.048-0.05-0.101-0.101-0.15-0.15
			c-0.048-0.049-0.1-0.1-0.147-0.148c-0.047-0.051-0.101-0.104-0.151-0.15c-0.05-0.049-0.101-0.104-0.149-0.151
			c-0.051-0.048-0.101-0.103-0.149-0.149c-0.05-0.053-0.101-0.101-0.15-0.148c-0.05-0.051-0.1-0.104-0.149-0.148
			c-0.051-0.053-0.101-0.104-0.151-0.154c-0.048-0.049-0.099-0.098-0.147-0.146c-0.051-0.052-0.103-0.104-0.153-0.153
			c-0.05-0.053-0.097-0.101-0.146-0.15c-0.053-0.049-0.104-0.1-0.154-0.149c-0.051-0.054-0.101-0.104-0.154-0.153
			c-0.043-0.049-0.094-0.097-0.143-0.143c-0.049-0.051-0.1-0.104-0.15-0.152c-0.049-0.052-0.104-0.104-0.154-0.154
			c-0.048-0.051-0.102-0.102-0.152-0.148c-0.045-0.048-0.096-0.102-0.144-0.146c-0.052-0.051-0.103-0.104-0.151-0.154
			c-0.051-0.049-0.101-0.1-0.149-0.15c-0.052-0.048-0.101-0.1-0.15-0.146c-0.05-0.053-0.104-0.104-0.153-0.152
			c-0.047-0.05-0.099-0.1-0.146-0.148c-0.05-0.051-0.102-0.102-0.154-0.15c-0.048-0.051-0.101-0.1-0.147-0.15
			c-0.048-0.05-0.101-0.102-0.151-0.148c-0.048-0.053-0.102-0.104-0.15-0.152s-0.1-0.104-0.149-0.15s-0.101-0.1-0.149-0.146
			c-0.05-0.053-0.101-0.1-0.149-0.15c-0.048-0.05-0.101-0.104-0.151-0.154c-0.049-0.049-0.099-0.098-0.148-0.146
			c-0.049-0.052-0.102-0.104-0.153-0.153c-0.046-0.051-0.097-0.101-0.146-0.147c-0.051-0.054-0.104-0.103-0.154-0.151
			c-0.051-0.055-0.104-0.105-0.154-0.154c-0.046-0.051-0.092-0.096-0.143-0.145c-0.049-0.052-0.1-0.104-0.149-0.152
			c-0.05-0.055-0.104-0.105-0.153-0.156c-0.048-0.049-0.097-0.098-0.146-0.146c-0.052-0.054-0.104-0.105-0.158-0.156
			c-0.046-0.049-0.094-0.097-0.142-0.146c-0.053-0.053-0.106-0.105-0.158-0.158c-0.049-0.049-0.096-0.096-0.146-0.145
			c-0.051-0.053-0.103-0.104-0.154-0.155c-0.045-0.05-0.096-0.096-0.146-0.146c-0.048-0.051-0.1-0.102-0.147-0.151
			c-0.051-0.053-0.105-0.104-0.155-0.155c-0.046-0.05-0.099-0.099-0.146-0.146c-0.052-0.053-0.104-0.104-0.154-0.155
			c-1.327-1.366-3.178-2.221-5.231-2.221c-0.456,0-0.894,0.065-1.323,0.153c-0.008-0.006-0.017-0.015-0.021-0.021
			c-0.051-0.057-0.105-0.105-0.158-0.159c-0.044-0.049-0.096-0.091-0.145-0.141c-0.045-0.053-0.103-0.102-0.149-0.155
			c-0.05-0.052-0.104-0.099-0.151-0.152c-0.049-0.053-0.103-0.1-0.152-0.153c-0.047-0.051-0.1-0.097-0.146-0.147
			c-0.05-0.053-0.104-0.103-0.156-0.155c-0.047-0.051-0.102-0.096-0.146-0.148c-0.046-0.051-0.102-0.098-0.15-0.149
			c-0.046-0.053-0.104-0.1-0.152-0.153c-0.047-0.054-0.102-0.1-0.15-0.152c-0.046-0.049-0.1-0.096-0.146-0.145
			c-1.631-1.785-3.971-2.907-6.578-2.907c-1.254,0-2.435,0.283-3.514,0.75c-0.203-0.017-0.398-0.062-0.609-0.062
			c-0.456,0-0.893,0.067-1.322,0.153c-0.007-0.008-0.016-0.015-0.023-0.021c-0.047-0.055-0.105-0.104-0.158-0.158
			c-0.06-0.065-0.113-0.11-0.159-0.159c-0.05-0.053-0.104-0.102-0.154-0.155c-0.048-0.051-0.103-0.098-0.149-0.15
			c-0.047-0.053-0.103-0.1-0.15-0.153c-0.047-0.051-0.102-0.098-0.15-0.149c-0.047-0.052-0.101-0.099-0.146-0.147
			c-0.049-0.053-0.102-0.103-0.152-0.155c-0.047-0.051-0.102-0.096-0.148-0.147c-0.049-0.054-0.104-0.103-0.155-0.156
			c-0.047-0.051-0.098-0.096-0.147-0.147c-0.05-0.053-0.105-0.103-0.156-0.156c-1.635-1.783-3.974-2.905-6.58-2.905
			c-4.102,0-7.552,2.771-8.597,6.541c-0.617-0.194-1.259-0.328-1.944-0.328c-3.584,0-6.492,2.907-6.492,6.495
			c0,1.83,0.766,3.479,1.985,4.66c0.05,0.049,0.097,0.1,0.148,0.145c0.049,0.053,0.1,0.104,0.151,0.152
			c0.049,0.053,0.1,0.105,0.154,0.153c0.049,0.052,0.1,0.103,0.151,0.152c0.047,0.048,0.096,0.096,0.146,0.144
			c0.049,0.053,0.101,0.104,0.154,0.154c0.049,0.052,0.1,0.102,0.151,0.152c0.049,0.047,0.098,0.1,0.152,0.148
			c0.049,0.049,0.098,0.102,0.147,0.146c0.051,0.05,0.102,0.104,0.153,0.152c0.047,0.051,0.097,0.1,0.148,0.146
			c0.051,0.052,0.102,0.104,0.155,0.156c0.049,0.047,0.096,0.098,0.148,0.144c0.049,0.054,0.1,0.104,0.151,0.153
			c0.049,0.051,0.098,0.101,0.149,0.148c0.051,0.053,0.101,0.105,0.154,0.153c0.049,0.052,0.098,0.101,0.149,0.147
			c0.049,0.051,0.1,0.101,0.152,0.149c0.049,0.05,0.098,0.101,0.149,0.149c0.051,0.051,0.102,0.104,0.155,0.154
			c0.049,0.051,0.099,0.101,0.15,0.149c0.049,0.048,0.098,0.101,0.147,0.146c0.049,0.051,0.098,0.101,0.146,0.149
			c0.052,0.056,0.105,0.106,0.159,0.158c0.049,0.051,0.1,0.101,0.153,0.149c0.047,0.047,0.094,0.096,0.146,0.143
			c0.049,0.054,0.1,0.104,0.153,0.154c0.049,0.052,0.1,0.104,0.152,0.151c0.049,0.048,0.1,0.103,0.151,0.149
			c0.049,0.048,0.098,0.101,0.147,0.148c0.049,0.049,0.1,0.1,0.152,0.148c0.049,0.05,0.098,0.104,0.149,0.152
			c0.051,0.052,0.102,0.103,0.156,0.151c0.049,0.05,0.098,0.101,0.149,0.149c0.049,0.048,0.098,0.101,0.149,0.148
			c0.049,0.047,0.098,0.1,0.148,0.146c0.051,0.053,0.102,0.105,0.155,0.158c0.049,0.048,0.098,0.097,0.149,0.146
			c0.05,0.05,0.099,0.101,0.15,0.149c0.049,0.051,0.098,0.101,0.149,0.15c0.051,0.049,0.102,0.104,0.156,0.153
			c0.049,0.05,0.098,0.101,0.149,0.147c0.049,0.047,0.098,0.101,0.147,0.147c0.049,0.05,0.098,0.101,0.148,0.147
			c0.053,0.053,0.104,0.105,0.159,0.16c0.049,0.051,0.098,0.099,0.15,0.146c0.049,0.05,0.096,0.101,0.147,0.146
			c0.049,0.053,0.1,0.104,0.151,0.152c0.051,0.053,0.103,0.104,0.154,0.152c0.049,0.054,0.1,0.102,0.151,0.148
			c0.049,0.053,0.098,0.102,0.15,0.15c0.049,0.05,0.1,0.1,0.151,0.148c0.049,0.051,0.098,0.102,0.149,0.15
			c0.051,0.053,0.105,0.104,0.158,0.156c0.049,0.048,0.098,0.098,0.147,0.146c0.049,0.047,0.1,0.101,0.152,0.147
			c0.049,0.05,0.098,0.101,0.147,0.149c0.051,0.051,0.102,0.104,0.155,0.153c0.049,0.05,0.099,0.101,0.15,0.15
			c0.049,0.048,0.098,0.1,0.149,0.149c0.049,0.051,0.1,0.101,0.151,0.147c0.05,0.052,0.101,0.104,0.152,0.151
			c0.049,0.051,0.1,0.101,0.151,0.149c0.049,0.05,0.099,0.101,0.15,0.149c0.049,0.051,0.098,0.101,0.149,0.15
			c0.051,0.055,0.102,0.104,0.156,0.153c0.049,0.052,0.098,0.101,0.149,0.147c0.047,0.049,0.096,0.099,0.145,0.145
			c0.051,0.055,0.105,0.107,0.158,0.162c0.047,0.046,0.096,0.098,0.145,0.143c0.051,0.051,0.103,0.104,0.153,0.153
			c0.052,0.052,0.103,0.103,0.154,0.149c0.047,0.051,0.094,0.101,0.143,0.145c0.049,0.053,0.1,0.105,0.152,0.154
			c0.051,0.052,0.102,0.104,0.153,0.152c0.051,0.051,0.102,0.105,0.155,0.153c0.048,0.048,0.095,0.097,0.142,0.142
			c0.051,0.051,0.102,0.104,0.153,0.154c0.051,0.051,0.1,0.104,0.154,0.153c0.049,0.048,0.1,0.101,0.151,0.147
			c0.047,0.049,0.096,0.101,0.145,0.147c0.051,0.051,0.1,0.103,0.154,0.153c0.049,0.049,0.1,0.102,0.151,0.15
			c0.049,0.051,0.1,0.104,0.154,0.152c0.047,0.048,0.096,0.098,0.147,0.145c0.049,0.051,0.1,0.104,0.151,0.153
			c0.049,0.052,0.101,0.104,0.152,0.151c0.049,0.053,0.1,0.103,0.151,0.152c0.049,0.047,0.1,0.1,0.149,0.146
			c0.05,0.051,0.099,0.101,0.15,0.147c0.049,0.053,0.098,0.103,0.149,0.152c0.051,0.051,0.102,0.104,0.156,0.152
			c0.049,0.052,0.1,0.102,0.153,0.152c0.045,0.049,0.092,0.094,0.141,0.141c0.051,0.055,0.103,0.105,0.154,0.154
			c0.051,0.053,0.102,0.104,0.155,0.153c0.049,0.05,0.1,0.104,0.152,0.151c0.049,0.049,0.096,0.099,0.147,0.145
			c0.049,0.053,0.1,0.104,0.151,0.152c0.052,0.052,0.101,0.105,0.154,0.152c0.049,0.054,0.1,0.104,0.151,0.152
			c0.047,0.047,0.096,0.096,0.145,0.143c0.05,0.055,0.101,0.104,0.154,0.156c0.049,0.047,0.1,0.103,0.151,0.151
			c0.049,0.05,0.101,0.103,0.154,0.149c0.047,0.051,0.096,0.101,0.146,0.146c0.049,0.051,0.1,0.104,0.154,0.154
			c0.049,0.05,0.098,0.1,0.149,0.148c0.051,0.051,0.102,0.102,0.153,0.152c0.049,0.048,0.099,0.098,0.15,0.148
			c0.049,0.049,0.098,0.1,0.149,0.148c0.049,0.049,0.098,0.102,0.149,0.148c0.052,0.052,0.103,0.104,0.158,0.156
			c0.049,0.049,0.1,0.102,0.153,0.148c0.045,0.048,0.093,0.096,0.142,0.141c0.051,0.051,0.102,0.105,0.153,0.155
			c0.051,0.056,0.102,0.104,0.156,0.154c0.049,0.05,0.098,0.103,0.149,0.149c0.049,0.051,0.096,0.101,0.147,0.146
			c0.049,0.05,0.101,0.102,0.154,0.154c0.049,0.05,0.098,0.1,0.151,0.148c0.051,0.053,0.102,0.104,0.156,0.154
			c0.047,0.046,0.094,0.096,0.143,0.143c0.049,0.051,0.1,0.104,0.151,0.153c0.051,0.05,0.103,0.104,0.156,0.151
			c0.049,0.053,0.098,0.103,0.149,0.15c0.049,0.049,0.098,0.1,0.149,0.146c0.052,0.053,0.104,0.105,0.156,0.154
			c0.047,0.051,0.096,0.101,0.145,0.145c0.051,0.052,0.103,0.105,0.156,0.156c0.049,0.05,0.1,0.103,0.151,0.15
			c0.047,0.047,0.096,0.1,0.147,0.145c0.05,0.051,0.099,0.104,0.15,0.15c0.051,0.055,0.104,0.105,0.157,0.158
			c0.049,0.051,0.101,0.1,0.152,0.146c0.047,0.049,0.094,0.097,0.143,0.145c0.049,0.051,0.1,0.104,0.151,0.154
			c0.052,0.053,0.105,0.104,0.159,0.158c0.049,0.045,0.098,0.097,0.149,0.146c0.049,0.05,0.096,0.099,0.146,0.146
			c0.049,0.049,0.098,0.101,0.149,0.148c0.051,0.055,0.104,0.105,0.158,0.158c0.049,0.048,0.098,0.1,0.147,0.146
			c0.049,0.051,0.1,0.102,0.151,0.15c0.049,0.051,0.096,0.1,0.148,0.146c0.051,0.055,0.103,0.104,0.153,0.154
			c0.049,0.049,0.1,0.102,0.15,0.149c0.051,0.05,0.1,0.101,0.148,0.147c0.049,0.051,0.098,0.1,0.146,0.146
			c0.053,0.055,0.104,0.107,0.158,0.158c0.051,0.051,0.102,0.101,0.151,0.15c0.049,0.049,0.097,0.1,0.146,0.146
			c0.051,0.05,0.102,0.103,0.152,0.149c0.049,0.049,0.098,0.101,0.148,0.149c0.05,0.05,0.1,0.104,0.15,0.153
			c0.051,0.051,0.104,0.101,0.152,0.15c0.05,0.047,0.098,0.1,0.146,0.146c0.053,0.052,0.101,0.104,0.153,0.153
			c0.052,0.051,0.101,0.103,0.152,0.149c0.048,0.05,0.098,0.103,0.147,0.149c0.051,0.053,0.104,0.104,0.153,0.152
			c0.048,0.047,0.101,0.1,0.147,0.147c0.049,0.05,0.101,0.103,0.152,0.153c0.051,0.049,0.1,0.101,0.149,0.147
			c0.048,0.048,0.101,0.103,0.149,0.149c0.051,0.053,0.101,0.103,0.149,0.152c0.052,0.051,0.101,0.1,0.149,0.149
			c0.05,0.049,0.101,0.101,0.15,0.149c0.051,0.051,0.1,0.101,0.151,0.149c0.048,0.05,0.099,0.101,0.147,0.149
			c0.049,0.05,0.104,0.104,0.154,0.154c0.033,0.033,0.063,0.063,0.096,0.094C49.009,62.129,59.611,52.646,62.904,40.171z"/>
	</g>
	<g>
		<path fill="#DFE0E1" d="M34.8,25.039c-0.625,0-1.225,0.105-1.806,0.252c-1.485-2.874-4.478-4.843-7.934-4.843
			c-4.102,0-7.552,2.771-8.598,6.541c-0.616-0.194-1.258-0.328-1.942-0.328c-3.584,0-6.492,2.907-6.492,6.493
			c0,3.584,2.907,6.492,6.492,6.492h0.983h19.113H34.8c4.035,0,7.31-3.271,7.31-7.305C42.107,28.307,38.838,25.039,34.8,25.039z"/>
		<path fill="#FFFFFF" d="M48.667,28.938c-0.63,0-1.229,0.104-1.812,0.252c-1.48-2.874-4.476-4.842-7.932-4.842
			c-4.102,0-7.552,2.771-8.598,6.541c-0.617-0.194-1.26-0.328-1.943-0.328c-3.584,0-6.492,2.906-6.492,6.494
			c0,3.584,2.907,6.491,6.492,6.491h0.981h19.115h0.183c4.036,0,7.305-3.271,7.305-7.305C55.967,32.211,52.698,28.938,48.667,28.938
			z"/>
	</g>
</g>
</svg>
