<?xml version="1.0" encoding="utf-8"?>
<!-- Generator: Adobe Illustrator 16.0.0, SVG Export Plug-In . SVG Version: 6.00 Build 0)  -->
<!DOCTYPE svg PUBLIC "-//W3C//DTD SVG 1.1//EN" "http://www.w3.org/Graphics/SVG/1.1/DTD/svg11.dtd">
<svg version="1.1" id="CLOUDY" xmlns="http://www.w3.org/2000/svg" xmlns:xlink="http://www.w3.org/1999/xlink" x="0px" y="0px"
	 width="64px" height="64px" viewBox="0 0 64 64" enable-background="new 0 0 64 64" xml:space="preserve">
<g>
	<g id="night_bg_6_">
		<g>
			<circle fill="#34495E" cx="32" cy="32" r="32"/>
		</g>
		<g>
			<path fill="#2C3E50" d="M32,64c17.673,0,32-14.327,32-32S49.673,0,32,0V64z"/>
		</g>
	</g>
	<defs>
		<filter id="Adobe_OpacityMaskFilter" filterUnits="userSpaceOnUse" x="9.681" y="19.434" width="53.348" height="44.407">
			<feColorMatrix  type="matrix" values="1 0 0 0 0  0 1 0 0 0  0 0 1 0 0  0 0 0 1 0"/>
		</filter>
	</defs>
	<mask maskUnits="userSpaceOnUse" x="9.681" y="19.434" width="53.348" height="44.407" id="SVGID_1_">
		<g filter="url(#Adobe_OpacityMaskFilter)">
			<g>
				
					<radialGradient id="SVGID_2_" cx="70.7803" cy="590.999" r="37.333" gradientTransform="matrix(1 0 0 1 -41.9805 -562.1992)" gradientUnits="userSpaceOnUse">
					<stop  offset="0" style="stop-color:#FFFFFF"/>
					<stop  offset="0.1126" style="stop-color:#E8E8E8"/>
					<stop  offset="0.3492" style="stop-color:#ADADAD"/>
					<stop  offset="0.6869" style="stop-color:#4E4E4E"/>
					<stop  offset="0.9519" style="stop-color:#000000"/>
				</radialGradient>
				<circle fill="url(#SVGID_2_)" cx="28.8" cy="28.8" r="37.333"/>
			</g>
		</g>
	</mask>
	<g opacity="0.4" mask="url(#SVGID_1_)">
		<path fill="#1A171B" d="M63.029,39.695c-0.021-0.021-0.043-0.041-0.063-0.061c-0.048-0.048-0.101-0.104-0.149-0.148
			c-0.049-0.049-0.101-0.102-0.149-0.148c-0.051-0.053-0.101-0.104-0.149-0.152c-0.05-0.047-0.101-0.098-0.15-0.147
			c-0.049-0.05-0.1-0.103-0.149-0.149c-0.05-0.053-0.101-0.104-0.151-0.154c-0.049-0.045-0.096-0.096-0.145-0.144
			c-0.052-0.053-0.104-0.106-0.158-0.161c-0.05-0.048-0.101-0.096-0.147-0.146c-0.048-0.05-0.101-0.101-0.151-0.149
			c-0.048-0.051-0.097-0.101-0.146-0.15c-0.051-0.049-0.104-0.103-0.153-0.153c-0.05-0.048-0.101-0.101-0.149-0.146
			c-0.048-0.051-0.101-0.104-0.149-0.15c-0.048-0.051-0.097-0.1-0.144-0.146c-0.053-0.055-0.109-0.107-0.16-0.162
			c-0.051-0.051-0.104-0.101-0.154-0.149c-0.045-0.046-0.092-0.095-0.139-0.138c-0.049-0.055-0.104-0.108-0.158-0.158
			c-0.045-0.051-0.098-0.102-0.146-0.146c-0.048-0.051-0.101-0.104-0.149-0.15c-0.051-0.051-0.104-0.104-0.154-0.157
			c-0.051-0.048-0.1-0.101-0.148-0.147c-0.05-0.049-0.102-0.099-0.148-0.148c-0.053-0.049-0.102-0.104-0.156-0.153
			c-0.046-0.048-0.096-0.097-0.143-0.144c-0.051-0.053-0.1-0.104-0.153-0.152c-0.05-0.051-0.101-0.104-0.151-0.154
			c-0.049-0.048-0.099-0.1-0.148-0.146c-0.049-0.047-0.102-0.104-0.153-0.152c-0.048-0.05-0.101-0.1-0.147-0.15
			c-0.047-0.049-0.101-0.1-0.147-0.146c-0.054-0.055-0.106-0.105-0.158-0.156c-0.046-0.046-0.096-0.096-0.142-0.142
			c-0.051-0.052-0.1-0.104-0.152-0.154c-0.052-0.05-0.102-0.104-0.152-0.151c-0.047-0.049-0.1-0.099-0.146-0.147
			c-0.048-0.056-0.104-0.104-0.154-0.153c-0.048-0.051-0.098-0.101-0.146-0.148c-0.051-0.053-0.102-0.102-0.154-0.151
			c-0.048-0.056-0.102-0.104-0.152-0.153c-0.048-0.049-0.094-0.097-0.14-0.143c-0.052-0.055-0.106-0.104-0.158-0.156
			c-0.048-0.053-0.1-0.101-0.147-0.15c-0.049-0.051-0.1-0.101-0.151-0.152c-0.05-0.051-0.101-0.1-0.149-0.148
			c-0.049-0.051-0.101-0.103-0.149-0.15c-0.052-0.049-0.099-0.1-0.149-0.149c-0.051-0.051-0.101-0.103-0.15-0.153
			c-0.051-0.052-0.1-0.101-0.149-0.149c-0.05-0.052-0.101-0.101-0.151-0.152c-0.049-0.051-0.101-0.102-0.152-0.153
			c-0.049-0.049-0.096-0.099-0.146-0.147c-0.05-0.051-0.104-0.104-0.156-0.155c-0.047-0.049-0.096-0.096-0.144-0.145
			c-0.05-0.051-0.103-0.103-0.153-0.154c-0.049-0.051-0.101-0.102-0.152-0.153c-0.049-0.049-0.098-0.098-0.147-0.15
			c-0.05-0.051-0.101-0.098-0.149-0.149c-0.049-0.051-0.101-0.103-0.152-0.153c-0.048-0.05-0.098-0.099-0.146-0.148
			c-0.051-0.053-0.104-0.104-0.154-0.155c-0.049-0.049-0.096-0.097-0.146-0.145c-0.05-0.05-0.101-0.101-0.15-0.15
			c-0.049-0.053-0.104-0.104-0.157-0.158c-0.046-0.049-0.097-0.096-0.146-0.145c-0.049-0.051-0.102-0.1-0.148-0.151
			c-0.053-0.051-0.102-0.102-0.152-0.154c-0.048-0.049-0.1-0.098-0.148-0.149c-0.049-0.051-0.102-0.1-0.15-0.151
			c-0.05-0.052-0.1-0.101-0.148-0.15c-0.052-0.051-0.102-0.1-0.15-0.149c-0.051-0.051-0.1-0.102-0.152-0.153
			c-0.048-0.05-0.096-0.099-0.145-0.148c-0.053-0.053-0.105-0.104-0.157-0.155c-1.741-1.781-4.167-2.891-6.854-2.891
			c-0.6,0-1.175,0.088-1.736,0.2c-0.002-0.002-0.004-0.004-0.006-0.006c-0.051-0.053-0.106-0.1-0.154-0.154
			c-0.049-0.051-0.102-0.096-0.148-0.147c-0.046-0.051-0.1-0.098-0.148-0.149c-0.049-0.055-0.104-0.102-0.152-0.156
			c-0.048-0.049-0.098-0.094-0.145-0.145c-0.049-0.055-0.109-0.104-0.162-0.159c-0.043-0.05-0.096-0.095-0.145-0.146
			c-0.048-0.053-0.102-0.1-0.148-0.151c-0.049-0.053-0.104-0.101-0.152-0.154c-0.048-0.051-0.1-0.096-0.148-0.145
			c-0.047-0.053-0.102-0.102-0.15-0.153c-0.046-0.051-0.104-0.099-0.15-0.15c-0.046-0.051-0.1-0.096-0.146-0.147
			c-0.05-0.055-0.108-0.104-0.158-0.158c-0.046-0.049-0.097-0.094-0.142-0.143c-0.051-0.055-0.108-0.104-0.159-0.157
			c-2.146-2.338-5.216-3.806-8.636-3.806c-5.391,0-9.924,3.644-11.296,8.598c-0.811-0.256-1.658-0.432-2.552-0.432
			c-4.712,0-8.533,3.821-8.533,8.533c0,2.396,0.995,4.555,2.584,6.104c0.049,0.052,0.098,0.102,0.149,0.15
			c0.047,0.051,0.096,0.098,0.146,0.146c0.051,0.053,0.104,0.104,0.156,0.156c0.049,0.047,0.098,0.099,0.149,0.147
			c0.049,0.05,0.1,0.103,0.151,0.149c0.05,0.051,0.101,0.101,0.152,0.15c0.049,0.049,0.098,0.1,0.149,0.149
			c0.049,0.05,0.101,0.103,0.154,0.153c0.049,0.049,0.098,0.101,0.151,0.149c0.047,0.048,0.096,0.097,0.147,0.144
			c0.052,0.054,0.105,0.108,0.158,0.162c0.047,0.045,0.094,0.096,0.143,0.142c0.051,0.052,0.103,0.104,0.156,0.155
			c0.049,0.049,0.1,0.101,0.151,0.147c0.047,0.05,0.096,0.101,0.145,0.146c0.052,0.054,0.105,0.104,0.158,0.156
			c0.049,0.053,0.1,0.104,0.151,0.15c0.047,0.048,0.096,0.098,0.146,0.145c0.051,0.053,0.102,0.104,0.155,0.155
			c0.051,0.048,0.1,0.103,0.154,0.152c0.047,0.05,0.096,0.098,0.147,0.146c0.051,0.053,0.1,0.104,0.153,0.154
			c0.047,0.048,0.096,0.096,0.146,0.145c0.051,0.053,0.103,0.105,0.158,0.156c0.049,0.051,0.098,0.1,0.15,0.149
			c0.049,0.05,0.098,0.101,0.149,0.149c0.049,0.051,0.1,0.101,0.151,0.149c0.051,0.05,0.103,0.104,0.154,0.153
			c0.047,0.049,0.096,0.097,0.145,0.145c0.051,0.053,0.104,0.105,0.159,0.158c0.047,0.048,0.094,0.096,0.143,0.141
			c0.051,0.055,0.102,0.107,0.157,0.157c0.047,0.052,0.096,0.101,0.148,0.146c0.051,0.055,0.102,0.104,0.155,0.154
			c0.047,0.051,0.094,0.1,0.143,0.145c0.054,0.052,0.105,0.105,0.158,0.16c0.047,0.045,0.094,0.096,0.143,0.142
			c0.051,0.052,0.104,0.104,0.158,0.158c0.047,0.048,0.096,0.096,0.145,0.142c0.051,0.055,0.104,0.108,0.16,0.158
			c0.047,0.051,0.094,0.1,0.143,0.146c0.051,0.049,0.102,0.104,0.153,0.151c0.049,0.048,0.098,0.101,0.148,0.147
			c0.051,0.054,0.104,0.105,0.157,0.158c0.049,0.047,0.096,0.096,0.147,0.144c0.049,0.048,0.099,0.103,0.15,0.149
			c0.049,0.049,0.098,0.101,0.147,0.147c0.053,0.054,0.104,0.104,0.16,0.159c0.047,0.048,0.094,0.096,0.143,0.145
			c0.051,0.051,0.104,0.104,0.157,0.155c0.047,0.048,0.097,0.097,0.146,0.146c0.051,0.051,0.102,0.104,0.155,0.154
			c0.049,0.051,0.098,0.098,0.148,0.146c0.049,0.05,0.1,0.104,0.151,0.15c0.049,0.051,0.098,0.104,0.149,0.151
			c0.051,0.052,0.103,0.103,0.156,0.153c0.049,0.049,0.096,0.099,0.145,0.145c0.051,0.053,0.1,0.104,0.153,0.154
			c0.05,0.05,0.101,0.1,0.152,0.148c0.051,0.051,0.102,0.104,0.153,0.154c0.049,0.049,0.099,0.096,0.148,0.146
			c0.031,0.043,0.078,0.094,0.129,0.14c0.051,0.054,0.102,0.104,0.155,0.153c0.05,0.053,0.101,0.104,0.152,0.154
			c0.049,0.047,0.098,0.101,0.149,0.147c0.049,0.053,0.101,0.103,0.152,0.153c0.049,0.05,0.1,0.1,0.151,0.148
			c0.049,0.049,0.098,0.102,0.149,0.148c0.052,0.053,0.103,0.103,0.155,0.152c0.047,0.051,0.096,0.1,0.145,0.146
			c0.051,0.05,0.1,0.104,0.154,0.15c0.051,0.054,0.102,0.106,0.153,0.156c0.051,0.051,0.102,0.102,0.154,0.15
			c0.047,0.048,0.096,0.096,0.145,0.145c0.051,0.053,0.104,0.105,0.157,0.155c0.049,0.05,0.099,0.099,0.148,0.146
			c0.051,0.053,0.102,0.104,0.153,0.154c0.047,0.049,0.094,0.096,0.143,0.145c0.054,0.052,0.107,0.107,0.16,0.16
			c0.047,0.049,0.096,0.096,0.143,0.142c0.051,0.052,0.102,0.104,0.156,0.155c0.047,0.049,0.094,0.097,0.143,0.145
			c0.053,0.055,0.104,0.105,0.159,0.158c0.05,0.048,0.097,0.096,0.146,0.146c0.051,0.049,0.102,0.104,0.155,0.153
			c0.047,0.05,0.096,0.097,0.145,0.146c0.054,0.051,0.105,0.104,0.158,0.158c0.047,0.047,0.094,0.096,0.143,0.141
			c0.053,0.052,0.105,0.107,0.16,0.16c0.049,0.048,0.098,0.096,0.147,0.146c0.049,0.048,0.096,0.101,0.147,0.146
			c0.05,0.051,0.101,0.103,0.152,0.154c0.051,0.051,0.102,0.104,0.155,0.154c0.049,0.048,0.097,0.096,0.148,0.146
			c0.051,0.049,0.1,0.102,0.151,0.149c0.049,0.05,0.098,0.101,0.147,0.149c0.052,0.052,0.105,0.104,0.158,0.156
			c0.049,0.047,0.096,0.098,0.145,0.144c0.051,0.051,0.103,0.104,0.154,0.153c0.049,0.049,0.096,0.097,0.147,0.146
			c0.051,0.051,0.104,0.104,0.158,0.156c0.047,0.048,0.096,0.098,0.145,0.145c0.051,0.051,0.104,0.104,0.157,0.157
			c0.047,0.046,0.094,0.097,0.144,0.142c0.053,0.055,0.104,0.106,0.159,0.158c0.049,0.051,0.1,0.104,0.152,0.15
			c0.047,0.048,0.094,0.096,0.143,0.145c0.049,0.047,0.1,0.102,0.151,0.151s0.104,0.104,0.156,0.153
			c0.047,0.051,0.096,0.101,0.145,0.146c0.053,0.054,0.104,0.108,0.16,0.158c0.047,0.046,0.094,0.095,0.141,0.142
			c0.051,0.053,0.104,0.104,0.158,0.158c0.051,0.051,0.101,0.102,0.154,0.15c0.047,0.046,0.096,0.096,0.145,0.142
			c0.049,0.052,0.098,0.104,0.149,0.154c0.052,0.05,0.105,0.104,0.158,0.153c0.047,0.051,0.096,0.099,0.145,0.146
			c0.051,0.051,0.1,0.1,0.154,0.154c0.051,0.048,0.1,0.1,0.151,0.148c0.051,0.051,0.1,0.102,0.151,0.15
			c0.05,0.05,0.099,0.1,0.15,0.15c0.049,0.047,0.098,0.1,0.149,0.146c0.051,0.049,0.1,0.104,0.152,0.152
			c0.051,0.05,0.1,0.102,0.153,0.148c0.049,0.053,0.1,0.104,0.154,0.152c0.047,0.048,0.096,0.098,0.147,0.146
			c0.049,0.053,0.098,0.103,0.149,0.151c0.051,0.05,0.102,0.104,0.156,0.154c0.049,0.05,0.098,0.101,0.149,0.147
			c0.049,0.053,0.098,0.1,0.149,0.147c0.052,0.052,0.101,0.104,0.152,0.153c0.051,0.051,0.1,0.101,0.151,0.149
			c0.049,0.052,0.098,0.101,0.149,0.149c0.05,0.051,0.099,0.101,0.149,0.146c0.049,0.053,0.098,0.104,0.148,0.152
			c0.053,0.052,0.104,0.105,0.159,0.158c0.048,0.048,0.097,0.098,0.146,0.144c0.049,0.052,0.099,0.101,0.147,0.147
			c0.05,0.053,0.104,0.107,0.158,0.158c0.046,0.049,0.092,0.094,0.14,0.141c0.053,0.054,0.106,0.107,0.164,0.162
			c0.047,0.046,0.096,0.096,0.144,0.142c0.04,0.042,0.083,0.084,0.125,0.125C48.063,63.07,59.725,53.05,63.029,39.695z"/>
	</g>
	<path fill="#FFFFFF" d="M44.783,25.417c-0.825,0-1.612,0.137-2.375,0.331c-1.95-3.778-5.883-6.364-10.425-6.364
		c-5.392,0-9.925,3.644-11.297,8.598c-0.811-0.256-1.657-0.432-2.551-0.432c-4.712,0-8.533,3.821-8.533,8.533
		c0,4.713,3.821,8.533,8.533,8.533h1.289h25.12h0.241c5.303,0,9.602-4.3,9.602-9.601C54.387,29.716,50.088,25.417,44.783,25.417z"/>
</g>
</svg>
