<?xml version="1.0" encoding="utf-8"?>
<!-- Generator: Adobe Illustrator 16.0.0, SVG Export Plug-In . SVG Version: 6.00 Build 0)  -->
<!DOCTYPE svg PUBLIC "-//W3C//DTD SVG 1.1//EN" "http://www.w3.org/Graphics/SVG/1.1/DTD/svg11.dtd">
<svg version="1.1" id="CLOUDY" xmlns="http://www.w3.org/2000/svg" xmlns:xlink="http://www.w3.org/1999/xlink" x="0px" y="0px"
	 width="64px" height="64px" viewBox="0 0 64 64" enable-background="new 0 0 64 64" xml:space="preserve">
<g>
	<g id="night_bg_4_">
		<g>
			<circle fill="#34495E" cx="32" cy="32" r="32"/>
		</g>
		<g>
			<path fill="#2C3E50" d="M32,64c17.673,0,32-14.327,32-32S49.673,0,32,0V64z"/>
		</g>
	</g>
	<defs>
		<filter id="Adobe_OpacityMaskFilter" filterUnits="userSpaceOnUse" x="8.55" y="11.296" width="55.115" height="52.704">
			<feColorMatrix  type="matrix" values="1 0 0 0 0  0 1 0 0 0  0 0 1 0 0  0 0 0 1 0"/>
		</filter>
	</defs>
	<mask maskUnits="userSpaceOnUse" x="8.55" y="11.296" width="55.115" height="52.704" id="SVGID_1_">
		<g filter="url(#Adobe_OpacityMaskFilter)">
			<g>
				
					<radialGradient id="SVGID_2_" cx="70.7803" cy="590.999" r="37.333" gradientTransform="matrix(1 0 0 1 -41.9805 -562.1992)" gradientUnits="userSpaceOnUse">
					<stop  offset="0" style="stop-color:#FFFFFF"/>
					<stop  offset="0.1126" style="stop-color:#E8E8E8"/>
					<stop  offset="0.3492" style="stop-color:#ADADAD"/>
					<stop  offset="0.6869" style="stop-color:#4E4E4E"/>
					<stop  offset="0.9519" style="stop-color:#000000"/>
				</radialGradient>
				<circle fill="url(#SVGID_2_)" cx="28.8" cy="28.8" r="37.333"/>
			</g>
		</g>
	</mask>
	<g opacity="0.4" mask="url(#SVGID_1_)">
		<path fill="#34495E" d="M63.665,36.389c-0.013-0.014-0.022-0.027-0.042-0.041c-0.023-0.035-0.048-0.048-0.073-0.074
			c-0.024-0.024-0.041-0.053-0.079-0.076c-0.023-0.034-0.046-0.051-0.072-0.075c-0.024-0.024-0.041-0.048-0.076-0.075
			c-0.023-0.033-0.047-0.048-0.071-0.07c-0.024-0.029-0.044-0.055-0.083-0.08c-0.021-0.033-0.044-0.045-0.066-0.069
			c-0.024-0.029-0.041-0.05-0.08-0.079c-0.023-0.033-0.045-0.051-0.071-0.075c-0.025-0.024-0.044-0.05-0.077-0.075
			c-0.025-0.035-0.048-0.05-0.075-0.074c-0.024-0.024-0.042-0.051-0.075-0.074c-0.023-0.034-0.048-0.047-0.07-0.073
			c-0.028-0.026-0.045-0.052-0.082-0.079c-0.021-0.035-0.043-0.048-0.069-0.072c-0.024-0.024-0.044-0.051-0.077-0.076
			c-0.025-0.037-0.05-0.049-0.074-0.078c-0.027-0.021-0.045-0.047-0.076-0.07c-0.025-0.033-0.047-0.05-0.073-0.075
			c-0.025-0.024-0.042-0.05-0.075-0.075c-0.025-0.037-0.046-0.05-0.073-0.076c-0.026-0.024-0.044-0.049-0.077-0.072
			c-0.023-0.038-0.05-0.051-0.074-0.08c-0.026-0.023-0.043-0.049-0.074-0.07c-0.027-0.037-0.049-0.05-0.075-0.074
			c-0.024-0.024-0.044-0.053-0.077-0.078c-0.027-0.035-0.048-0.047-0.072-0.074c-0.024-0.024-0.043-0.049-0.078-0.072
			c-0.023-0.038-0.047-0.055-0.074-0.079c-0.024-0.024-0.039-0.048-0.072-0.071c-0.025-0.035-0.048-0.052-0.075-0.078
			c-0.024-0.025-0.044-0.051-0.079-0.076c-0.025-0.032-0.048-0.049-0.072-0.076c-0.027-0.025-0.045-0.049-0.075-0.074
			c-0.026-0.035-0.048-0.049-0.072-0.072c-0.024-0.027-0.042-0.056-0.079-0.08c-0.025-0.035-0.046-0.049-0.07-0.074
			c-0.029-0.025-0.045-0.051-0.08-0.075c-0.021-0.033-0.045-0.052-0.069-0.077s-0.042-0.048-0.077-0.074
			c-0.023-0.035-0.048-0.053-0.072-0.076c-0.027-0.025-0.047-0.052-0.08-0.076c-0.024-0.032-0.05-0.049-0.07-0.074
			c-0.029-0.025-0.047-0.051-0.079-0.074c-0.024-0.033-0.046-0.049-0.07-0.074c-0.028-0.025-0.046-0.051-0.079-0.076
			c-0.025-0.035-0.046-0.049-0.072-0.074c-0.025-0.025-0.045-0.049-0.076-0.074c-0.023-0.036-0.047-0.053-0.076-0.079
			c-0.024-0.026-0.041-0.05-0.075-0.075c-0.024-0.033-0.045-0.049-0.069-0.074c-0.025-0.025-0.047-0.052-0.08-0.076
			c-0.024-0.037-0.05-0.049-0.072-0.076c-0.027-0.025-0.045-0.049-0.077-0.074c-0.024-0.035-0.046-0.051-0.07-0.076
			c-0.028-0.025-0.046-0.053-0.079-0.077c-0.027-0.034-0.048-0.049-0.074-0.075c-0.025-0.025-0.043-0.049-0.076-0.075
			c-0.024-0.033-0.047-0.051-0.072-0.076c-0.025-0.026-0.043-0.051-0.077-0.075c-0.024-0.037-0.05-0.053-0.076-0.08
			c-0.024-0.022-0.044-0.047-0.073-0.072c-0.026-0.036-0.047-0.052-0.074-0.077c-0.025-0.026-0.043-0.049-0.075-0.075
			c-0.024-0.036-0.048-0.053-0.075-0.079c-0.023-0.025-0.041-0.049-0.076-0.074c-0.027-0.034-0.049-0.049-0.072-0.075
			c-0.027-0.026-0.043-0.049-0.076-0.074c-0.024-0.034-0.047-0.05-0.074-0.075c-0.023-0.026-0.041-0.051-0.075-0.077
			c-0.024-0.037-0.05-0.051-0.073-0.079c-0.029-0.023-0.047-0.049-0.078-0.072c-0.026-0.034-0.047-0.049-0.072-0.075
			c-0.027-0.026-0.047-0.051-0.079-0.077c-0.022-0.035-0.046-0.049-0.071-0.074c-0.023-0.026-0.043-0.052-0.079-0.077
			c-0.024-0.035-0.046-0.049-0.069-0.075c-0.025-0.025-0.045-0.049-0.078-0.075c-0.026-0.035-0.047-0.051-0.074-0.076
			c-0.027-0.026-0.044-0.049-0.077-0.075c-0.022-0.034-0.046-0.051-0.069-0.077c-0.027-0.025-0.045-0.049-0.08-0.074
			c-0.022-0.037-0.047-0.054-0.074-0.079c-0.025-0.026-0.043-0.049-0.075-0.075c-0.024-0.031-0.046-0.047-0.068-0.073
			c-0.026-0.025-0.044-0.053-0.081-0.078c-0.025-0.037-0.051-0.049-0.074-0.077c-0.025-0.024-0.041-0.049-0.076-0.073
			c-0.022-0.035-0.045-0.051-0.07-0.076c-0.029-0.026-0.046-0.052-0.079-0.077c-0.024-0.035-0.048-0.049-0.071-0.075
			c-0.027-0.025-0.045-0.051-0.078-0.077c-0.024-0.033-0.045-0.048-0.072-0.074s-0.045-0.051-0.077-0.077
			c-0.024-0.034-0.048-0.049-0.075-0.074c-0.023-0.026-0.041-0.052-0.074-0.077c-0.024-0.035-0.049-0.049-0.072-0.075
			c-0.027-0.025-0.045-0.051-0.077-0.075c-0.025-0.035-0.046-0.051-0.073-0.076c-0.027-0.026-0.044-0.049-0.079-0.075
			c-0.022-0.037-0.048-0.051-0.073-0.077c-0.025-0.025-0.041-0.049-0.074-0.074c-0.024-0.037-0.047-0.052-0.074-0.077
			c-0.025-0.026-0.045-0.051-0.077-0.075c-0.022-0.034-0.048-0.049-0.071-0.075c-0.025-0.025-0.043-0.051-0.078-0.076
			c-0.024-0.034-0.049-0.049-0.072-0.075c-0.025-0.026-0.043-0.049-0.075-0.075c-0.027-0.036-0.05-0.051-0.075-0.078
			c-0.025-0.026-0.044-0.05-0.077-0.075c-0.026-0.034-0.048-0.049-0.073-0.075c-0.027-0.025-0.041-0.049-0.076-0.074
			c-0.022-0.037-0.049-0.052-0.072-0.079c-0.027-0.026-0.044-0.049-0.079-0.075c-0.022-0.034-0.046-0.049-0.071-0.075
			c-0.023-0.025-0.044-0.051-0.078-0.076c-0.024-0.034-0.047-0.049-0.07-0.075c-0.029-0.025-0.047-0.051-0.079-0.077
			c-0.025-0.034-0.046-0.049-0.073-0.074c-0.025-0.026-0.044-0.049-0.077-0.075c-0.024-0.035-0.046-0.051-0.071-0.077
			c-0.027-0.025-0.045-0.051-0.078-0.076c-0.024-0.032-0.047-0.048-0.07-0.073c-0.025-0.028-0.046-0.053-0.079-0.08
			c-0.024-0.034-0.046-0.049-0.073-0.075c-0.025-0.025-0.044-0.051-0.076-0.076c-0.024-0.034-0.047-0.049-0.07-0.075
			c-0.029-0.026-0.047-0.051-0.079-0.077c-0.025-0.035-0.052-0.049-0.073-0.074c-0.027-0.026-0.044-0.05-0.077-0.075
			c-0.024-0.037-0.046-0.051-0.073-0.077c-0.023-0.025-0.043-0.049-0.076-0.075c-0.022-0.035-0.051-0.051-0.074-0.078
			c-0.025-0.026-0.042-0.049-0.075-0.075c-0.026-0.035-0.048-0.049-0.075-0.077c-0.025-0.025-0.042-0.049-0.074-0.074
			c-0.024-0.034-0.047-0.052-0.074-0.077c-0.025-0.026-0.043-0.049-0.078-0.075c-0.024-0.037-0.049-0.051-0.072-0.077
			c-0.027-0.025-0.042-0.049-0.075-0.072c-0.024-0.037-0.048-0.051-0.075-0.079c-0.023-0.026-0.043-0.049-0.078-0.075
			c-0.021-0.033-0.045-0.049-0.068-0.072c-0.027-0.028-0.044-0.053-0.079-0.079c-0.024-0.037-0.048-0.049-0.073-0.075
			c-0.027-0.025-0.041-0.049-0.074-0.074c-0.027-0.035-0.049-0.049-0.076-0.075c-0.023-0.026-0.043-0.051-0.078-0.077
			c-0.024-0.034-0.047-0.049-0.07-0.074c-0.029-0.026-0.042-0.05-0.077-0.075c-0.026-0.034-0.048-0.051-0.073-0.077
			c-0.026-0.025-0.045-0.051-0.078-0.077c-0.022-0.031-0.045-0.047-0.07-0.072c-0.025-0.028-0.044-0.053-0.08-0.079
			c-0.023-0.034-0.045-0.049-0.07-0.077c-0.029-0.025-0.046-0.049-0.078-0.074c-0.025-0.035-0.047-0.05-0.072-0.075
			c-0.025-0.026-0.045-0.051-0.078-0.077c-0.023-0.037-0.051-0.051-0.075-0.077c-0.024-0.025-0.041-0.049-0.074-0.074
			c-0.024-0.035-0.046-0.049-0.071-0.075c-0.023-0.026-0.043-0.051-0.078-0.079c-0.025-0.034-0.047-0.049-0.07-0.072
			c-0.025-0.028-0.046-0.052-0.08-0.079c-0.023-0.035-0.045-0.049-0.07-0.075c-0.027-0.025-0.043-0.051-0.078-0.075
			c-0.025-0.036-0.049-0.051-0.076-0.078c-0.024-0.026-0.041-0.049-0.074-0.075c-0.023-0.034-0.049-0.049-0.072-0.075
			c-0.027-0.025-0.044-0.051-0.076-0.074c-0.025-0.037-0.047-0.051-0.072-0.077c-0.028-0.026-0.045-0.049-0.078-0.075
			c-0.025-0.033-0.049-0.049-0.07-0.074c-0.029-0.026-0.046-0.051-0.08-0.077c-0.023-0.037-0.048-0.051-0.074-0.077
			c-0.025-0.025-0.041-0.049-0.074-0.072c-0.025-0.037-0.051-0.052-0.076-0.079c-0.024-0.026-0.041-0.049-0.074-0.075
			c-0.025-0.034-0.048-0.049-0.075-0.075c-0.026-0.025-0.041-0.049-0.073-0.074c-0.025-0.036-0.049-0.051-0.076-0.079
			c-0.024-0.026-0.041-0.049-0.076-0.075c-0.027-0.034-0.049-0.049-0.075-0.076c-0.024-0.024-0.039-0.05-0.073-0.073
			c-0.023-0.036-0.05-0.051-0.074-0.077c-0.027-0.025-0.043-0.051-0.078-0.077c-0.025-0.034-0.047-0.049-0.071-0.074
			c-0.025-0.026-0.042-0.049-0.077-0.075c-0.027-0.037-0.048-0.051-0.073-0.077c-0.026-0.025-0.045-0.051-0.079-0.076
			c-0.021-0.034-0.046-0.05-0.07-0.077c-0.026-0.026-0.043-0.049-0.078-0.075c-0.025-0.034-0.047-0.049-0.071-0.074
			c-0.024-0.026-0.044-0.052-0.077-0.075c-0.025-0.036-0.048-0.051-0.074-0.077c-0.065-0.038-0.082-0.062-0.115-0.087
			c-0.025-0.034-0.047-0.052-0.071-0.077c-0.029-0.026-0.044-0.049-0.079-0.075c-0.025-0.035-0.046-0.049-0.07-0.075
			c-0.029-0.025-0.046-0.051-0.08-0.076c-0.023-0.034-0.048-0.049-0.072-0.075c-0.027-0.026-0.045-0.051-0.077-0.075
			c-0.025-0.037-0.046-0.051-0.073-0.076c-0.023-0.026-0.042-0.05-0.072-0.075c-0.027-0.037-0.051-0.051-0.08-0.077
			c-0.024-0.025-0.041-0.051-0.074-0.075c-0.025-0.035-0.051-0.051-0.075-0.076c-0.025-0.026-0.042-0.049-0.075-0.073
			c-0.025-0.034-0.046-0.051-0.073-0.077c-0.026-0.025-0.043-0.051-0.077-0.076c-0.023-0.035-0.048-0.049-0.074-0.075
			c-0.025-0.026-0.043-0.051-0.075-0.077c-0.025-0.033-0.048-0.049-0.073-0.074c-0.027-0.026-0.044-0.052-0.077-0.075
			c-0.024-0.037-0.05-0.051-0.075-0.079c-0.023-0.026-0.041-0.049-0.076-0.074c-0.024-0.035-0.049-0.05-0.072-0.075
			c-0.026-0.026-0.043-0.051-0.076-0.075c-0.025-0.036-0.05-0.051-0.075-0.077c-0.024-0.025-0.044-0.051-0.077-0.076
			c-0.021-0.032-0.048-0.047-0.07-0.073c-0.026-0.026-0.043-0.051-0.078-0.079c-0.026-0.035-0.049-0.049-0.074-0.074
			c-0.027-0.026-0.044-0.052-0.079-0.077c-0.044-0.063-0.088-0.081-0.134-0.114c-0.046-0.076-0.096-0.114-0.146-0.151
			c-0.05-0.079-0.104-0.118-0.154-0.154c-0.047-0.074-0.1-0.11-0.146-0.146c-0.048-0.08-0.104-0.118-0.154-0.153
			c-0.047-0.077-0.098-0.114-0.147-0.15c-0.05-0.077-0.101-0.115-0.151-0.151c-0.048-0.075-0.099-0.113-0.15-0.149
			c-0.047-0.077-0.098-0.115-0.146-0.152c-0.048-0.075-0.102-0.113-0.148-0.149c-0.049-0.079-0.102-0.12-0.153-0.156
			c-0.048-0.074-0.099-0.113-0.147-0.149c-0.05-0.077-0.103-0.116-0.154-0.152c-0.045-0.074-0.096-0.112-0.146-0.149
			c-0.051-0.079-0.103-0.118-0.153-0.153c-0.047-0.075-0.1-0.112-0.146-0.148c-0.05-0.078-0.104-0.117-0.152-0.153
			c-0.047-0.075-0.098-0.111-0.148-0.147c-0.252-0.399-0.568-0.28-0.777,0.405c-0.271,0.868-1.197,1.798-2.063,2.063
			c-0.024,0.006-0.031,0.018-0.051,0.024c-0.008-0.008-0.017-0.006-0.023-0.016c-0.025-0.025-0.042-0.049-0.075-0.074
			c-0.024-0.035-0.048-0.052-0.073-0.077c-0.027-0.026-0.044-0.049-0.076-0.075c-0.024-0.033-0.047-0.049-0.074-0.077
			c-0.025-0.025-0.043-0.051-0.078-0.076c-0.024-0.035-0.049-0.049-0.072-0.075c-0.025-0.026-0.042-0.049-0.075-0.075
			c-0.024-0.035-0.048-0.051-0.075-0.078c-0.023-0.026-0.043-0.05-0.076-0.075c-0.027-0.035-0.049-0.049-0.072-0.077
			c-0.025-0.025-0.042-0.049-0.077-0.072c-0.11,0.008-0.136-0.009-0.161-0.035c-0.023-0.026-0.041-0.049-0.074-0.075
			c-0.024-0.035-0.045-0.049-0.07-0.075c-0.029-0.025-0.047-0.051-0.079-0.076c-0.025-0.036-0.046-0.051-0.073-0.077
			c-0.025-0.026-0.044-0.049-0.077-0.075c-0.024-0.034-0.046-0.051-0.069-0.076c-0.029-0.026-0.045-0.05-0.08-0.075
			c-0.024-0.037-0.047-0.053-0.074-0.079c-0.025-0.023-0.044-0.047-0.075-0.073c-0.024-0.035-0.048-0.051-0.073-0.076
			c-0.025-0.026-0.043-0.049-0.078-0.075c-0.022-0.035-0.043-0.049-0.07-0.075c-0.027-0.025-0.045-0.051-0.077-0.076
			c-0.027-0.037-0.05-0.052-0.075-0.077c-0.027-0.026-0.042-0.049-0.075-0.073c-0.024-0.035-0.048-0.051-0.071-0.076
			c-0.031-0.022-0.049-0.047-0.084-0.071c-0.026-0.037-0.049-0.051-0.074-0.08c-0.025-0.025-0.045-0.049-0.077-0.074
			c-0.024-0.034-0.046-0.05-0.071-0.075c-0.027-0.026-0.044-0.051-0.078-0.075c-0.037-0.037-0.06-0.052-0.087-0.079
			c-0.024-0.025-0.041-0.049-0.075-0.074c-0.023-0.034-0.05-0.049-0.074-0.077c-0.024-0.026-0.041-0.049-0.074-0.075
			c-0.023-0.035-0.047-0.051-0.071-0.076c-0.028-0.026-0.046-0.05-0.079-0.075c-0.027-0.034-0.048-0.049-0.074-0.075
			c-0.024-0.025-0.041-0.049-0.074-0.075c-0.027-0.036-0.053-0.052-0.077-0.077c-0.025-0.026-0.042-0.049-0.075-0.073
			c-0.025-0.037-0.05-0.051-0.075-0.079c-0.024-0.025-0.041-0.049-0.075-0.074c-0.025-0.034-0.048-0.049-0.074-0.077
			c-0.024-0.026-0.041-0.049-0.074-0.075c-0.025-0.033-0.049-0.051-0.073-0.076c-0.026-0.026-0.044-0.049-0.079-0.075
			c-0.027-0.035-0.048-0.049-0.072-0.075c-0.024-0.025-0.041-0.049-0.074-0.074c-0.027-0.037-0.049-0.052-0.075-0.077
			c-0.027-0.026-0.044-0.051-0.079-0.075c-0.027-0.034-0.048-0.051-0.073-0.077c-0.024-0.025-0.041-0.049-0.077-0.074
			c-0.025-0.035-0.048-0.049-0.072-0.075c-0.024-0.026-0.041-0.051-0.074-0.075c-0.027-0.036-0.051-0.051-0.075-0.076
			c-0.026-0.026-0.044-0.05-0.079-0.075c-0.025-0.034-0.048-0.049-0.074-0.077c-0.025-0.025-0.037-0.049-0.074-0.074
			c-0.025-0.034-0.047-0.052-0.073-0.077c-0.025-0.026-0.044-0.049-0.077-0.075c-0.023-0.034-0.046-0.049-0.071-0.072
			c-0.026-0.026-0.044-0.052-0.079-0.077c-0.035-0.032-0.061-0.049-0.086-0.075c-0.025-0.025-0.043-0.049-0.076-0.075
			c-0.045-0.062-0.088-0.082-0.136-0.112c-0.048-0.077-0.098-0.114-0.147-0.15c-0.047-0.078-0.101-0.117-0.151-0.153
			c-0.048-0.075-0.099-0.114-0.147-0.149c-0.051-0.077-0.103-0.118-0.153-0.154c-0.046-0.077-0.097-0.112-0.15-0.149
			c-0.048-0.077-0.1-0.116-0.149-0.151c-0.047-0.075-0.099-0.114-0.149-0.15c-0.046-0.077-0.099-0.115-0.149-0.151
			c-0.047-0.077-0.101-0.118-0.149-0.154c-0.046-0.074-0.099-0.113-0.15-0.149c-0.05-0.077-0.1-0.118-0.149-0.154
			c-0.049-0.074-0.101-0.11-0.149-0.147c-0.055-0.074-0.104-0.112-0.157-0.149c-0.047-0.075-0.098-0.114-0.146-0.15
			c-0.051-0.076-0.1-0.115-0.154-0.151c-0.046-0.077-0.096-0.115-0.146-0.151c-0.049-0.075-0.099-0.114-0.148-0.15
			c-0.254-0.399-0.57-0.277-0.779,0.407c-0.271,0.869-1.197,1.799-2.063,2.063c-0.689,0.211-0.811,0.527-0.412,0.786
			c0.038,0.051,0.076,0.102,0.151,0.151c0.028,0.05,0.066,0.101,0.143,0.15c0.037,0.052,0.075,0.101,0.15,0.15
			c0.037,0.051,0.074,0.103,0.151,0.151c0.039,0.051,0.075,0.1,0.152,0.149c0.036,0.052,0.074,0.103,0.151,0.152
			c0.037,0.051,0.075,0.102,0.151,0.149c0.036,0.051,0.075,0.104,0.15,0.15c0.039,0.053,0.076,0.102,0.153,0.151
			c0.036,0.051,0.075,0.102,0.15,0.151c0.035,0.051,0.074,0.103,0.151,0.152c0.037,0.051,0.075,0.102,0.149,0.149
			c0.039,0.053,0.077,0.102,0.154,0.154c0.036,0.051,0.073,0.1,0.149,0.149c0.036,0.051,0.074,0.102,0.15,0.151
			c0.037,0.052,0.075,0.103,0.149,0.152c0.037,0.051,0.076,0.102,0.15,0.151c0.032,0.044,0.055,0.089,0.116,0.134
			c0.022,0.034,0.047,0.049,0.071,0.075c0.027,0.025,0.045,0.051,0.082,0.077c0.021,0.034,0.043,0.049,0.068,0.072
			c0.026,0.028,0.045,0.053,0.079,0.079c0.025,0.034,0.048,0.049,0.071,0.075c0.023,0.025,0.046,0.051,0.081,0.076
			c0.022,0.034,0.048,0.05,0.073,0.075c0.023,0.026,0.041,0.051,0.078,0.077c0.022,0.034,0.043,0.049,0.07,0.075
			c0.025,0.025,0.042,0.051,0.079,0.076c0.021,0.034,0.048,0.049,0.071,0.077c0.023,0.026,0.041,0.049,0.078,0.075
			c0.025,0.034,0.047,0.049,0.07,0.074c0.025,0.026,0.043,0.05,0.08,0.075c0.024,0.037,0.051,0.051,0.074,0.08
			c0.027,0.022,0.042,0.049,0.075,0.072c0.026,0.036,0.05,0.052,0.075,0.077c0.023,0.026,0.043,0.049,0.076,0.075
			c0.022,0.035,0.049,0.051,0.072,0.077c0.029,0.025,0.043,0.049,0.077,0.072c0.024,0.037,0.048,0.051,0.073,0.077
			c0.027,0.025,0.044,0.049,0.079,0.075c0.022,0.035,0.048,0.051,0.075,0.076c0.023,0.026,0.039,0.049,0.074,0.073
			c0.024,0.036,0.049,0.051,0.072,0.077c0.027,0.025,0.04,0.049,0.075,0.072c0.022,0.037,0.048,0.052,0.073,0.079
			c0.027,0.026,0.045,0.051,0.078,0.077c0.024,0.034,0.047,0.047,0.07,0.073c0.027,0.025,0.045,0.051,0.079,0.076
			c0.024,0.034,0.046,0.051,0.071,0.077c0.029,0.026,0.046,0.051,0.078,0.077c0.025,0.033,0.051,0.049,0.074,0.074
			c0.025,0.026,0.043,0.049,0.076,0.075c0.022,0.036,0.047,0.051,0.07,0.079c0.029,0.025,0.046,0.051,0.084,0.077
			c0.021,0.031,0.043,0.047,0.066,0.072c0.023,0.026,0.041,0.051,0.078,0.079c0.024,0.034,0.051,0.051,0.076,0.077
			c0.023,0.025,0.041,0.049,0.073,0.074c0.024,0.035,0.046,0.049,0.071,0.077c0.029,0.026,0.044,0.049,0.078,0.075
			c0.025,0.033,0.049,0.051,0.072,0.077c0.027,0.025,0.045,0.051,0.078,0.074c0.024,0.037,0.051,0.051,0.074,0.077
			c0.025,0.026,0.042,0.049,0.077,0.074c0.022,0.034,0.048,0.052,0.073,0.077c0.024,0.026,0.041,0.049,0.074,0.075
			c0.027,0.034,0.049,0.051,0.075,0.077c0.024,0.025,0.041,0.049,0.074,0.074c0.024,0.035,0.049,0.051,0.073,0.077
			c0.027,0.026,0.044,0.051,0.08,0.077c0.023,0.034,0.047,0.049,0.068,0.072c0.027,0.028,0.045,0.052,0.078,0.077
			c0.026,0.037,0.051,0.051,0.074,0.077c0.027,0.025,0.044,0.049,0.08,0.075c0.023,0.033,0.045,0.051,0.07,0.076
			c0.029,0.026,0.041,0.049,0.076,0.075c0.027,0.037,0.049,0.051,0.075,0.079c0.024,0.025,0.044,0.049,0.072,0.072
			c0.026,0.035,0.049,0.05,0.075,0.075c0.027,0.028,0.044,0.051,0.078,0.077c0.025,0.034,0.047,0.049,0.072,0.075
			c0.023,0.025,0.041,0.051,0.076,0.076c0.027,0.034,0.049,0.051,0.072,0.077c0.027,0.026,0.046,0.051,0.08,0.077
			c0.023,0.034,0.045,0.049,0.07,0.074c0.028,0.026,0.043,0.05,0.078,0.075c0.025,0.037,0.049,0.051,0.075,0.079
			c0.025,0.025,0.042,0.049,0.075,0.073c0.023,0.036,0.046,0.051,0.072,0.076c0.027,0.026,0.044,0.049,0.076,0.075
			c0.025,0.034,0.052,0.051,0.076,0.077c0.024,0.025,0.039,0.049,0.074,0.074c0.025,0.034,0.047,0.051,0.07,0.077
			c0.029,0.026,0.046,0.049,0.08,0.075c0.023,0.034,0.05,0.049,0.072,0.074c0.026,0.026,0.043,0.049,0.076,0.075
			c0.023,0.036,0.047,0.051,0.071,0.077c0.026,0.025,0.043,0.049,0.079,0.074c0.023,0.037,0.048,0.052,0.075,0.079
			c0.024,0.026,0.041,0.049,0.073,0.075c0.025,0.034,0.049,0.049,0.074,0.077c0.026,0.025,0.043,0.049,0.076,0.074
			c0.025,0.037,0.047,0.051,0.073,0.077c0.026,0.026,0.043,0.049,0.077,0.075c0.025,0.035,0.048,0.049,0.074,0.074
			c0.024,0.026,0.041,0.05,0.074,0.075c0.025,0.037,0.049,0.051,0.075,0.077c0.024,0.025,0.042,0.049,0.079,0.075
			c0.021,0.031,0.046,0.046,0.068,0.072c0.025,0.026,0.043,0.051,0.076,0.077c0.027,0.037,0.051,0.051,0.076,0.077
			c0.026,0.025,0.043,0.051,0.078,0.074c0.025,0.037,0.047,0.051,0.071,0.077c0.024,0.025,0.041,0.049,0.077,0.075
			c0.021,0.033,0.048,0.051,0.074,0.076c0.026,0.026,0.039,0.049,0.074,0.075c0.025,0.035,0.049,0.051,0.073,0.077
			c0.026,0.025,0.044,0.049,0.079,0.074c0.021,0.035,0.044,0.05,0.07,0.077c0.025,0.026,0.043,0.049,0.076,0.075
			c0.027,0.037,0.049,0.051,0.076,0.077c0.026,0.025,0.043,0.049,0.074,0.072c0.025,0.037,0.049,0.051,0.073,0.077
			c0.026,0.026,0.046,0.049,0.079,0.075c0.023,0.034,0.046,0.049,0.07,0.074c0.024,0.026,0.043,0.052,0.078,0.077
			c0.021,0.034,0.047,0.051,0.071,0.077c0.028,0.025,0.046,0.051,0.079,0.077c0.025,0.035,0.05,0.049,0.074,0.076
			c0.025,0.026,0.041,0.049,0.076,0.073c0.023,0.036,0.047,0.053,0.074,0.079c0.024,0.023,0.041,0.049,0.074,0.072
			c0.025,0.034,0.051,0.052,0.075,0.077c0.024,0.026,0.042,0.049,0.075,0.073c0.023,0.036,0.046,0.051,0.072,0.078
			c0.026,0.026,0.043,0.052,0.082,0.077c0.021,0.032,0.045,0.047,0.065,0.071c0.026,0.025,0.044,0.053,0.079,0.078
			c0.025,0.034,0.05,0.052,0.074,0.077c0.025,0.026,0.041,0.049,0.08,0.075c0.021,0.032,0.045,0.047,0.067,0.073
			c0.025,0.025,0.044,0.051,0.079,0.076c0.023,0.034,0.049,0.049,0.069,0.075c0.028,0.026,0.046,0.051,0.079,0.077
			c0.027,0.034,0.048,0.049,0.074,0.076c0.024,0.026,0.041,0.05,0.074,0.075c0.025,0.035,0.047,0.051,0.073,0.077
			c0.026,0.025,0.044,0.051,0.079,0.077c0.025,0.036,0.048,0.051,0.072,0.076c0.027,0.026,0.041,0.049,0.076,0.075
			c0.025,0.037,0.049,0.051,0.073,0.077c0.025,0.025,0.044,0.049,0.077,0.074c0.027,0.034,0.048,0.05,0.073,0.075
			c0.024,0.026,0.042,0.049,0.077,0.075c0.011,0.015,0.019,0.036,0.031,0.047c-0.369,0.032-0.729,0.079-1.084,0.149
			c-0.002-0.002-0.004-0.004-0.006-0.006c-0.053-0.055-0.107-0.102-0.158-0.158c-0.045-0.049-0.097-0.092-0.141-0.141
			c-0.052-0.055-0.111-0.106-0.162-0.164c-0.046-0.05-0.096-0.092-0.142-0.142c-0.052-0.053-0.104-0.1-0.154-0.153
			c-0.046-0.051-0.101-0.098-0.147-0.149c-0.049-0.052-0.103-0.099-0.149-0.152c-0.047-0.053-0.104-0.098-0.151-0.151
			c-0.047-0.053-0.101-0.098-0.147-0.152c-0.052-0.053-0.106-0.1-0.156-0.155c-0.046-0.049-0.099-0.094-0.144-0.143
			c-0.047-0.051-0.1-0.097-0.146-0.148c-0.052-0.057-0.109-0.108-0.165-0.164c-0.045-0.047-0.094-0.089-0.137-0.136
			c-0.052-0.057-0.108-0.105-0.158-0.159c-0.046-0.051-0.101-0.096-0.146-0.145c-2.144-2.341-5.219-3.813-8.643-3.813
			c-0.499,0-0.989,0.036-1.472,0.096c0.02-0.027,0.034-0.06,0.054-0.089c-0.09,0.008-0.177,0.03-0.267,0.038
			c0.042-0.061,0.072-0.13,0.117-0.189c-0.09,0.008-0.177,0.029-0.267,0.039c0.042-0.063,0.075-0.128,0.118-0.19
			c-0.09,0.009-0.177,0.028-0.267,0.039c0.042-0.06,0.072-0.128,0.114-0.188c-0.089,0.008-0.177,0.028-0.267,0.039
			c0.043-0.063,0.075-0.13,0.118-0.191c-0.089,0.009-0.179,0.03-0.269,0.039c0.042-0.062,0.075-0.128,0.118-0.189
			c-0.09,0.008-0.177,0.03-0.267,0.039c0.042-0.062,0.074-0.13,0.117-0.189c-0.09,0.008-0.177,0.029-0.267,0.038
			c0.043-0.063,0.073-0.128,0.116-0.188c-0.089,0.01-0.177,0.03-0.267,0.039c0.043-0.062,0.073-0.13,0.118-0.189
			c-0.089,0.008-0.177,0.03-0.267,0.039c0.043-0.063,0.072-0.128,0.115-0.188c-0.09,0.008-0.177,0.027-0.267,0.038
			c0.042-0.062,0.073-0.129,0.118-0.19c-0.09,0.009-0.177,0.03-0.267,0.041c0.042-0.062,0.072-0.13,0.116-0.19
			c-0.089,0.008-0.177,0.03-0.267,0.039c0.043-0.06,0.073-0.128,0.116-0.188c-0.089,0.008-0.177,0.029-0.267,0.038
			c0.042-0.062,0.075-0.13,0.118-0.189c-0.089,0.008-0.177,0.03-0.267,0.039c0.042-0.062,0.074-0.128,0.117-0.189
			c-0.09,0.008-0.177,0.029-0.267,0.038c0.042-0.063,0.075-0.13,0.118-0.19c-0.09,0.009-0.177,0.03-0.267,0.039
			c0.042-0.062,0.073-0.128,0.115-0.188c-0.089,0.008-0.177,0.027-0.267,0.039c0.042-0.063,0.072-0.13,0.117-0.19
			c-0.089,0.009-0.177,0.03-0.267,0.038c0.043-0.061,0.073-0.128,0.116-0.188c-0.09,0.009-0.177,0.03-0.267,0.039
			c0.042-0.061,0.074-0.128,0.117-0.189c-0.09,0.008-0.177,0.029-0.267,0.039c0.042-0.063,0.075-0.13,0.118-0.19
			c-0.09,0.008-0.177,0.03-0.267,0.039c0.042-0.062,0.075-0.128,0.118-0.19c-0.09,0.008-0.177,0.028-0.267,0.039
			c0.043-0.063,0.072-0.128,0.115-0.188c-0.089,0.008-0.177,0.027-0.267,0.038c0.042-0.062,0.075-0.129,0.118-0.189
			c-0.089,0.008-0.177,0.03-0.267,0.039c0.042-0.062,0.075-0.128,0.118-0.19c-0.089,0.009-0.177,0.029-0.267,0.039
			c0.042-0.063,0.074-0.13,0.117-0.19c-0.09,0.009-0.177,0.03-0.267,0.039c0.042-0.062,0.073-0.128,0.115-0.188
			c-0.057,0.002-0.144,0.022-0.234,0.032c0.043-0.063,0.074-0.13,0.117-0.191c-0.089,0.01-0.177,0.03-0.267,0.039
			c0.043-0.061,0.073-0.128,0.116-0.188c-0.09,0.009-0.18,0.031-0.269,0.042c0.042-0.062,0.073-0.13,0.118-0.19
			c-0.09,0.008-0.178,0.027-0.267,0.038c0.043-0.063,0.074-0.13,0.117-0.19c-0.089,0.009-0.177,0.03-0.267,0.039
			c0.043-0.062,0.075-0.128,0.118-0.189c-0.089-0.03-0.177-0.009-0.267,0c0.043-0.062,0.075-0.13,0.118-0.19
			c-0.09,0.008-0.177,0.029-0.267,0.039c0.042-0.063,0.072-0.128,0.115-0.188c-0.09,0.007-0.178,0.026-0.267,0.037
			c0.042-0.062,0.073-0.13,0.118-0.189c-0.09,0.008-0.177,0.03-0.267,0.039c0.042-0.063,0.072-0.128,0.114-0.188
			c-0.089,0.008-0.179,0.028-0.268,0.04c0.042-0.063,0.073-0.13,0.118-0.191c-0.09,0.009-0.177,0.028-0.267,0.039
			c0.042-0.061,0.075-0.13,0.118-0.189c-0.09,0.007-0.178,0.028-0.267,0.038c0.042-0.063,0.074-0.128,0.117-0.19
			c-0.09,0.008-0.178,0.027-0.267,0.038c0.042-0.062,0.073-0.128,0.115-0.188c-0.089,0.008-0.177,0.028-0.266,0.039
			c0.043-0.063,0.072-0.13,0.117-0.19c-0.09,0.008-0.178,0.029-0.267,0.037c0.042-0.06,0.073-0.127,0.116-0.188
			c-0.09,0.008-0.177,0.03-0.267,0.039c0.042-0.062,0.075-0.13,0.118-0.189c-0.09,0.008-0.177,0.03-0.267,0.039
			c0.042-0.063,0.072-0.128,0.114-0.188c-0.089,0.008-0.177,0.029-0.266,0.037c0.043-0.061,0.072-0.129,0.117-0.189
			c-0.089,0.008-0.176,0.03-0.266,0.038c0.043-0.061,0.072-0.128,0.114-0.187c-0.09,0.008-0.176,0.029-0.267,0.039
			c0.042-0.063,0.075-0.128,0.118-0.19c-0.089,0.008-0.177,0.027-0.266,0.038c0.042-0.062,0.075-0.13,0.118-0.19
			c-0.09,0.008-0.177,0.03-0.267,0.039c0.042-0.063,0.074-0.129,0.116-0.191c-1.779,0.166-3.554,0.696-5.203,1.65
			c-5.574,3.219-7.799,9.999-5.482,15.81C9.743,33.488,8.55,35.793,8.55,38.4c0,2.396,0.995,4.555,2.586,6.104
			c0.047,0.048,0.094,0.097,0.143,0.142c0.051,0.056,0.104,0.108,0.159,0.162c0.047,0.047,0.094,0.096,0.144,0.139
			c0.051,0.055,0.104,0.107,0.157,0.158c0.047,0.051,0.094,0.097,0.143,0.145c0.052,0.053,0.105,0.105,0.158,0.158
			c0.049,0.048,0.1,0.1,0.151,0.146c0.049,0.051,0.096,0.102,0.147,0.146c0.051,0.05,0.1,0.104,0.151,0.154
			c0.051,0.049,0.1,0.102,0.153,0.148c0.05,0.051,0.099,0.102,0.148,0.148c0.051,0.052,0.1,0.102,0.153,0.15
			c0.049,0.051,0.098,0.102,0.15,0.15c0.051,0.05,0.102,0.104,0.155,0.154c0.047,0.047,0.094,0.096,0.143,0.142
			c0.051,0.054,0.105,0.106,0.156,0.157c0.049,0.047,0.098,0.099,0.147,0.146c0.051,0.051,0.1,0.102,0.154,0.15
			c0.049,0.05,0.1,0.104,0.153,0.154c0.049,0.049,0.096,0.098,0.147,0.146c0.052,0.05,0.101,0.104,0.154,0.151
			c0.049,0.049,0.098,0.104,0.149,0.15c0.049,0.053,0.1,0.1,0.152,0.147c0.049,0.052,0.1,0.104,0.151,0.153
			c0.049,0.047,0.096,0.097,0.145,0.146c0.051,0.051,0.105,0.104,0.159,0.154c0.047,0.05,0.094,0.096,0.143,0.144
			c0.053,0.056,0.104,0.106,0.158,0.158c0.049,0.049,0.096,0.099,0.147,0.147c0.051,0.049,0.1,0.101,0.151,0.15
			c0.049,0.051,0.101,0.1,0.152,0.148c0.049,0.051,0.098,0.102,0.147,0.146c0.051,0.055,0.1,0.105,0.153,0.154
			c0.05,0.053,0.099,0.102,0.15,0.15c0.049,0.049,0.098,0.1,0.149,0.149c0.051,0.05,0.1,0.103,0.154,0.149
			c0.049,0.052,0.098,0.101,0.147,0.15c0.051,0.049,0.102,0.104,0.155,0.153c0.05,0.05,0.099,0.101,0.148,0.146
			c0.053,0.08,0.1,0.127,0.151,0.176c0.051,0.052,0.103,0.104,0.156,0.158c0.047,0.047,0.096,0.096,0.145,0.144
			c0.051,0.054,0.102,0.104,0.153,0.151c0.05,0.051,0.099,0.102,0.15,0.15c0.051,0.053,0.1,0.104,0.153,0.152
			c0.049,0.048,0.098,0.1,0.148,0.146c0.051,0.051,0.102,0.104,0.153,0.154c0.051,0.051,0.1,0.1,0.153,0.148
			c0.048,0.052,0.095,0.098,0.144,0.144c0.051,0.054,0.104,0.106,0.157,0.158c0.047,0.05,0.094,0.096,0.143,0.144
			c0.052,0.053,0.105,0.106,0.158,0.158c0.049,0.049,0.098,0.1,0.149,0.146c0.049,0.052,0.097,0.102,0.148,0.146
			c0.051,0.051,0.1,0.104,0.153,0.154c0.049,0.05,0.098,0.1,0.149,0.146c0.052,0.053,0.101,0.104,0.154,0.153
			c0.049,0.052,0.1,0.104,0.151,0.151c0.047,0.049,0.094,0.097,0.144,0.145c0.051,0.053,0.104,0.105,0.157,0.158
			c0.047,0.046,0.096,0.096,0.145,0.143c0.052,0.053,0.103,0.105,0.158,0.157c0.049,0.05,0.098,0.101,0.149,0.149
			c0.049,0.049,0.096,0.097,0.148,0.145c0.049,0.053,0.1,0.102,0.151,0.152c0.049,0.05,0.1,0.104,0.153,0.154
			c0.05,0.047,0.099,0.1,0.15,0.146c0.051,0.053,0.1,0.104,0.151,0.15c0.049,0.052,0.098,0.1,0.15,0.146
			c0.049,0.053,0.1,0.104,0.153,0.154c0.047,0.048,0.096,0.096,0.145,0.145c0.051,0.051,0.105,0.105,0.158,0.155
			c0.047,0.05,0.094,0.101,0.143,0.146c0.051,0.054,0.102,0.104,0.156,0.156c0.049,0.049,0.098,0.1,0.149,0.148
			c0.049,0.05,0.1,0.102,0.151,0.15c0.049,0.049,0.099,0.1,0.15,0.148c0.049,0.051,0.098,0.102,0.149,0.15
			c0.049,0.05,0.1,0.102,0.151,0.148c0.05,0.051,0.099,0.102,0.15,0.15c0.051,0.05,0.1,0.104,0.153,0.152
			c0.054,0.063,0.104,0.112,0.157,0.162c0.047,0.049,0.096,0.098,0.147,0.146c0.051,0.05,0.1,0.1,0.151,0.15
			c0.05,0.049,0.099,0.1,0.148,0.148c0.051,0.051,0.102,0.104,0.155,0.154c0.049,0.05,0.101,0.1,0.154,0.152
			c0.047,0.047,0.094,0.094,0.143,0.139c0.051,0.053,0.102,0.104,0.155,0.158c0.05,0.049,0.099,0.101,0.15,0.147
			c0.051,0.054,0.102,0.104,0.153,0.154c0.049,0.05,0.101,0.103,0.152,0.149c0.047,0.051,0.096,0.101,0.145,0.146
			c0.051,0.05,0.1,0.104,0.151,0.149c0.052,0.056,0.103,0.107,0.156,0.155c0.049,0.054,0.1,0.104,0.149,0.152
			c0.049,0.048,0.1,0.103,0.15,0.147c0.049,0.051,0.098,0.101,0.147,0.146c0.049,0.052,0.098,0.104,0.149,0.149
			c0.053,0.055,0.105,0.107,0.161,0.16c0.047,0.049,0.096,0.098,0.147,0.145c0.049,0.05,0.096,0.1,0.146,0.148
			c0.052,0.051,0.105,0.104,0.159,0.154c0.047,0.051,0.096,0.1,0.145,0.146c0.051,0.054,0.103,0.104,0.156,0.152
			c0.049,0.051,0.098,0.102,0.149,0.148c0.049,0.052,0.098,0.1,0.15,0.146c0.049,0.055,0.1,0.104,0.151,0.154
			c0.049,0.048,0.098,0.102,0.149,0.148c0.051,0.047,0.101,0.102,0.154,0.15c0.049,0.051,0.098,0.102,0.149,0.15
			c0.049,0.048,0.098,0.1,0.149,0.148c0.052,0.051,0.101,0.102,0.152,0.15c0.049,0.05,0.098,0.102,0.147,0.146
			c0.051,0.053,0.102,0.104,0.156,0.158c0.049,0.047,0.1,0.1,0.151,0.146c0.049,0.048,0.096,0.098,0.147,0.145
			c0.052,0.053,0.103,0.105,0.154,0.153c0.049,0.05,0.098,0.101,0.147,0.147c0.051,0.053,0.1,0.104,0.154,0.151
			c0.049,0.056,0.1,0.104,0.151,0.154c0.049,0.048,0.098,0.096,0.146,0.146c0.049,0.051,0.097,0.098,0.148,0.146
			c0.051,0.054,0.104,0.107,0.158,0.158c0.049,0.052,0.1,0.101,0.152,0.149c0.049,0.05,0.098,0.101,0.147,0.147
			c0.049,0.047,0.1,0.101,0.151,0.148c0.049,0.051,0.099,0.1,0.15,0.148c0.039,0.042,0.076,0.076,0.115,0.117
			C31.038,63.95,31.511,64,32,64C48.18,64,61.521,51.979,63.665,36.389z"/>
	</g>
	<g>
		<path fill="#F5D76E" d="M17.069,16.114c1.649-0.955,3.424-1.483,5.203-1.65c-2.801,3.955-3.234,9.331-0.655,13.801
			c2.581,4.469,7.452,6.785,12.279,6.334c-1.033,1.459-2.378,2.729-4.031,3.685c-6.121,3.532-13.952,1.438-17.485-4.681
			C8.849,27.475,10.948,19.646,17.069,16.114z M44.217,17.18c-0.263-0.867-0.699-0.867-0.967,0
			c-0.271,0.868-1.195,1.798-2.063,2.063c-0.871,0.267-0.871,0.708,0,0.975c0.865,0.267,1.791,1.195,2.063,2.063
			c0.268,0.867,0.704,0.867,0.967,0c0.271-0.87,1.202-1.798,2.063-2.063c0.871-0.267,0.871-0.708,0-0.975
			C45.417,18.978,44.486,18.048,44.217,17.18z M33.55,11.927c-0.263-0.866-0.698-0.866-0.966,0
			c-0.271,0.869-1.196,1.799-2.062,2.063c-0.871,0.267-0.871,0.708,0,0.975c0.866,0.267,1.792,1.195,2.062,2.063
			c0.268,0.867,0.703,0.867,0.966,0c0.271-0.868,1.202-1.798,2.063-2.063c0.871-0.267,0.871-0.708,0-0.975
			C34.75,13.726,33.82,12.798,33.55,11.927z"/>
		<path fill="#FFFFFF" d="M43.732,27.731c-0.824,0-1.611,0.136-2.375,0.33c-1.949-3.778-5.883-6.364-10.424-6.364
			c-5.391,0-9.924,3.644-11.295,8.598c-0.811-0.256-1.658-0.431-2.552-0.431c-4.712,0-8.533,3.824-8.533,8.537
			c0,4.711,3.821,8.533,8.533,8.533h1.289h25.117h0.242c5.304,0,9.6-4.301,9.6-9.602C53.333,32.03,49.037,27.731,43.732,27.731z"/>
	</g>
</g>
</svg>
