<?xml version="1.0" encoding="utf-8"?>
<!-- Generator: Adobe Illustrator 16.0.0, SVG Export Plug-In . SVG Version: 6.00 Build 0)  -->
<!DOCTYPE svg PUBLIC "-//W3C//DTD SVG 1.1//EN" "http://www.w3.org/Graphics/SVG/1.1/DTD/svg11.dtd">
<svg version="1.1" id="SNOWY" xmlns="http://www.w3.org/2000/svg" xmlns:xlink="http://www.w3.org/1999/xlink" x="0px" y="0px"
	 width="64px" height="64px" viewBox="0 0 64 64" enable-background="new 0 0 64 64" xml:space="preserve">
<g>
	<g id="night_bg">
		<g>
			<circle fill="#34495E" cx="32" cy="32" r="32"/>
		</g>
		<g>
			<path fill="#2C3E50" d="M32,64c17.673,0,32-14.327,32-32S49.673,0,32,0V64z"/>
		</g>
	</g>
	<defs>
		<filter id="Adobe_OpacityMaskFilter" filterUnits="userSpaceOnUse" x="9.61" y="12.8" width="54.291" height="50.907">
			<feColorMatrix  type="matrix" values="1 0 0 0 0  0 1 0 0 0  0 0 1 0 0  0 0 0 1 0"/>
		</filter>
	</defs>
	<mask maskUnits="userSpaceOnUse" x="9.61" y="12.8" width="54.291" height="50.907" id="SVGID_1_">
		<g filter="url(#Adobe_OpacityMaskFilter)">
			<g>
				
					<radialGradient id="SVGID_2_" cx="70.7803" cy="590.999" r="37.333" gradientTransform="matrix(1 0 0 1 -41.9805 -562.1992)" gradientUnits="userSpaceOnUse">
					<stop  offset="0" style="stop-color:#FFFFFF"/>
					<stop  offset="0.1126" style="stop-color:#E8E8E8"/>
					<stop  offset="0.3492" style="stop-color:#ADADAD"/>
					<stop  offset="0.6869" style="stop-color:#4E4E4E"/>
					<stop  offset="0.9519" style="stop-color:#000000"/>
				</radialGradient>
				<circle fill="url(#SVGID_2_)" cx="28.8" cy="28.8" r="37.333"/>
			</g>
		</g>
	</mask>
	<g opacity="0.4" mask="url(#SVGID_1_)">
		<path fill="#1A171B" d="M63.9,33.979c-0.006-0.004-0.008-0.008-0.012-0.013c-0.052-0.055-0.105-0.106-0.158-0.157
			c-0.047-0.051-0.101-0.102-0.147-0.15c-0.05-0.049-0.101-0.096-0.149-0.146c-0.047-0.05-0.101-0.103-0.149-0.15
			c-0.05-0.053-0.101-0.104-0.152-0.153c-0.048-0.05-0.103-0.101-0.151-0.151c-0.047-0.047-0.096-0.097-0.145-0.144
			c-0.048-0.052-0.1-0.101-0.148-0.151c-0.053-0.052-0.104-0.104-0.156-0.154c-0.049-0.051-0.102-0.104-0.15-0.154
			c-0.05-0.049-0.1-0.099-0.146-0.147c-0.053-0.053-0.104-0.102-0.156-0.156c-0.046-0.049-0.096-0.098-0.146-0.146
			c-0.05-0.051-0.1-0.1-0.148-0.151c-0.051-0.052-0.102-0.101-0.15-0.15c-0.048-0.051-0.098-0.1-0.148-0.149
			c-0.049-0.053-0.102-0.104-0.152-0.156c-0.048-0.051-0.1-0.1-0.152-0.151c-0.05-0.051-0.098-0.1-0.148-0.149
			c-0.049-0.051-0.102-0.101-0.148-0.152c-0.052-0.051-0.102-0.102-0.154-0.153c-0.047-0.049-0.098-0.098-0.146-0.148
			c-0.048-0.051-0.102-0.1-0.148-0.151c-0.047-0.051-0.102-0.102-0.15-0.153c-0.051-0.052-0.102-0.101-0.15-0.152
			c-0.05-0.051-0.1-0.102-0.154-0.151c-0.045-0.049-0.096-0.098-0.144-0.147c-0.052-0.054-0.104-0.105-0.155-0.159
			c-0.051-0.051-0.104-0.1-0.15-0.149c-0.049-0.049-0.096-0.099-0.146-0.146c-0.05-0.051-0.1-0.102-0.15-0.151
			c-0.049-0.053-0.104-0.104-0.152-0.156c-0.051-0.049-0.102-0.096-0.146-0.145c-0.05-0.053-0.104-0.104-0.158-0.155
			c-0.045-0.05-0.096-0.099-0.146-0.146c-0.048-0.053-0.101-0.104-0.151-0.155c-0.051-0.049-0.104-0.1-0.152-0.149
			c-0.047-0.052-0.098-0.101-0.146-0.15c-0.05-0.051-0.104-0.102-0.154-0.153c-0.047-0.049-0.1-0.099-0.146-0.15
			c-0.053-0.051-0.104-0.102-0.152-0.153c-0.049-0.049-0.101-0.096-0.149-0.145c-0.046-0.051-0.097-0.101-0.147-0.152
			c-0.048-0.053-0.103-0.104-0.154-0.155c-0.051-0.052-0.103-0.1-0.151-0.152c-0.048-0.049-0.097-0.096-0.146-0.145
			c-0.051-0.051-0.102-0.102-0.15-0.151c-0.051-0.052-0.102-0.104-0.154-0.154c-0.048-0.051-0.1-0.1-0.148-0.151
			c-0.049-0.049-0.102-0.099-0.146-0.147c-0.05-0.052-0.102-0.103-0.152-0.154c-0.049-0.051-0.102-0.102-0.15-0.151
			c-0.051-0.052-0.1-0.101-0.15-0.152c-0.05-0.051-0.098-0.1-0.146-0.149c-0.051-0.053-0.105-0.104-0.157-0.156
			c-0.048-0.049-0.097-0.098-0.144-0.145c-0.054-0.051-0.104-0.104-0.156-0.155c-0.051-0.05-0.102-0.099-0.15-0.148
			c-0.048-0.051-0.1-0.102-0.148-0.151c-0.051-0.049-0.102-0.098-0.148-0.146c-0.048-0.052-0.102-0.104-0.152-0.154
			c-0.048-0.049-0.1-0.098-0.146-0.147c-0.05-0.053-0.104-0.105-0.156-0.156c-0.048-0.049-0.098-0.098-0.144-0.147
			c-0.053-0.051-0.104-0.104-0.158-0.156c-0.049-0.049-0.102-0.098-0.146-0.146c-0.05-0.051-0.102-0.103-0.154-0.153
			c-0.047-0.05-0.098-0.098-0.146-0.15c-0.052-0.051-0.104-0.102-0.153-0.153c-0.047-0.049-0.097-0.096-0.146-0.145
			c-0.05-0.054-0.104-0.105-0.154-0.159c-0.05-0.049-0.1-0.098-0.15-0.149c-0.049-0.051-0.1-0.103-0.15-0.152
			c-0.048-0.051-0.102-0.1-0.148-0.149c-0.049-0.051-0.1-0.1-0.15-0.152c-0.067-0.055-0.119-0.106-0.171-0.157
			c-0.048-0.05-0.095-0.098-0.144-0.146c-0.051-0.051-0.101-0.1-0.15-0.152C52.104,22.14,52.05,22.088,52,22.04
			c-0.046-0.051-0.098-0.1-0.146-0.149c-0.049-0.055-0.104-0.105-0.153-0.157c-1.744-1.781-4.167-2.893-6.858-2.893
			c-0.596,0-1.171,0.087-1.732,0.201c-0.004-0.005-0.012-0.007-0.016-0.011c-0.044-0.049-0.094-0.092-0.14-0.141
			c-0.05-0.055-0.108-0.106-0.158-0.163c-0.046-0.048-0.096-0.091-0.144-0.14c-0.049-0.055-0.106-0.104-0.158-0.159
			c-0.044-0.052-0.102-0.096-0.148-0.148c-0.046-0.051-0.1-0.098-0.148-0.151c-0.047-0.051-0.102-0.1-0.15-0.151
			c-0.046-0.052-0.104-0.099-0.15-0.15c-0.045-0.051-0.1-0.096-0.146-0.147c-0.05-0.055-0.108-0.105-0.16-0.16
			c-0.044-0.051-0.101-0.096-0.147-0.147c-0.047-0.051-0.098-0.096-0.146-0.147c-0.104-0.063-0.16-0.109-0.208-0.16
			c-0.051-0.056-0.106-0.104-0.159-0.158c-0.043-0.052-0.1-0.099-0.146-0.15c-0.046-0.051-0.104-0.098-0.149-0.149
			c-2.148-2.34-5.223-3.81-8.643-3.81c-5.391,0-9.924,3.644-11.296,8.597c-0.812-0.255-1.658-0.43-2.552-0.43
			c-4.713,0-8.534,3.821-8.534,8.533c0,2.396,0.995,4.553,2.582,6.1c0.049,0.053,0.101,0.102,0.152,0.15
			c0.049,0.05,0.1,0.104,0.151,0.152c0.049,0.052,0.098,0.102,0.149,0.15c0.05,0.049,0.101,0.102,0.152,0.15
			c0.049,0.048,0.1,0.1,0.151,0.148c0.049,0.051,0.101,0.102,0.152,0.15c0.049,0.051,0.1,0.104,0.151,0.15
			c0.049,0.05,0.098,0.1,0.147,0.146c0.052,0.053,0.103,0.104,0.156,0.156c0.049,0.051,0.096,0.1,0.147,0.146
			c0.051,0.049,0.101,0.1,0.152,0.148c0.049,0.05,0.098,0.104,0.149,0.152c0.051,0.052,0.102,0.103,0.156,0.152
			c0.047,0.047,0.096,0.1,0.145,0.146c0.051,0.05,0.102,0.104,0.155,0.155c0.047,0.049,0.096,0.099,0.146,0.145
			c0.051,0.053,0.102,0.104,0.155,0.158c0.049,0.048,0.098,0.101,0.149,0.146c0.05,0.049,0.101,0.102,0.152,0.148
			c0.049,0.051,0.098,0.104,0.149,0.15c0.051,0.051,0.102,0.104,0.154,0.153c0.047,0.046,0.096,0.097,0.145,0.142
			c0.051,0.055,0.104,0.11,0.16,0.162c0.047,0.047,0.096,0.096,0.145,0.143c0.051,0.051,0.1,0.104,0.153,0.154
			c0.049,0.049,0.098,0.101,0.15,0.149c0.051,0.05,0.102,0.101,0.153,0.154c0.047,0.046,0.094,0.096,0.143,0.142
			c0.051,0.055,0.105,0.106,0.158,0.158c0.049,0.051,0.098,0.1,0.149,0.148c0.051,0.05,0.1,0.102,0.152,0.148
			c0.049,0.053,0.098,0.1,0.149,0.146c0.049,0.052,0.1,0.104,0.151,0.154c0.049,0.051,0.101,0.102,0.152,0.15
			c0.049,0.05,0.1,0.1,0.151,0.148c0.049,0.052,0.1,0.104,0.152,0.15c0.051,0.051,0.1,0.1,0.153,0.152
			c0.049,0.048,0.096,0.098,0.147,0.145c0.051,0.053,0.101,0.105,0.154,0.153c0.049,0.052,0.1,0.104,0.151,0.151
			c0.049,0.049,0.098,0.103,0.15,0.147c0.049,0.05,0.1,0.103,0.151,0.149c0.049,0.053,0.098,0.101,0.149,0.15
			c0.051,0.055,0.105,0.104,0.156,0.155c0.049,0.048,0.096,0.099,0.145,0.144c0.034,0.039,0.064,0.076,0.098,0.111
			c-1.118,0.094-2.013,1.004-2.013,2.139c0,0.631,0.281,1.181,0.714,1.567c0.049,0.054,0.098,0.104,0.154,0.154
			c0.047,0.052,0.096,0.101,0.149,0.147c0.049,0.051,0.098,0.104,0.151,0.151c0.049,0.054,0.099,0.103,0.152,0.149
			c0.047,0.053,0.096,0.104,0.149,0.149c0.047,0.05,0.096,0.101,0.149,0.15c0.05,0.054,0.099,0.104,0.154,0.153
			c0.047,0.051,0.096,0.101,0.149,0.146c0.049,0.054,0.098,0.104,0.154,0.153c0.047,0.051,0.096,0.101,0.149,0.146
			c0.049,0.055,0.098,0.104,0.154,0.154c0.047,0.052,0.096,0.1,0.149,0.146c0.049,0.053,0.098,0.104,0.153,0.152
			c0.047,0.053,0.096,0.1,0.15,0.15c0.049,0.054,0.098,0.104,0.153,0.15c0.047,0.053,0.096,0.102,0.15,0.148
			c0.049,0.054,0.098,0.104,0.151,0.148c0.047,0.055,0.096,0.104,0.149,0.15c0.049,0.055,0.098,0.104,0.154,0.154
			c0.047,0.05,0.094,0.1,0.147,0.146c0.049,0.056,0.098,0.104,0.153,0.152c0.05,0.052,0.099,0.106,0.152,0.151
			c0.047,0.055,0.096,0.103,0.151,0.149c0.049,0.054,0.096,0.101,0.15,0.147c0.049,0.055,0.096,0.106,0.151,0.152
			c0.051,0.072,0.1,0.122,0.153,0.168c0.05,0.055,0.097,0.104,0.152,0.15c0.049,0.054,0.096,0.104,0.151,0.15
			c0.05,0.054,0.096,0.104,0.153,0.149c0.047,0.054,0.096,0.104,0.149,0.149c0.049,0.057,0.098,0.104,0.154,0.154
			c0.047,0.055,0.096,0.101,0.149,0.146c0.049,0.054,0.096,0.106,0.151,0.153c0.049,0.053,0.098,0.104,0.152,0.149
			c0.049,0.056,0.098,0.104,0.151,0.152c0.047,0.052,0.096,0.1,0.149,0.147c0.05,0.053,0.097,0.104,0.152,0.149
			c0.049,0.054,0.098,0.104,0.151,0.151c0.047,0.053,0.096,0.103,0.15,0.147c0.049,0.056,0.098,0.104,0.151,0.154
			c0.049,0.052,0.098,0.1,0.151,0.149c0.032,0.037,0.058,0.078,0.093,0.112c0.025,0.024,0.053,0.046,0.08,0.069
			c0.026,0.025,0.045,0.056,0.071,0.078c0.026,0.031,0.055,0.047,0.083,0.072c0.023,0.029,0.045,0.055,0.067,0.08
			c0.026,0.026,0.054,0.045,0.082,0.07c0.026,0.027,0.045,0.055,0.073,0.079c0.025,0.028,0.051,0.046,0.079,0.069
			c0.025,0.025,0.045,0.056,0.07,0.08c0.026,0.024,0.053,0.045,0.082,0.072c0.026,0.027,0.044,0.053,0.073,0.077
			c0.025,0.026,0.051,0.046,0.078,0.069c0.026,0.029,0.045,0.058,0.073,0.084c0.026,0.025,0.053,0.045,0.079,0.068
			c0.025,0.027,0.045,0.055,0.072,0.08c0.026,0.026,0.054,0.047,0.081,0.072c0.026,0.027,0.047,0.055,0.073,0.079
			c0.023,0.024,0.051,0.046,0.077,0.065c0.025,0.029,0.047,0.058,0.074,0.084c0.024,0.024,0.051,0.045,0.077,0.07
			c0.026,0.021,0.044,0.053,0.071,0.077c0.025,0.026,0.053,0.048,0.08,0.073c0.024,0.023,0.045,0.054,0.069,0.076
			c0.028,0.027,0.055,0.049,0.083,0.072c0.025,0.029,0.045,0.055,0.072,0.08c0.026,0.026,0.052,0.045,0.079,0.07
			c0.026,0.023,0.044,0.055,0.071,0.079c0.025,0.024,0.053,0.046,0.081,0.073c0.025,0.025,0.045,0.052,0.072,0.078
			c0.026,0.026,0.051,0.043,0.08,0.068c0.026,0.027,0.044,0.055,0.073,0.079c0.025,0.026,0.051,0.046,0.078,0.071
			c0.026,0.029,0.045,0.056,0.073,0.082c0.026,0.025,0.051,0.045,0.079,0.068c0.025,0.027,0.045,0.053,0.07,0.08
			c0.026,0.026,0.054,0.049,0.082,0.072c0.026,0.027,0.044,0.055,0.073,0.079c0.025,0.024,0.051,0.046,0.079,0.071
			c0.023,0.023,0.045,0.05,0.07,0.074c0.028,0.028,0.056,0.051,0.083,0.074c0.024,0.029,0.044,0.055,0.071,0.079
			c0.025,0.024,0.053,0.046,0.081,0.071c0.025,0.027,0.045,0.054,0.07,0.074c0.026,0.031,0.053,0.051,0.083,0.076
			c0.024,0.027,0.045,0.053,0.071,0.078c0.025,0.024,0.051,0.047,0.078,0.07c0.026,0.025,0.045,0.055,0.073,0.079
			c0.026,0.024,0.053,0.046,0.082,0.073c0.025,0.027,0.044,0.052,0.072,0.078c0.026,0.027,0.052,0.045,0.079,0.068
			c0.026,0.027,0.045,0.055,0.071,0.079c0.025,0.026,0.053,0.046,0.081,0.071c0.025,0.029,0.047,0.057,0.074,0.082
			c0.024,0.025,0.051,0.047,0.077,0.068c0.026,0.027,0.047,0.053,0.075,0.082c0.025,0.024,0.051,0.047,0.079,0.07
			c0.025,0.027,0.047,0.055,0.072,0.079c0.024,0.024,0.051,0.044,0.077,0.067c0.025,0.028,0.044,0.056,0.073,0.082
			c0.025,0.025,0.053,0.047,0.08,0.071c0.026,0.024,0.045,0.054,0.071,0.077c0.025,0.025,0.053,0.048,0.082,0.072
			c0.025,0.027,0.044,0.055,0.07,0.078c0.026,0.027,0.054,0.047,0.081,0.072c0.024,0.028,0.045,0.053,0.071,0.078
			c0.025,0.029,0.053,0.047,0.079,0.07c0.025,0.025,0.045,0.055,0.07,0.077c0.026,0.026,0.053,0.048,0.081,0.075
			c0.023,0.024,0.045,0.052,0.07,0.076c0.026,0.027,0.054,0.047,0.082,0.076c0.026,0.026,0.047,0.051,0.073,0.078
			s0.051,0.044,0.079,0.07c0.025,0.025,0.045,0.053,0.072,0.076c0.026,0.027,0.054,0.045,0.082,0.072
			c0.024,0.026,0.045,0.051,0.071,0.076c0.025,0.027,0.053,0.051,0.081,0.075c0.025,0.026,0.045,0.054,0.072,0.079
			c0.026,0.023,0.051,0.044,0.077,0.066c0.026,0.028,0.047,0.059,0.075,0.088c0.025,0.023,0.051,0.043,0.078,0.065
			c0.026,0.024,0.045,0.054,0.071,0.077c0.026,0.031,0.055,0.048,0.083,0.072c0.023,0.027,0.044,0.055,0.067,0.074
			c0.026,0.029,0.054,0.051,0.082,0.076c0.026,0.024,0.045,0.055,0.073,0.078c0.025,0.029,0.053,0.049,0.082,0.073
			c0.022,0.026,0.044,0.052,0.067,0.077c0.026,0.029,0.053,0.046,0.082,0.072c0.026,0.027,0.047,0.053,0.073,0.076
			c0.023,0.027,0.051,0.047,0.076,0.071c0.026,0.027,0.047,0.056,0.075,0.083c0.026,0.025,0.051,0.044,0.079,0.069
			c0.025,0.026,0.045,0.054,0.072,0.079c0.026,0.025,0.052,0.043,0.079,0.07c0.026,0.026,0.044,0.057,0.073,0.08
			c0.025,0.025,0.051,0.047,0.079,0.071c0.025,0.026,0.047,0.052,0.074,0.079c0.024,0.027,0.052,0.046,0.077,0.066
			c0.026,0.028,0.044,0.057,0.073,0.08c0.025,0.027,0.053,0.049,0.078,0.073c0.026,0.025,0.045,0.056,0.071,0.079
			c0.026,0.025,0.053,0.046,0.081,0.071c0.025,0.028,0.045,0.054,0.073,0.079c0.025,0.029,0.051,0.046,0.078,0.07
			c0.026,0.024,0.044,0.055,0.071,0.078c0.025,0.025,0.053,0.049,0.081,0.073c0.024,0.026,0.045,0.052,0.071,0.079
			c0.027,0.027,0.052,0.044,0.08,0.068c0.025,0.026,0.045,0.055,0.072,0.08c0.025,0.025,0.051,0.045,0.08,0.069
			c0.024,0.029,0.047,0.058,0.073,0.083s0.052,0.044,0.079,0.069c0.025,0.026,0.045,0.052,0.072,0.079
			c0.025,0.027,0.054,0.048,0.08,0.072s0.045,0.055,0.071,0.08c0.025,0.023,0.054,0.045,0.079,0.069
			c0.023,0.024,0.045,0.054,0.068,0.079c0.027,0.025,0.056,0.046,0.082,0.07c0.025,0.029,0.045,0.055,0.072,0.08
			c0.025,0.023,0.053,0.045,0.08,0.069c0.025,0.029,0.045,0.056,0.069,0.079c0.026,0.027,0.056,0.046,0.083,0.071
			c0.021,0.026,0.044,0.052,0.068,0.075c0.024,0.029,0.055,0.05,0.078,0.074c0.027,0.024,0.047,0.055,0.071,0.08
			c0.027,0.023,0.052,0.045,0.079,0.069c0.025,0.028,0.049,0.056,0.075,0.084c0.024,0.024,0.052,0.045,0.077,0.065
			c0.025,0.027,0.043,0.055,0.072,0.08c0.024,0.028,0.055,0.047,0.078,0.074c0.025,0.024,0.047,0.051,0.071,0.079
			c0.024,0.024,0.052,0.044,0.079,0.065c0.025,0.029,0.046,0.055,0.075,0.084c0.024,0.025,0.05,0.046,0.077,0.07
			c0.025,0.027,0.048,0.055,0.074,0.08c0.022,0.024,0.049,0.045,0.074,0.065c0.025,0.028,0.045,0.058,0.073,0.084
			c0.024,0.024,0.054,0.045,0.079,0.069c0.025,0.025,0.046,0.051,0.07,0.078c0.024,0.026,0.053,0.047,0.084,0.074
			c0.021,0.024,0.041,0.053,0.065,0.077c0.025,0.024,0.056,0.046,0.081,0.07c0.027,0.028,0.044,0.055,0.071,0.079
			c0.024,0.025,0.052,0.046,0.077,0.07c0.027,0.029,0.045,0.055,0.07,0.08c0.026,0.028,0.055,0.045,0.084,0.072
			c0.021,0.025,0.043,0.053,0.065,0.077c0.024,0.026,0.054,0.05,0.081,0.073c0.027,0.027,0.044,0.056,0.072,0.08
			c0.024,0.026,0.051,0.043,0.08,0.07c0.021,0.021,0.041,0.047,0.063,0.07C50.82,62.188,62.941,49.596,63.9,33.979z"/>
	</g>
	<path fill="#FFFFFF" d="M54.393,28.433c0,5.299-4.297,9.6-9.601,9.6H44.55H19.43h-1.288c-4.712,0-8.533-3.82-8.533-8.533
		c0-4.712,3.821-8.533,8.533-8.533c0.894,0,1.741,0.177,2.552,0.43c1.374-4.953,5.904-8.597,11.298-8.597
		c4.542,0,8.475,2.588,10.425,6.364c0.763-0.194,1.55-0.33,2.375-0.33C50.096,18.833,54.393,23.132,54.393,28.433z M32,42.482
		c-1.18,0-2.133,0.955-2.133,2.134c0,1.18,0.956,2.134,2.133,2.134s2.134-0.954,2.134-2.134C34.134,43.438,33.18,42.482,32,42.482z
		 M44.8,42.482c-1.179,0-2.133,0.955-2.133,2.134c0,1.18,0.954,2.134,2.133,2.134c1.181,0,2.134-0.954,2.134-2.134
		C46.934,43.438,45.979,42.482,44.8,42.482z M19.2,42.482c-1.177,0-2.133,0.955-2.133,2.134c0,1.18,0.956,2.134,2.133,2.134
		c1.18,0,2.133-0.954,2.133-2.134C21.333,43.438,20.38,42.482,19.2,42.482z M38.4,48.884c-1.18,0-2.135,0.954-2.135,2.134
		s0.955,2.133,2.135,2.133c1.179,0,2.133-0.953,2.133-2.133S39.579,48.884,38.4,48.884z M25.6,48.884
		c-1.177,0-2.133,0.954-2.133,2.134s0.956,2.133,2.133,2.133c1.18,0,2.133-0.953,2.133-2.133S26.78,48.884,25.6,48.884z"/>
</g>
</svg>
