<?xml version="1.0" encoding="utf-8"?>
<!-- Generator: Adobe Illustrator 16.0.0, SVG Export Plug-In . SVG Version: 6.00 Build 0)  -->
<!DOCTYPE svg PUBLIC "-//W3C//DTD SVG 1.1//EN" "http://www.w3.org/Graphics/SVG/1.1/DTD/svg11.dtd">
<svg version="1.1" id="RAINY" xmlns="http://www.w3.org/2000/svg" xmlns:xlink="http://www.w3.org/1999/xlink" x="0px" y="0px"
	 width="64px" height="64px" viewBox="0 0 64 64" enable-background="new 0 0 64 64" xml:space="preserve">
<g>
	<g id="night_bg_3_">
		<g>
			<circle fill="#34495E" cx="32" cy="32" r="32"/>
		</g>
		<g>
			<path fill="#2C3E50" d="M32,64c17.673,0,32-14.327,32-32S49.673,0,32,0V64z"/>
		</g>
	</g>
	<defs>
		<filter id="Adobe_OpacityMaskFilter" filterUnits="userSpaceOnUse" x="9.609" y="12.8" width="54.292" height="51.063">
			<feColorMatrix  type="matrix" values="1 0 0 0 0  0 1 0 0 0  0 0 1 0 0  0 0 0 1 0"/>
		</filter>
	</defs>
	<mask maskUnits="userSpaceOnUse" x="9.609" y="12.8" width="54.292" height="51.063" id="SVGID_1_">
		<g filter="url(#Adobe_OpacityMaskFilter)">
			<g>
				
					<radialGradient id="SVGID_2_" cx="70.7803" cy="590.999" r="37.333" gradientTransform="matrix(1 0 0 1 -41.9805 -562.1992)" gradientUnits="userSpaceOnUse">
					<stop  offset="0" style="stop-color:#FFFFFF"/>
					<stop  offset="0.1126" style="stop-color:#E8E8E8"/>
					<stop  offset="0.3492" style="stop-color:#ADADAD"/>
					<stop  offset="0.6869" style="stop-color:#4E4E4E"/>
					<stop  offset="0.9519" style="stop-color:#000000"/>
				</radialGradient>
				<circle fill="url(#SVGID_2_)" cx="28.8" cy="28.8" r="37.333"/>
			</g>
		</g>
	</mask>
	<g opacity="0.4" mask="url(#SVGID_1_)">
		<path d="M63.9,33.979c-0.01-0.006-0.018-0.015-0.025-0.022c-0.048-0.052-0.1-0.103-0.15-0.151
			c-0.05-0.055-0.102-0.104-0.152-0.154c-0.051-0.053-0.1-0.101-0.15-0.149c-0.048-0.05-0.1-0.101-0.15-0.151
			c-0.045-0.049-0.1-0.101-0.146-0.147c-0.048-0.054-0.102-0.104-0.152-0.152c-0.048-0.052-0.1-0.101-0.148-0.151
			c-0.051-0.049-0.102-0.101-0.148-0.148c-0.052-0.051-0.102-0.104-0.152-0.154c-0.047-0.051-0.1-0.101-0.148-0.149
			c-0.05-0.051-0.102-0.102-0.152-0.152c-0.048-0.053-0.1-0.102-0.152-0.152c-0.045-0.049-0.098-0.098-0.146-0.147
			c-0.05-0.051-0.1-0.101-0.149-0.152c-0.051-0.051-0.103-0.102-0.154-0.153c-0.051-0.049-0.098-0.098-0.146-0.147
			c-0.052-0.051-0.104-0.103-0.156-0.154c-0.047-0.049-0.098-0.096-0.144-0.145c-0.05-0.051-0.1-0.102-0.149-0.152
			c-0.051-0.053-0.104-0.104-0.154-0.155c-0.051-0.049-0.1-0.1-0.15-0.149c-0.049-0.05-0.1-0.098-0.148-0.148
			c-0.049-0.051-0.1-0.1-0.149-0.151c-0.051-0.051-0.101-0.102-0.151-0.153c-0.049-0.05-0.099-0.099-0.148-0.15
			c-0.048-0.051-0.098-0.098-0.146-0.149c-0.052-0.053-0.104-0.105-0.158-0.156c-0.049-0.051-0.098-0.1-0.149-0.149
			c-0.046-0.051-0.099-0.1-0.149-0.15c-0.045-0.051-0.096-0.1-0.146-0.149c-0.05-0.051-0.104-0.102-0.153-0.153
			c-0.046-0.049-0.099-0.098-0.146-0.15c-0.05-0.051-0.101-0.1-0.151-0.151s-0.104-0.102-0.152-0.153
			c-0.049-0.052-0.101-0.101-0.149-0.152c-0.05-0.049-0.101-0.098-0.149-0.147c-0.048-0.051-0.101-0.103-0.149-0.152
			c-0.05-0.051-0.101-0.1-0.15-0.151c-0.05-0.051-0.103-0.102-0.153-0.154c-0.045-0.049-0.097-0.098-0.146-0.146
			c-0.05-0.051-0.101-0.102-0.149-0.151c-0.051-0.051-0.103-0.102-0.149-0.152c-0.05-0.051-0.101-0.1-0.152-0.151
			c-0.048-0.051-0.103-0.1-0.149-0.149c-0.047-0.052-0.101-0.101-0.147-0.152c-0.052-0.051-0.104-0.102-0.151-0.151
			c-0.049-0.051-0.103-0.101-0.149-0.15c-0.048-0.049-0.099-0.1-0.148-0.149c-0.052-0.053-0.104-0.104-0.157-0.158
			c-0.047-0.049-0.097-0.096-0.143-0.143c-0.05-0.053-0.104-0.104-0.158-0.157c-0.046-0.049-0.096-0.096-0.146-0.146
			c-0.05-0.051-0.101-0.104-0.154-0.155c-0.046-0.049-0.096-0.096-0.142-0.145c-0.051-0.052-0.104-0.1-0.15-0.152
			c-0.052-0.053-0.107-0.104-0.158-0.157c-0.046-0.049-0.096-0.096-0.146-0.145c-0.05-0.054-0.103-0.105-0.154-0.156
			c-0.048-0.047-0.096-0.096-0.144-0.143c-0.053-0.053-0.106-0.105-0.156-0.158c-0.051-0.049-0.1-0.098-0.146-0.147
			c-0.05-0.051-0.1-0.1-0.15-0.152c-0.051-0.051-0.104-0.1-0.15-0.151c-0.052-0.051-0.104-0.102-0.152-0.151
			c-0.047-0.052-0.1-0.101-0.148-0.15c-0.048-0.049-0.102-0.1-0.148-0.149c-0.048-0.051-0.102-0.102-0.152-0.153
			c-0.047-0.05-0.1-0.101-0.148-0.15c-0.05-0.051-0.102-0.102-0.152-0.153c-0.047-0.049-0.098-0.099-0.146-0.148
			c-0.051-0.051-0.104-0.102-0.154-0.153c-0.046-0.049-0.096-0.1-0.146-0.149c-0.05-0.052-0.101-0.101-0.151-0.152
			c-0.048-0.051-0.102-0.102-0.152-0.151c-0.047-0.051-0.096-0.1-0.146-0.15c-0.072-0.059-0.124-0.109-0.174-0.161
			c-0.046-0.049-0.099-0.1-0.146-0.149c-0.051-0.052-0.104-0.103-0.154-0.152c-0.047-0.051-0.101-0.1-0.149-0.151
			c-0.05-0.051-0.099-0.101-0.149-0.15c-0.049-0.051-0.101-0.102-0.149-0.153c-1.744-1.781-4.167-2.893-6.858-2.893
			c-0.596,0-1.171,0.087-1.732,0.2c-0.006-0.004-0.014-0.008-0.018-0.015c-0.046-0.047-0.096-0.09-0.14-0.137
			c-0.048-0.055-0.108-0.106-0.16-0.162c-0.044-0.051-0.096-0.094-0.146-0.145c-0.047-0.053-0.102-0.1-0.148-0.151
			c-0.048-0.054-0.104-0.101-0.152-0.154c-0.048-0.053-0.104-0.1-0.154-0.153c-0.045-0.051-0.1-0.096-0.146-0.147
			c-0.046-0.053-0.103-0.1-0.149-0.151c-0.049-0.051-0.104-0.098-0.154-0.151c-0.045-0.051-0.1-0.099-0.146-0.15
			c-0.05-0.053-0.104-0.1-0.154-0.153c-0.045-0.051-0.1-0.096-0.146-0.146c-0.05-0.055-0.108-0.104-0.155-0.159
			c-0.045-0.049-0.099-0.092-0.143-0.139c-0.052-0.056-0.107-0.107-0.16-0.165c-0.046-0.049-0.097-0.092-0.142-0.139
			c-2.21-2.348-5.281-3.82-8.706-3.82c-5.391,0-9.924,3.644-11.298,8.597c-0.812-0.255-1.656-0.43-2.552-0.43
			c-4.712,0-8.533,3.821-8.533,8.533c0,2.394,0.993,4.55,2.579,6.1c0.051,0.053,0.103,0.104,0.156,0.154
			c0.049,0.051,0.098,0.102,0.149,0.148c0.051,0.048,0.098,0.1,0.149,0.146c0.05,0.053,0.101,0.104,0.152,0.154
			c0.049,0.048,0.098,0.1,0.146,0.146c0.051,0.055,0.102,0.104,0.156,0.153c0.047,0.05,0.096,0.101,0.145,0.146
			c0.051,0.053,0.104,0.104,0.155,0.156c0.05,0.049,0.097,0.098,0.148,0.145c0.051,0.054,0.102,0.105,0.153,0.154
			c0.049,0.051,0.098,0.1,0.15,0.148c0.049,0.051,0.098,0.102,0.151,0.15c0.049,0.05,0.1,0.102,0.151,0.148
			c0.049,0.051,0.097,0.102,0.148,0.148c0.051,0.052,0.102,0.105,0.155,0.156c0.047,0.049,0.096,0.098,0.145,0.146
			c0.052,0.05,0.103,0.104,0.156,0.153c0.049,0.051,0.096,0.102,0.146,0.146c0.051,0.055,0.104,0.104,0.156,0.154
			c0.049,0.051,0.1,0.104,0.151,0.15c0.047,0.049,0.096,0.1,0.145,0.146c0.05,0.05,0.101,0.103,0.152,0.153
			c0.049,0.051,0.098,0.099,0.146,0.146c0.051,0.053,0.103,0.104,0.156,0.156c0.049,0.049,0.096,0.1,0.147,0.145
			c0.051,0.055,0.102,0.105,0.155,0.158c0.05,0.049,0.101,0.1,0.152,0.146c0.049,0.049,0.096,0.1,0.146,0.146
			c0.049,0.053,0.1,0.104,0.154,0.151c0.047,0.051,0.096,0.101,0.147,0.147c0.051,0.053,0.102,0.106,0.155,0.156
			c0.05,0.051,0.099,0.098,0.148,0.146c0.055,0.074,0.106,0.125,0.157,0.175c0.049,0.051,0.099,0.101,0.15,0.149
			c0.049,0.051,0.1,0.101,0.151,0.15c0.049,0.051,0.1,0.102,0.152,0.148c0.049,0.051,0.096,0.102,0.147,0.146
			c0.049,0.053,0.1,0.104,0.151,0.152c0.051,0.053,0.103,0.104,0.154,0.152c0.049,0.053,0.1,0.104,0.151,0.153
			c0.047,0.046,0.096,0.097,0.145,0.142c0.052,0.055,0.105,0.106,0.158,0.158c0.049,0.051,0.1,0.1,0.151,0.15
			c0.049,0.048,0.096,0.096,0.148,0.145c0.051,0.051,0.102,0.105,0.153,0.153c0.049,0.052,0.098,0.101,0.149,0.147
			c0.05,0.052,0.099,0.104,0.15,0.15c0.051,0.049,0.1,0.104,0.153,0.153c0.049,0.05,0.101,0.101,0.152,0.149
			c0.049,0.049,0.1,0.101,0.151,0.149c0.049,0.05,0.096,0.101,0.147,0.146c0.05,0.051,0.101,0.104,0.152,0.154
			c0.051,0.051,0.1,0.104,0.153,0.15c0.049,0.052,0.098,0.104,0.15,0.148c0.049,0.051,0.098,0.102,0.147,0.15
			c0.049,0.051,0.096,0.098,0.147,0.146c0.053,0.055,0.107,0.107,0.163,0.16c0.047,0.047,0.096,0.099,0.147,0.146
			c0.049,0.052,0.098,0.101,0.15,0.147c0.049,0.053,0.098,0.104,0.149,0.149c0.049,0.05,0.098,0.101,0.147,0.147
			c0.051,0.053,0.103,0.105,0.156,0.156c0.049,0.049,0.096,0.1,0.147,0.146c0.051,0.054,0.102,0.104,0.156,0.155
			c0.049,0.049,0.096,0.099,0.146,0.145c0.051,0.053,0.102,0.105,0.153,0.154c0.049,0.052,0.099,0.1,0.15,0.148
			c0.049,0.051,0.098,0.102,0.149,0.15c0.051,0.05,0.1,0.102,0.154,0.148c0.042,0.047,0.084,0.088,0.129,0.133l-1.472,5.529
			c-0.12,0.44,0.061,0.883,0.407,1.135c0.049,0.055,0.094,0.111,0.154,0.154c0.049,0.051,0.09,0.104,0.149,0.146
			c0.047,0.054,0.09,0.108,0.15,0.149c0.049,0.055,0.094,0.109,0.155,0.153c0.047,0.05,0.09,0.104,0.145,0.146
			c0.049,0.055,0.094,0.113,0.154,0.151c0.049,0.054,0.094,0.11,0.153,0.152c0.047,0.052,0.09,0.108,0.15,0.149
			c0.047,0.053,0.09,0.108,0.149,0.147c0.049,0.052,0.092,0.11,0.151,0.151c0.047,0.055,0.089,0.109,0.15,0.149
			c0.049,0.054,0.092,0.108,0.151,0.15c0.047,0.055,0.092,0.108,0.151,0.149c0.048,0.055,0.092,0.11,0.152,0.149
			c0.049,0.056,0.092,0.108,0.151,0.151c0.049,0.053,0.092,0.106,0.15,0.147c0.049,0.056,0.091,0.111,0.153,0.154
			c0.047,0.051,0.09,0.104,0.147,0.146c0.05,0.055,0.093,0.112,0.152,0.151c0.049,0.054,0.092,0.11,0.151,0.151
			c0.049,0.053,0.092,0.109,0.152,0.15c0.047,0.053,0.09,0.108,0.149,0.146c0.047,0.054,0.092,0.111,0.151,0.152
			c0.05,0.053,0.091,0.11,0.152,0.15c0.047,0.055,0.092,0.107,0.149,0.15c0.049,0.054,0.092,0.106,0.152,0.148
			c0.047,0.055,0.091,0.11,0.151,0.148c0.047,0.054,0.089,0.109,0.149,0.15c0.047,0.055,0.092,0.108,0.152,0.15
			c0.049,0.055,0.091,0.109,0.151,0.152c0.047,0.052,0.089,0.104,0.15,0.146c0.049,0.055,0.092,0.112,0.151,0.154
			c0.049,0.05,0.092,0.105,0.151,0.148c0.047,0.051,0.091,0.108,0.15,0.148c0.047,0.052,0.089,0.109,0.149,0.148
			c0.047,0.054,0.092,0.11,0.151,0.152c0.048,0.053,0.093,0.107,0.152,0.15c0.049,0.054,0.092,0.107,0.153,0.15
			c0.047,0.053,0.09,0.106,0.148,0.148c0.049,0.055,0.092,0.109,0.151,0.148c0.049,0.056,0.091,0.108,0.149,0.15
			c0.05,0.055,0.091,0.107,0.152,0.15c0.049,0.054,0.092,0.109,0.153,0.152c0.047,0.051,0.089,0.104,0.148,0.146
			c0.049,0.054,0.091,0.111,0.153,0.152c0.047,0.052,0.092,0.106,0.149,0.146c0.05,0.055,0.095,0.111,0.156,0.154
			c0.047,0.052,0.09,0.107,0.145,0.146c0.049,0.053,0.094,0.11,0.154,0.152c0.047,0.052,0.089,0.107,0.149,0.15
			c0.049,0.052,0.094,0.107,0.156,0.15c0.047,0.053,0.089,0.105,0.147,0.148c0.049,0.05,0.091,0.107,0.149,0.148
			c0.049,0.053,0.091,0.108,0.152,0.15c0.049,0.055,0.094,0.111,0.153,0.154c0.047,0.05,0.091,0.105,0.149,0.149
			c0.047,0.048,0.089,0.104,0.148,0.146c0.049,0.055,0.094,0.113,0.153,0.154c0.049,0.051,0.092,0.106,0.152,0.149
			c0.049,0.051,0.091,0.108,0.151,0.147c0.047,0.053,0.09,0.11,0.149,0.152c0.047,0.051,0.092,0.105,0.15,0.148
			c0.049,0.053,0.092,0.109,0.151,0.15c0.049,0.055,0.091,0.108,0.154,0.151c0.047,0.054,0.09,0.106,0.147,0.147
			c0.047,0.053,0.092,0.108,0.151,0.15c0.049,0.053,0.091,0.107,0.152,0.148c0.049,0.056,0.092,0.113,0.151,0.154
			c0.049,0.051,0.091,0.106,0.152,0.15c0.047,0.05,0.09,0.104,0.149,0.146c0.049,0.054,0.094,0.111,0.155,0.153
			c0.047,0.05,0.09,0.106,0.146,0.146c0.049,0.056,0.094,0.113,0.155,0.154c0.045,0.047,0.086,0.101,0.138,0.139
			c2.34-0.061,4.605-0.396,6.793-0.93c0.004,0.004,0.012,0.012,0.018,0.017c0.346-0.087,0.684-0.202,1.029-0.3
			c0.479-0.133,0.959-0.256,1.429-0.412c0.046-0.014,0.088-0.033,0.129-0.047c1.384-0.467,2.717-1.037,4.009-1.68
			c0.204-0.102,0.412-0.191,0.614-0.3c0.56-0.291,1.099-0.61,1.634-0.935c0.223-0.133,0.447-0.264,0.669-0.402
			c0.524-0.334,1.037-0.688,1.546-1.055c0.204-0.146,0.403-0.297,0.607-0.45c0.505-0.384,1.005-0.776,1.488-1.19
			c0.162-0.143,0.319-0.293,0.484-0.435c0.364-0.324,0.743-0.634,1.09-0.976c-0.009-0.008-0.02-0.017-0.027-0.026
			C59.827,49.471,63.396,42.15,63.9,33.979z"/>
	</g>
	<g>
		<path fill="#FFFFFF" d="M44.792,18.833c-0.825,0-1.612,0.136-2.375,0.33c-1.95-3.775-5.884-6.363-10.425-6.363
			c-5.391,0-9.924,3.644-11.298,8.597c-0.812-0.255-1.656-0.43-2.552-0.43c-4.712,0-8.533,3.821-8.533,8.533
			c0,4.713,3.821,8.533,8.533,8.533h1.288h25.118h0.242c5.302,0,9.601-4.301,9.601-9.6C54.391,23.132,50.096,18.833,44.792,18.833z"
			/>
		<path fill="#CCF1FE" d="M31.925,52.217c-0.151,0.57-0.737,0.908-1.305,0.756l0,0c-0.57-0.154-0.906-0.738-0.755-1.306l2.208-8.242
			c0.152-0.569,0.737-0.907,1.307-0.756l0,0c0.571,0.151,0.904,0.739,0.755,1.306L31.925,52.217z M42.744,43.971
			c0.15-0.566-0.186-1.154-0.758-1.304l0,0c-0.569-0.149-1.153,0.187-1.303,0.754l-2.209,8.241c-0.154,0.57,0.184,1.154,0.754,1.309
			l0,0c0.57,0.15,1.154-0.186,1.307-0.754L42.744,43.971z M25.525,43.971c0.152-0.566-0.186-1.154-0.755-1.304l0,0
			c-0.569-0.149-1.154,0.187-1.306,0.754l-2.208,8.241c-0.153,0.57,0.183,1.154,0.755,1.309l0,0c0.57,0.15,1.154-0.186,1.307-0.754
			L25.525,43.971z"/>
	</g>
</g>
</svg>
