<?xml version="1.0" encoding="utf-8"?>
<!-- Generator: Adobe Illustrator 16.0.0, SVG Export Plug-In . SVG Version: 6.00 Build 0)  -->
<!DOCTYPE svg PUBLIC "-//W3C//DTD SVG 1.1//EN" "http://www.w3.org/Graphics/SVG/1.1/DTD/svg11.dtd">
<svg version="1.1" id="CLEAR" xmlns="http://www.w3.org/2000/svg" xmlns:xlink="http://www.w3.org/1999/xlink" x="0px" y="0px"
	 width="64px" height="64px" viewBox="0 0 64 64" enable-background="new 0 0 64 64" xml:space="preserve">
<g>
	<g id="night_bg_5_">
		<g>
			<circle fill="#34495E" cx="32" cy="32" r="32"/>
		</g>
		<g>
			<path fill="#2C3E50" d="M32,64c17.673,0,32-14.327,32-32S49.673,0,32,0V64z"/>
		</g>
	</g>
	<defs>
		<filter id="Adobe_OpacityMaskFilter" filterUnits="userSpaceOnUse" x="15.58" y="18.142" width="47.24" height="44.781">
			<feColorMatrix  type="matrix" values="1 0 0 0 0  0 1 0 0 0  0 0 1 0 0  0 0 0 1 0"/>
		</filter>
	</defs>
	<mask maskUnits="userSpaceOnUse" x="15.58" y="18.142" width="47.24" height="44.781" id="SVGID_1_">
		<g filter="url(#Adobe_OpacityMaskFilter)">
			<g>
				
					<radialGradient id="SVGID_2_" cx="91.7705" cy="-523.5986" r="37.333" gradientTransform="matrix(1 0 0 -1 -62.9707 -494.7988)" gradientUnits="userSpaceOnUse">
					<stop  offset="0" style="stop-color:#FFFFFF"/>
					<stop  offset="0.1126" style="stop-color:#E8E8E8"/>
					<stop  offset="0.3492" style="stop-color:#ADADAD"/>
					<stop  offset="0.6869" style="stop-color:#4E4E4E"/>
					<stop  offset="0.9519" style="stop-color:#000000"/>
				</radialGradient>
				<circle fill="url(#SVGID_2_)" cx="28.8" cy="28.8" r="37.333"/>
			</g>
		</g>
	</mask>
	<g opacity="0.4" mask="url(#SVGID_1_)">
		<path fill="#1A171B" d="M40.109,62.923c-0.026-0.03-0.058-0.057-0.084-0.085c-0.051-0.046-0.103-0.104-0.15-0.15
			c-0.052-0.049-0.1-0.104-0.152-0.152c-0.048-0.044-0.098-0.102-0.146-0.146c-0.05-0.047-0.103-0.104-0.15-0.152
			c-0.052-0.049-0.1-0.103-0.147-0.146c-0.051-0.048-0.103-0.104-0.15-0.148c-0.054-0.051-0.104-0.108-0.154-0.156
			c-0.05-0.045-0.096-0.098-0.144-0.145c-0.052-0.045-0.103-0.102-0.151-0.15c-0.055-0.047-0.103-0.104-0.15-0.151
			c-0.055-0.048-0.104-0.104-0.152-0.151c-0.05-0.045-0.102-0.103-0.148-0.148c-0.051-0.048-0.1-0.102-0.146-0.148
			c-0.053-0.047-0.102-0.102-0.15-0.146c-0.052-0.049-0.104-0.105-0.154-0.153c-0.049-0.048-0.1-0.104-0.152-0.153
			c-0.05-0.045-0.096-0.101-0.143-0.143c-0.053-0.05-0.101-0.104-0.148-0.148c-0.05-0.049-0.102-0.104-0.148-0.149
			c-0.056-0.052-0.106-0.108-0.158-0.158c-0.051-0.046-0.098-0.101-0.146-0.146c-0.055-0.047-0.104-0.104-0.151-0.149
			c-0.049-0.045-0.101-0.104-0.148-0.151c-0.051-0.043-0.098-0.099-0.146-0.145c-0.054-0.051-0.106-0.109-0.16-0.162
			c-0.047-0.044-0.096-0.102-0.144-0.145c-0.05-0.047-0.097-0.102-0.146-0.147c-0.055-0.046-0.104-0.104-0.156-0.153
			c-0.049-0.045-0.096-0.101-0.146-0.146c-0.056-0.047-0.104-0.104-0.154-0.154c-0.053-0.046-0.1-0.104-0.149-0.15
			c-0.049-0.045-0.096-0.1-0.146-0.146c-0.049-0.05-0.101-0.104-0.153-0.153c-0.05-0.047-0.097-0.104-0.147-0.149
			c-0.053-0.046-0.103-0.104-0.151-0.149c-0.05-0.046-0.099-0.104-0.149-0.148c-0.048-0.045-0.097-0.1-0.142-0.144
			c-0.058-0.052-0.108-0.106-0.162-0.161c-0.052-0.047-0.097-0.101-0.146-0.146c-0.054-0.045-0.102-0.104-0.15-0.148
			c-0.051-0.047-0.1-0.104-0.149-0.15c-0.05-0.049-0.101-0.104-0.149-0.148c-0.047-0.045-0.092-0.098-0.142-0.143
			c-0.06-0.055-0.112-0.112-0.169-0.168c-0.053-0.045-0.098-0.1-0.146-0.144c-0.053-0.048-0.098-0.103-0.146-0.149
			c-0.052-0.049-0.099-0.103-0.148-0.146c-0.053-0.048-0.103-0.104-0.152-0.152c-0.051-0.043-0.098-0.103-0.148-0.146
			c-0.053-0.045-0.102-0.104-0.154-0.152c-0.05-0.047-0.099-0.102-0.148-0.15c-0.052-0.047-0.099-0.1-0.149-0.148
			c-0.051-0.046-0.099-0.102-0.15-0.15c-0.051-0.043-0.095-0.096-0.146-0.146c-0.058-0.052-0.112-0.112-0.167-0.163
			c-0.047-0.046-0.092-0.098-0.139-0.143c-0.049-0.045-0.096-0.098-0.145-0.146c-0.053-0.049-0.104-0.104-0.158-0.153
			c-0.051-0.047-0.1-0.104-0.151-0.15c-0.051-0.045-0.096-0.1-0.146-0.146c-0.054-0.05-0.104-0.107-0.159-0.156
			c-0.049-0.047-0.096-0.102-0.145-0.146c-0.051-0.047-0.1-0.104-0.154-0.15c-0.053-0.047-0.098-0.104-0.149-0.149
			c-0.051-0.045-0.098-0.104-0.149-0.147c-0.054-0.051-0.103-0.105-0.156-0.154c-0.047-0.047-0.092-0.096-0.139-0.143
			c-0.051-0.046-0.1-0.104-0.151-0.148c-0.056-0.051-0.105-0.107-0.161-0.158c-0.051-0.047-0.098-0.104-0.149-0.148
			c-0.054-0.047-0.101-0.104-0.154-0.152c-0.049-0.045-0.096-0.098-0.145-0.145c-0.051-0.051-0.098-0.104-0.149-0.15
			c-0.054-0.049-0.103-0.104-0.156-0.153c-0.053-0.05-0.1-0.104-0.153-0.153c-0.05-0.046-0.095-0.099-0.146-0.146
			c-0.051-0.047-0.098-0.1-0.149-0.147c-0.053-0.049-0.1-0.103-0.154-0.151c-0.051-0.045-0.098-0.101-0.149-0.148
			c-0.053-0.047-0.1-0.102-0.151-0.148c-0.056-0.053-0.105-0.108-0.16-0.16c-0.047-0.045-0.09-0.094-0.134-0.137
			c-0.055-0.049-0.106-0.107-0.163-0.158c-0.049-0.045-0.094-0.102-0.143-0.145c-0.051-0.049-0.1-0.104-0.151-0.146
			c-0.053-0.051-0.102-0.108-0.158-0.158c-0.053-0.049-0.1-0.104-0.153-0.151c-0.047-0.045-0.089-0.099-0.138-0.142
			c-0.053-0.049-0.105-0.104-0.159-0.157c-0.049-0.043-0.096-0.097-0.145-0.142c-0.055-0.051-0.107-0.108-0.163-0.164
			c-0.049-0.045-0.092-0.096-0.141-0.143c-0.053-0.045-0.1-0.1-0.153-0.148c-0.054-0.049-0.103-0.106-0.158-0.155
			c-0.049-0.048-0.096-0.101-0.147-0.147c-0.051-0.045-0.098-0.101-0.15-0.148c-0.051-0.045-0.098-0.102-0.149-0.15
			c-0.053-0.045-0.102-0.104-0.155-0.152c-0.05-0.047-0.097-0.102-0.146-0.146c-0.047-0.047-0.09-0.096-0.139-0.139
			c-0.06-0.055-0.115-0.113-0.173-0.172c-0.047-0.045-0.09-0.094-0.137-0.137c-0.053-0.052-0.104-0.109-0.157-0.158
			c-0.052-0.047-0.097-0.101-0.148-0.146c-0.053-0.049-0.102-0.105-0.153-0.152c-0.051-0.047-0.098-0.102-0.149-0.148
			c-0.05-0.043-0.097-0.102-0.146-0.145c-0.051-0.048-0.1-0.104-0.151-0.152c-0.053-0.045-0.103-0.104-0.156-0.152
			c-0.053-0.045-0.103-0.104-0.155-0.154c-0.049-0.045-0.094-0.096-0.141-0.141c-0.051-0.047-0.099-0.102-0.15-0.15
			c-0.055-0.049-0.104-0.104-0.157-0.156c-0.051-0.043-0.096-0.1-0.148-0.145c-0.053-0.049-0.102-0.107-0.153-0.158
			c-0.049-0.043-0.094-0.096-0.143-0.139c-0.053-0.049-0.105-0.105-0.159-0.158c-0.051-0.049-0.098-0.104-0.149-0.148
			c-0.053-0.049-0.102-0.106-0.156-0.158c-0.049-0.041-0.096-0.096-0.145-0.143c-0.049-0.045-0.094-0.098-0.143-0.141
			c-0.053-0.051-0.102-0.107-0.156-0.156c-0.053-0.049-0.102-0.105-0.155-0.156c-0.049-0.045-0.094-0.098-0.143-0.143
			c-0.056-0.049-0.105-0.107-0.16-0.158c-0.049-0.045-0.094-0.1-0.145-0.145c-0.053-0.047-0.1-0.105-0.154-0.154
			c-0.051-0.045-0.098-0.102-0.149-0.148c-0.053-0.049-0.102-0.104-0.156-0.153c-0.049-0.048-0.096-0.101-0.145-0.146
			c-0.049-0.048-0.094-0.097-0.143-0.144c-0.058-0.052-0.108-0.106-0.165-0.16c-0.049-0.043-0.094-0.099-0.143-0.146
			c-0.055-0.049-0.104-0.105-0.157-0.156c-0.05-0.047-0.093-0.096-0.142-0.141c-0.935-0.857-1.755-1.871-2.423-3.025
			c-3.54-6.139-1.44-13.968,4.68-17.503c1.649-0.953,3.424-1.482,5.203-1.649c-0.043,0.06-0.072,0.128-0.115,0.188
			c0.09-0.01,0.177-0.029,0.267-0.039c-0.042,0.063-0.075,0.13-0.116,0.191c0.09-0.008,0.177-0.03,0.267-0.039
			c-0.043,0.059-0.072,0.128-0.115,0.188c0.089-0.01,0.177-0.03,0.265-0.039c-0.043,0.061-0.073,0.128-0.116,0.189
			c0.089-0.01,0.177-0.029,0.267-0.038c-0.042,0.06-0.073,0.127-0.116,0.19c0.09-0.008,0.177-0.03,0.267-0.039
			c-0.042,0.059-0.072,0.128-0.114,0.189c0.089-0.01,0.177-0.029,0.267-0.039c-0.043,0.061-0.073,0.128-0.116,0.19
			c0.09-0.011,0.177-0.03,0.267-0.038c-0.042,0.059-0.072,0.128-0.114,0.189c0.089-0.011,0.177-0.03,0.267-0.039
			c-0.043,0.059-0.073,0.128-0.116,0.19c0.089-0.011,0.177-0.03,0.265-0.039c-0.043,0.06-0.073,0.128-0.116,0.19
			c0.089-0.011,0.177-0.03,0.267-0.039c-0.042,0.059-0.072,0.128-0.115,0.188c0.09-0.011,0.177-0.029,0.265-0.039
			c-0.042,0.06-0.073,0.128-0.116,0.19c0.09-0.011,0.177-0.03,0.267-0.039c-0.045,0.062-0.075,0.13-0.115,0.189
			c0.089-0.008,0.176-0.03,0.267-0.038c-0.042,0.06-0.073,0.128-0.113,0.188c0.087-0.011,0.175-0.029,0.264-0.038
			c-0.042,0.059-0.075,0.127-0.115,0.189c0.089-0.008,0.177-0.03,0.267-0.039c-0.043,0.06-0.072,0.128-0.115,0.188
			c0.09-0.01,0.177-0.03,0.265-0.039c-0.043,0.063-0.075,0.13-0.116,0.191c0.09-0.01,0.177-0.03,0.267-0.039
			c-0.042,0.059-0.073,0.128-0.116,0.189c0.091-0.01,0.177-0.03,0.267-0.039c-0.042,0.06-0.072,0.128-0.115,0.188
			c0.089-0.01,0.177-0.029,0.267-0.039c-0.045,0.063-0.075,0.131-0.116,0.19c0.09-0.011,0.177-0.03,0.267-0.039
			c-0.042,0.06-0.072,0.128-0.114,0.19c0.089-0.011,0.177-0.029,0.267-0.039c-0.046,0.069-0.076,0.137-0.119,0.197
			c0.09-0.012,0.177-0.03,0.265-0.039c-0.043,0.06-0.073,0.128-0.116,0.188c0.091-0.01,0.177-0.03,0.267-0.039
			c-0.042,0.061-0.072,0.128-0.114,0.19c0.089-0.011,0.177-0.029,0.267-0.038c-0.043,0.059-0.073,0.127-0.116,0.188
			c0.089-0.011,0.177-0.03,0.267-0.039c-0.042,0.059-0.072,0.128-0.115,0.189c0.09-0.01,0.177-0.03,0.267-0.039
			c-0.043,0.061-0.073,0.128-0.116,0.189c0.087-0.01,0.177-0.029,0.265-0.037c-0.043,0.059-0.073,0.128-0.116,0.189
			c0.089-0.01,0.177-0.03,0.267-0.039c-0.042,0.06-0.072,0.128-0.115,0.189c0.09-0.008,0.177-0.029,0.267-0.039
			c-0.042,0.061-0.073,0.128-0.115,0.188c0.089-0.011,0.177-0.03,0.267-0.038c-0.043,0.061-0.074,0.13-0.115,0.189
			c0.09-0.011,0.177-0.029,0.267-0.039c-0.042,0.061-0.073,0.128-0.116,0.188c0.09-0.011,0.177-0.03,0.265-0.039
			c-0.042,0.06-0.073,0.128-0.116,0.189c0.09-0.01,0.177-0.03,0.267-0.039c-0.042,0.06-0.072,0.128-0.114,0.19
			c0.089-0.008,0.177-0.029,0.266-0.038c-0.042,0.059-0.072,0.127-0.115,0.189c0.09-0.01,0.178-0.03,0.265-0.039
			c-0.042,0.06-0.071,0.128-0.114,0.188c0.09-0.01,0.177-0.03,0.267-0.039c-0.043,0.061-0.072,0.128-0.115,0.19
			c0.09-0.009,0.178-0.029,0.268-0.038c-0.043,0.062-0.073,0.129-0.114,0.189c0.09-0.008,0.177-0.03,0.267-0.039
			c-0.041,0.06-0.07,0.128-0.113,0.188c0.09-0.01,0.178-0.029,0.266-0.039c-0.043,0.061-0.073,0.128-0.116,0.188
			c0.091-0.011,0.179-0.03,0.267-0.039c-0.041,0.06-0.069,0.128-0.112,0.19c0.088-0.011,0.176-0.03,0.269-0.039
			c-0.047,0.063-0.076,0.13-0.117,0.19c0.09-0.009,0.178-0.03,0.268-0.039c-0.041,0.06-0.072,0.128-0.117,0.188
			c0.094-0.011,0.182-0.03,0.268-0.039c-0.043,0.06-0.071,0.128-0.114,0.189c0.092-0.01,0.178-0.029,0.266-0.038
			c-0.043,0.06-0.073,0.128-0.114,0.188c0.088-0.012,0.176-0.03,0.268-0.039c-0.047,0.062-0.076,0.13-0.115,0.189
			c0.09-0.008,0.178-0.03,0.268-0.039c-0.043,0.061-0.071,0.128-0.115,0.188c0.041-0.004,0.08-0.013,0.121-0.017
			c0.011-0.032,0.037-0.064,0.048-0.094c0.206-0.686,0.522-0.804,0.774-0.405c0.053,0.037,0.103,0.072,0.148,0.145
			c0.049,0.039,0.104,0.077,0.152,0.154c0.049,0.036,0.102,0.074,0.146,0.149c0.051,0.037,0.104,0.074,0.152,0.151
			c0.053,0.036,0.104,0.077,0.152,0.154c0.049,0.036,0.1,0.074,0.146,0.149c0.051,0.036,0.104,0.075,0.151,0.151
			c0.052,0.037,0.103,0.075,0.146,0.15c0.053,0.037,0.105,0.077,0.154,0.153c0.049,0.036,0.1,0.075,0.146,0.15
			c0.054,0.035,0.104,0.074,0.148,0.149c0.051,0.037,0.104,0.075,0.153,0.149c0.049,0.037,0.104,0.075,0.15,0.154
			c0.049,0.036,0.102,0.076,0.15,0.151c0.047,0.037,0.1,0.075,0.146,0.15c0.051,0.036,0.102,0.074,0.147,0.149
			c0.051,0.037,0.104,0.077,0.151,0.151c0.045,0.032,0.092,0.052,0.133,0.115c0.037,0.023,0.054,0.047,0.076,0.072
			c0.027,0.026,0.053,0.043,0.078,0.079c0.031,0.024,0.045,0.047,0.072,0.073c0.027,0.025,0.048,0.041,0.072,0.077
			c0.037,0.025,0.055,0.049,0.08,0.076c0.025,0.026,0.047,0.041,0.072,0.075c0.033,0.024,0.049,0.047,0.075,0.073
			c0.025,0.025,0.048,0.042,0.072,0.078c0.035,0.024,0.049,0.048,0.076,0.073c0.024,0.026,0.051,0.042,0.075,0.079
			c0.035,0.023,0.052,0.049,0.074,0.075c0.027,0.025,0.049,0.04,0.075,0.074c0.034,0.026,0.048,0.049,0.075,0.075
			c0.025,0.026,0.048,0.042,0.072,0.077c0.035,0.023,0.053,0.047,0.078,0.072c0.022,0.026,0.049,0.042,0.072,0.079
			c0.038,0.024,0.053,0.047,0.075,0.073c0.027,0.025,0.05,0.043,0.074,0.077c0.034,0.023,0.051,0.046,0.075,0.072
			c0.029,0.026,0.052,0.045,0.078,0.082c0.033,0.023,0.05,0.047,0.072,0.072c0.027,0.026,0.049,0.044,0.073,0.077
			c0.032,0.024,0.05,0.047,0.075,0.073c0.023,0.025,0.05,0.043,0.074,0.079c0.035,0.023,0.051,0.047,0.074,0.072
			c0.028,0.026,0.053,0.044,0.074,0.079c0.038,0.024,0.055,0.047,0.077,0.071c0.026,0.025,0.048,0.044,0.074,0.08
			c0.034,0.024,0.049,0.048,0.075,0.073c0.023,0.026,0.048,0.043,0.072,0.079c0.037,0.023,0.051,0.047,0.074,0.073
			c0.027,0.025,0.051,0.042,0.075,0.076c0.038,0.024,0.052,0.049,0.077,0.075c0.027,0.026,0.048,0.043,0.072,0.077
			c0.037,0.025,0.051,0.049,0.08,0.076c0.021,0.025,0.045,0.043,0.068,0.074c0.036,0.027,0.057,0.05,0.079,0.076
			c0.024,0.024,0.046,0.042,0.069,0.076c0.037,0.025,0.054,0.051,0.08,0.076c0.024,0.025,0.05,0.043,0.072,0.076
			c0.035,0.023,0.049,0.047,0.074,0.072c0.027,0.025,0.049,0.045,0.075,0.076c0.036,0.024,0.053,0.051,0.077,0.076
			c0.023,0.022,0.048,0.041,0.074,0.076c0.033,0.022,0.049,0.047,0.074,0.071c0.024,0.024,0.049,0.041,0.072,0.078
			c0.036,0.024,0.053,0.047,0.077,0.073c0.024,0.023,0.051,0.043,0.073,0.076c0.033,0.023,0.052,0.051,0.076,0.07
			c0.024,0.027,0.049,0.045,0.074,0.084c0.033,0.021,0.049,0.043,0.07,0.07c0.029,0.023,0.055,0.041,0.079,0.078
			c0.034,0.025,0.051,0.047,0.075,0.072c0.023,0.026,0.05,0.045,0.074,0.08c0.037,0.021,0.051,0.047,0.076,0.071
			c0.025,0.026,0.049,0.043,0.073,0.08c0.035,0.021,0.05,0.047,0.079,0.073c0.021,0.025,0.046,0.041,0.068,0.074
			c0.033,0.025,0.052,0.049,0.076,0.074s0.049,0.043,0.074,0.078c0.033,0.021,0.051,0.049,0.075,0.072s0.05,0.041,0.073,0.074
			c0.037,0.027,0.052,0.051,0.08,0.074c0.023,0.026,0.049,0.047,0.07,0.08c0.037,0.024,0.053,0.047,0.078,0.071
			c0.025,0.026,0.047,0.045,0.071,0.076c0.037,0.026,0.054,0.047,0.079,0.075c0.023,0.025,0.046,0.041,0.068,0.076
			c0.033,0.021,0.052,0.045,0.076,0.07c0.026,0.025,0.051,0.043,0.078,0.078c0.033,0.025,0.049,0.049,0.075,0.074
			c0.021,0.025,0.046,0.043,0.067,0.074c0.041,0.025,0.054,0.047,0.08,0.072c0.025,0.026,0.053,0.045,0.076,0.08
			c0.032,0.022,0.047,0.043,0.07,0.067c0.025,0.026,0.051,0.045,0.075,0.08c0.039,0.024,0.054,0.047,0.079,0.073
			c0.023,0.025,0.048,0.045,0.068,0.076c0.033,0.023,0.051,0.045,0.076,0.069c0.028,0.028,0.053,0.046,0.078,0.081
			c0.033,0.025,0.047,0.049,0.073,0.072c0.024,0.025,0.048,0.039,0.071,0.076c0.039,0.022,0.056,0.047,0.08,0.074
			c0.025,0.022,0.049,0.043,0.069,0.073c0.037,0.025,0.056,0.048,0.079,0.072c0.023,0.026,0.051,0.045,0.075,0.082
			c0.032,0.024,0.05,0.045,0.073,0.065c0.025,0.028,0.052,0.045,0.074,0.084c0.037,0.021,0.051,0.043,0.071,0.069
			c0.029,0.024,0.052,0.042,0.079,0.079c0.033,0.021,0.049,0.044,0.073,0.068c0.026,0.027,0.052,0.045,0.077,0.08
			c0.033,0.025,0.05,0.047,0.074,0.072c0.023,0.022,0.051,0.041,0.073,0.073c0.036,0.026,0.052,0.052,0.075,0.074
			c0.025,0.026,0.048,0.045,0.075,0.075c0.034,0.025,0.05,0.05,0.079,0.078c0.023,0.025,0.046,0.043,0.066,0.074
			c0.037,0.025,0.053,0.047,0.078,0.071c0.024,0.024,0.049,0.042,0.074,0.075c0.035,0.027,0.051,0.05,0.079,0.078
			c0.024,0.025,0.046,0.043,0.071,0.076c0.033,0.021,0.05,0.045,0.074,0.07c0.023,0.022,0.053,0.041,0.075,0.08
			c0.036,0.021,0.05,0.045,0.071,0.064c0.025,0.027,0.052,0.046,0.076,0.082c0.037,0.023,0.051,0.05,0.078,0.074
			c0.023,0.025,0.047,0.043,0.07,0.076c0.034,0.021,0.049,0.045,0.075,0.069c0.024,0.024,0.054,0.044,0.079,0.079
			c0.033,0.025,0.049,0.046,0.072,0.072c0.027,0.027,0.049,0.045,0.076,0.078c0.035,0.023,0.047,0.045,0.074,0.069
			c0.025,0.027,0.053,0.046,0.071,0.079c0.036,0.023,0.051,0.046,0.075,0.068c0.027,0.025,0.052,0.048,0.078,0.084
			c0.035,0.021,0.049,0.046,0.074,0.07c0.025,0.025,0.049,0.043,0.07,0.075c0.039,0.024,0.051,0.05,0.08,0.075
			c0.023,0.023,0.045,0.041,0.07,0.074c0.037,0.025,0.05,0.051,0.074,0.074c0.028,0.024,0.051,0.043,0.076,0.076
			c0.036,0.023,0.051,0.049,0.077,0.073c0.024,0.022,0.05,0.041,0.072,0.077c0.036,0.021,0.049,0.048,0.077,0.07
			c0.023,0.025,0.052,0.043,0.074,0.08c0.033,0.022,0.051,0.045,0.07,0.066c0.029,0.029,0.055,0.047,0.08,0.083
			c0.032,0.021,0.047,0.044,0.069,0.065c0.028,0.029,0.054,0.047,0.079,0.082c0.033,0.021,0.051,0.049,0.076,0.072
			c0.026,0.024,0.049,0.047,0.074,0.08c0.032,0.021,0.049,0.045,0.073,0.065c0.024,0.026,0.052,0.045,0.075,0.083
			c0.035,0.021,0.05,0.046,0.074,0.068c0.027,0.025,0.054,0.045,0.074,0.078c0.033,0.022,0.051,0.047,0.074,0.07
			c0.025,0.027,0.051,0.044,0.078,0.081c0.035,0.022,0.047,0.046,0.072,0.071c0.023,0.023,0.051,0.043,0.074,0.078
			c0.035,0.025,0.051,0.049,0.074,0.07c0.026,0.028,0.051,0.047,0.076,0.08c0.032,0.023,0.049,0.047,0.073,0.071
			c0.024,0.026,0.052,0.044,0.075,0.077c0.037,0.023,0.05,0.046,0.076,0.072c0.023,0.023,0.049,0.043,0.072,0.076
			c0.035,0.024,0.051,0.045,0.074,0.07c0.027,0.025,0.051,0.044,0.076,0.079c0.037,0.024,0.049,0.046,0.074,0.071
			c0.027,0.023,0.053,0.046,0.076,0.078c0.035,0.023,0.049,0.047,0.072,0.07c0.026,0.026,0.051,0.043,0.077,0.078
			c0.037,0.025,0.052,0.051,0.076,0.075c0.024,0.026,0.049,0.044,0.071,0.079c0.037,0.021,0.052,0.044,0.078,0.07
			c0.023,0.023,0.049,0.041,0.07,0.074c0.037,0.024,0.051,0.045,0.076,0.072c0.027,0.025,0.049,0.044,0.076,0.079
			c0.034,0.024,0.051,0.048,0.076,0.073c0.023,0.023,0.047,0.041,0.07,0.074c0.037,0.025,0.053,0.051,0.078,0.08
			c0.024,0.021,0.049,0.039,0.071,0.068c0.037,0.023,0.054,0.046,0.078,0.075c0.024,0.024,0.051,0.046,0.075,0.079
			c0.033,0.021,0.046,0.046,0.07,0.064c0.027,0.027,0.055,0.045,0.078,0.084c0.035,0.022,0.049,0.045,0.07,0.066
			c0.029,0.029,0.055,0.046,0.08,0.083c0.031,0.024,0.047,0.046,0.072,0.071c0.025,0.022,0.049,0.041,0.074,0.074
			c0.035,0.023,0.053,0.051,0.08,0.078c0.022,0.022,0.047,0.043,0.067,0.07c0.037,0.025,0.051,0.048,0.078,0.074
			c0.026,0.025,0.049,0.043,0.075,0.074c0.035,0.025,0.05,0.051,0.076,0.076c0.025,0.028,0.051,0.045,0.072,0.078
			c0.033,0.024,0.051,0.047,0.072,0.068c0.027,0.027,0.053,0.044,0.08,0.081c0.031,0.022,0.047,0.044,0.072,0.071
			c0.027,0.022,0.051,0.043,0.074,0.078c0.037,0.024,0.051,0.049,0.073,0.075c0.025,0.022,0.052,0.041,0.076,0.074
			c0.033,0.022,0.049,0.045,0.074,0.069c0.028,0.027,0.051,0.043,0.077,0.078c0.033,0.023,0.048,0.047,0.072,0.072
			c0.025,0.025,0.053,0.043,0.08,0.078c0.029,0.023,0.045,0.047,0.068,0.07c0.025,0.025,0.051,0.042,0.078,0.078
			c0.033,0.025,0.049,0.052,0.076,0.076c0.024,0.024,0.047,0.041,0.07,0.076c0.037,0.022,0.051,0.045,0.073,0.067
			c0.026,0.026,0.052,0.045,0.076,0.08c0.034,0.022,0.049,0.045,0.073,0.069c0.025,0.025,0.054,0.045,0.08,0.084
			c0.033,0.021,0.047,0.041,0.072,0.068c0.025,0.026,0.049,0.043,0.074,0.076c0.035,0.023,0.053,0.047,0.076,0.07
			c0.025,0.029,0.052,0.046,0.076,0.078c0.031,0.024,0.047,0.049,0.074,0.076c0.024,0.024,0.049,0.041,0.074,0.073
			c0.032,0.025,0.049,0.05,0.069,0.07c0.028,0.028,0.052,0.047,0.08,0.08c0.032,0.022,0.051,0.045,0.073,0.071
			c0.025,0.027,0.052,0.045,0.076,0.08c0.033,0.023,0.049,0.045,0.074,0.072c0.023,0.023,0.049,0.041,0.074,0.078
			c0.033,0.021,0.049,0.045,0.07,0.066c0.029,0.029,0.055,0.045,0.08,0.08c0.031,0.022,0.045,0.045,0.07,0.07
			c0.028,0.025,0.055,0.045,0.08,0.081c0.032,0.022,0.049,0.048,0.073,0.066c0.022,0.028,0.05,0.047,0.074,0.084
			c0.034,0.021,0.049,0.047,0.073,0.069c0.025,0.025,0.052,0.043,0.076,0.078c0.032,0.025,0.049,0.047,0.072,0.07
			c0.025,0.025,0.053,0.043,0.078,0.08c0.031,0.021,0.049,0.047,0.068,0.066c0.029,0.029,0.055,0.045,0.078,0.084
			c0.039,0.021,0.055,0.047,0.08,0.074c0.024,0.024,0.045,0.041,0.068,0.071c0.034,0.022,0.055,0.05,0.079,0.073
			c0.026,0.029,0.048,0.046,0.074,0.078c0.034,0.021,0.053,0.052,0.077,0.076c0.021,0.023,0.045,0.039,0.07,0.068
			c0.032,0.027,0.049,0.049,0.074,0.076c0.027,0.023,0.053,0.043,0.078,0.078c0.029,0.025,0.047,0.047,0.068,0.068
			c0.027,0.026,0.053,0.043,0.078,0.084c0.037,0.021,0.049,0.047,0.076,0.067c0.024,0.026,0.047,0.046,0.072,0.078
			c0.034,0.024,0.051,0.047,0.075,0.071c0.028,0.023,0.052,0.046,0.077,0.078c0.033,0.023,0.05,0.049,0.072,0.072
			c0.027,0.027,0.051,0.045,0.076,0.08c0.034,0.021,0.047,0.043,0.072,0.068c0.027,0.025,0.05,0.045,0.076,0.078
			c0.035,0.025,0.053,0.047,0.078,0.07c0.023,0.028,0.047,0.045,0.074,0.08c0.035,0.022,0.049,0.049,0.074,0.073
			c0.024,0.024,0.047,0.041,0.069,0.074c0.037,0.024,0.051,0.051,0.08,0.075c0.024,0.025,0.05,0.046,0.071,0.076
			c0.035,0.025,0.054,0.049,0.078,0.074c0.023,0.025,0.047,0.043,0.069,0.072c0.035,0.025,0.05,0.049,0.075,0.072
			c0.029,0.027,0.054,0.045,0.078,0.08c0.033,0.023,0.049,0.045,0.07,0.068c0.028,0.028,0.055,0.045,0.08,0.082
			c0.032,0.021,0.051,0.047,0.073,0.067c0.025,0.028,0.052,0.045,0.075,0.082c0.034,0.022,0.048,0.047,0.075,0.071
			c0.024,0.023,0.048,0.043,0.073,0.078c0.033,0.025,0.052,0.047,0.076,0.07c0.023,0.025,0.049,0.041,0.073,0.08
			c0.033,0.021,0.052,0.045,0.073,0.066c0.027,0.027,0.052,0.045,0.076,0.082c0.033,0.023,0.049,0.045,0.07,0.066
			c0.028,0.028,0.055,0.045,0.08,0.084c0.036,0.022,0.053,0.047,0.075,0.071c0.022,0.026,0.05,0.043,0.07,0.074
			c0.034,0.022,0.053,0.049,0.077,0.069c0.027,0.027,0.051,0.045,0.074,0.082c0.035,0.025,0.051,0.047,0.076,0.07
			c0.025,0.025,0.049,0.043,0.078,0.08c0.031,0.023,0.047,0.045,0.068,0.068c0.027,0.025,0.054,0.043,0.078,0.08
			c0.035,0.024,0.049,0.047,0.076,0.072c0.025,0.024,0.047,0.045,0.074,0.077c0.032,0.021,0.049,0.046,0.071,0.07
			c0.026,0.026,0.054,0.043,0.079,0.077c0.033,0.025,0.046,0.048,0.07,0.072c0.024,0.023,0.053,0.041,0.076,0.078
			c0.035,0.025,0.049,0.047,0.075,0.072c0.022,0.021,0.043,0.039,0.063,0.068C53.969,56.417,47.57,60.971,40.109,62.923z
			 M54.486,31.554c-0.023-0.026-0.041-0.049-0.076-0.075c-0.021-0.036-0.049-0.051-0.072-0.076c-0.025-0.026-0.042-0.05-0.074-0.075
			c-0.027-0.037-0.051-0.051-0.076-0.077c-0.023-0.025-0.043-0.049-0.078-0.075c-0.021-0.034-0.047-0.049-0.07-0.074
			c-0.023-0.026-0.046-0.051-0.079-0.077c-0.021-0.034-0.046-0.049-0.071-0.075c-0.025-0.025-0.045-0.051-0.076-0.074
			c-0.025-0.037-0.047-0.052-0.072-0.077c-0.028-0.026-0.043-0.049-0.078-0.075c-0.023-0.034-0.047-0.051-0.07-0.076
			c-0.029-0.026-0.046-0.049-0.078-0.075c-0.025-0.034-0.047-0.051-0.072-0.077c-0.025-0.025-0.045-0.051-0.078-0.077
			c-0.024-0.034-0.051-0.049-0.07-0.074c-0.027-0.026-0.046-0.049-0.079-0.075c-0.022-0.035-0.048-0.049-0.071-0.075
			c-0.027-0.025-0.043-0.051-0.076-0.076c-0.025-0.034-0.047-0.049-0.073-0.075c-0.025-0.026-0.044-0.049-0.077-0.075
			c-0.023-0.034-0.046-0.051-0.07-0.076c-0.029-0.026-0.046-0.05-0.078-0.075c-0.024-0.035-0.05-0.051-0.076-0.077
			c-0.023-0.025-0.041-0.049-0.073-0.075c-0.025-0.035-0.048-0.051-0.075-0.078c-0.023-0.026-0.042-0.049-0.075-0.075
			c-0.022-0.037-0.05-0.051-0.073-0.077c-0.025-0.025-0.041-0.049-0.074-0.072c-0.025-0.035-0.049-0.049-0.076-0.075
			c-0.023-0.026-0.041-0.051-0.076-0.077c-0.021-0.033-0.046-0.049-0.07-0.074c-0.027-0.026-0.043-0.052-0.08-0.077
			c-0.022-0.035-0.047-0.049-0.072-0.075c-0.023-0.025-0.041-0.049-0.073-0.074c-0.026-0.035-0.049-0.052-0.075-0.077
			c-0.023-0.026-0.044-0.049-0.079-0.075c-0.021-0.034-0.046-0.049-0.067-0.075c-0.026-0.025-0.043-0.051-0.078-0.076
			c-0.027-0.037-0.049-0.051-0.075-0.077c-0.024-0.026-0.044-0.049-0.077-0.075c-0.023-0.036-0.046-0.051-0.07-0.076
			c-0.026-0.024-0.041-0.05-0.074-0.073c-0.024-0.036-0.051-0.051-0.077-0.079c-0.026-0.025-0.039-0.049-0.074-0.073
			c-0.026-0.036-0.049-0.053-0.075-0.078c-0.023-0.026-0.044-0.049-0.076-0.073c-0.021-0.035-0.047-0.049-0.07-0.075
			c-0.026-0.025-0.043-0.051-0.08-0.076c-0.023-0.034-0.045-0.049-0.069-0.075c-0.024-0.026-0.042-0.051-0.079-0.077
			c-0.025-0.034-0.046-0.049-0.07-0.074c-0.024-0.026-0.047-0.051-0.08-0.077c-0.022-0.036-0.049-0.051-0.073-0.077
			c-0.024-0.025-0.041-0.049-0.074-0.072c-0.024-0.036-0.049-0.052-0.071-0.077c-0.027-0.026-0.046-0.049-0.078-0.075
			c-0.025-0.037-0.047-0.051-0.072-0.077c-0.026-0.025-0.043-0.049-0.078-0.074c-0.023-0.035-0.045-0.049-0.069-0.075
			c-0.026-0.026-0.044-0.051-0.079-0.075c-0.025-0.033-0.046-0.051-0.07-0.076c-0.028-0.026-0.047-0.052-0.08-0.077
			c-0.022-0.035-0.047-0.049-0.071-0.077c-0.026-0.025-0.043-0.049-0.074-0.073c-0.024-0.038-0.053-0.053-0.077-0.081
			c-0.025-0.026-0.046-0.049-0.078-0.073c-0.023-0.034-0.045-0.049-0.07-0.075c-0.024-0.025-0.041-0.051-0.076-0.074
			c-0.023-0.037-0.049-0.052-0.073-0.077c-0.024-0.026-0.042-0.049-0.077-0.075c-0.022-0.035-0.048-0.051-0.072-0.077
			c-0.024-0.025-0.043-0.048-0.075-0.074c-0.023-0.034-0.05-0.049-0.074-0.075c-0.024-0.025-0.041-0.051-0.074-0.076
			c-0.024-0.035-0.049-0.05-0.073-0.075c-0.025-0.026-0.043-0.051-0.078-0.077c-0.027-0.034-0.049-0.049-0.072-0.075
			c-0.023-0.025-0.041-0.051-0.08-0.074c-0.021-0.034-0.045-0.051-0.068-0.077c-0.027-0.026-0.043-0.049-0.076-0.075
			c-0.026-0.035-0.047-0.051-0.074-0.076c-0.024-0.026-0.045-0.052-0.077-0.077c-0.026-0.034-0.048-0.049-0.072-0.077
			c-0.045-0.026-0.062-0.05-0.096-0.076c-0.021-0.034-0.046-0.049-0.07-0.074c-0.026-0.026-0.043-0.051-0.078-0.077
			c-0.024-0.036-0.047-0.051-0.075-0.077c-0.023-0.025-0.039-0.049-0.072-0.074c-0.025-0.037-0.051-0.052-0.074-0.077
			c-0.028-0.026-0.045-0.049-0.078-0.075c-0.023-0.034-0.047-0.049-0.072-0.077c-0.025-0.025-0.043-0.049-0.078-0.074
			c-0.024-0.034-0.045-0.049-0.069-0.077c-0.029-0.026-0.046-0.049-0.08-0.075c-0.022-0.034-0.048-0.049-0.07-0.074
			c-0.028-0.026-0.047-0.049-0.079-0.075c-0.025-0.037-0.05-0.051-0.074-0.077c-0.025-0.025-0.043-0.049-0.076-0.074
			c-0.021-0.034-0.045-0.049-0.068-0.075c-0.029-0.026-0.047-0.051-0.08-0.077c-0.025-0.035-0.049-0.049-0.07-0.072
			c-0.029-0.026-0.043-0.052-0.08-0.077c-0.024-0.035-0.045-0.051-0.074-0.077c-0.024-0.025-0.041-0.049-0.077-0.075
			c-0.022-0.035-0.048-0.051-0.072-0.076c-0.026-0.026-0.041-0.049-0.073-0.075c-0.027-0.034-0.05-0.049-0.076-0.075
			c-0.023-0.025-0.041-0.049-0.072-0.074c-0.025-0.039-0.053-0.054-0.078-0.081c-0.025-0.024-0.045-0.047-0.076-0.071
			c-0.023-0.035-0.047-0.051-0.07-0.077c-0.027-0.026-0.045-0.049-0.078-0.074c-0.026-0.034-0.049-0.051-0.074-0.077
			c-0.024-0.026-0.045-0.051-0.077-0.074c-0.021-0.035-0.048-0.05-0.07-0.075c-0.026-0.026-0.043-0.051-0.077-0.077
			c-0.025-0.034-0.05-0.049-0.074-0.075c-0.025-0.025-0.043-0.05-0.075-0.075c-0.024-0.036-0.048-0.051-0.075-0.079
			c-0.023-0.026-0.043-0.049-0.078-0.075c-0.021-0.037-0.047-0.051-0.07-0.078c-0.025-0.024-0.043-0.048-0.076-0.073
			c-0.024-0.036-0.049-0.051-0.076-0.079c-0.024-0.025-0.045-0.049-0.077-0.075c-0.022-0.035-0.046-0.051-0.07-0.076
			c-0.028-0.026-0.043-0.049-0.077-0.075c-0.025-0.037-0.05-0.051-0.074-0.077c-0.025-0.025-0.043-0.049-0.074-0.074
			c-0.027-0.035-0.049-0.052-0.072-0.077c-0.025-0.026-0.047-0.049-0.08-0.075c-0.025-0.036-0.047-0.051-0.07-0.077
			c-0.029-0.025-0.045-0.049-0.08-0.074c-0.024-0.034-0.045-0.049-0.07-0.077c-0.028-0.026-0.047-0.049-0.079-0.075
			c-0.022-0.035-0.046-0.049-0.072-0.076c-0.024-0.026-0.043-0.05-0.075-0.075c-0.025-0.036-0.052-0.051-0.076-0.077
			c-0.023-0.025-0.041-0.049-0.074-0.075c-0.047-0.062-0.09-0.081-0.137-0.113c-0.049-0.077-0.101-0.118-0.151-0.154
			c-0.046-0.076-0.099-0.115-0.149-0.151c-0.047-0.075-0.096-0.11-0.146-0.147c-0.052-0.079-0.104-0.118-0.154-0.154
			c-0.045-0.074-0.099-0.113-0.149-0.149c-0.045-0.077-0.097-0.116-0.146-0.151c-0.048-0.077-0.104-0.115-0.152-0.152
			c-0.045-0.075-0.098-0.113-0.148-0.149c-0.047-0.077-0.098-0.116-0.147-0.152c-0.049-0.076-0.103-0.114-0.151-0.151
			c-0.049-0.077-0.101-0.116-0.148-0.151c-0.049-0.077-0.102-0.114-0.15-0.15c-0.047-0.074-0.1-0.112-0.148-0.149
			c-0.046-0.077-0.102-0.118-0.148-0.154c-0.048-0.074-0.102-0.113-0.15-0.149c-0.047-0.075-0.1-0.114-0.148-0.149
			c-0.046-0.077-0.099-0.116-0.15-0.152c-0.254-0.399-0.566-0.277-0.777,0.408c-0.271,0.868-1.194,1.798-2.063,2.063
			c-0.688,0.211-0.812,0.529-0.408,0.786c0.037,0.051,0.076,0.1,0.149,0.149c0.037,0.051,0.072,0.102,0.149,0.151
			c0.037,0.052,0.074,0.1,0.148,0.15c0.037,0.051,0.076,0.103,0.149,0.151c0.038,0.051,0.075,0.102,0.149,0.151
			c0.037,0.052,0.076,0.103,0.149,0.152c0.037,0.051,0.074,0.1,0.149,0.149c0.037,0.053,0.074,0.104,0.15,0.154
			c0.039,0.051,0.076,0.1,0.147,0.149c0.038,0.051,0.075,0.1,0.149,0.149c0.036,0.054,0.075,0.103,0.153,0.154
			c0.033,0.051,0.072,0.102,0.149,0.149c0.037,0.051,0.072,0.102,0.148,0.15c0.035,0.051,0.071,0.102,0.146,0.151
			c0.039,0.051,0.074,0.102,0.15,0.151c0.036,0.052,0.075,0.103,0.153,0.152c0.034,0.053,0.074,0.102,0.147,0.151
			c0.033,0.045,0.054,0.089,0.113,0.134c0.025,0.037,0.051,0.051,0.074,0.077c0.025,0.025,0.043,0.049,0.078,0.075
			c0.021,0.033,0.045,0.049,0.068,0.074c0.026,0.028,0.045,0.051,0.08,0.079c0.026,0.035,0.047,0.051,0.073,0.077
			c0.024,0.025,0.039,0.049,0.076,0.074c0.022,0.034,0.047,0.052,0.071,0.077c0.027,0.026,0.044,0.049,0.078,0.075
			c0.023,0.034,0.047,0.049,0.072,0.077c0.023,0.025,0.043,0.049,0.076,0.074c0.021,0.035,0.049,0.051,0.072,0.077
			c0.027,0.026,0.041,0.049,0.076,0.075c0.025,0.037,0.049,0.051,0.072,0.076c0.026,0.026,0.045,0.05,0.08,0.075
			c0.024,0.037,0.045,0.051,0.069,0.077c0.028,0.025,0.047,0.051,0.084,0.077c0.021,0.031,0.043,0.047,0.065,0.072
			c0.023,0.026,0.046,0.051,0.078,0.077c0.025,0.037,0.047,0.051,0.074,0.077c0.025,0.025,0.041,0.049,0.076,0.074
			c0.023,0.037,0.045,0.052,0.07,0.077c0.027,0.026,0.045,0.049,0.078,0.075c0.025,0.033,0.047,0.049,0.07,0.075
			c0.028,0.025,0.047,0.051,0.082,0.076c0.022,0.035,0.043,0.049,0.069,0.075c0.024,0.026,0.045,0.051,0.078,0.077
			c0.022,0.033,0.047,0.049,0.069,0.074c0.029,0.026,0.045,0.051,0.078,0.077c0.025,0.037,0.049,0.051,0.072,0.077
			c0.027,0.025,0.045,0.051,0.078,0.074c0.023,0.037,0.045,0.051,0.074,0.077c0.023,0.026,0.041,0.049,0.076,0.075
			c0.022,0.034,0.043,0.047,0.068,0.072c0.026,0.026,0.047,0.052,0.079,0.077c0.025,0.034,0.048,0.049,0.07,0.075
			c0.028,0.025,0.047,0.051,0.08,0.077c0.022,0.034,0.049,0.049,0.071,0.074c0.025,0.026,0.043,0.051,0.078,0.075
			c0.025,0.035,0.049,0.049,0.072,0.075c0.025,0.025,0.043,0.051,0.076,0.076c0.025,0.034,0.047,0.05,0.074,0.075
			c0.023,0.026,0.043,0.049,0.076,0.075c0.022,0.033,0.049,0.049,0.07,0.074c0.026,0.026,0.045,0.051,0.079,0.075
			c0.025,0.037,0.048,0.051,0.072,0.077c0.026,0.025,0.045,0.049,0.08,0.074c0.021,0.037,0.045,0.052,0.069,0.077
			c0.028,0.026,0.043,0.049,0.08,0.075c0.023,0.036,0.047,0.051,0.07,0.079c0.027,0.025,0.045,0.049,0.076,0.072
			c0.025,0.037,0.047,0.051,0.074,0.077c0.023,0.026,0.045,0.049,0.076,0.075c0.022,0.034,0.045,0.049,0.07,0.074
			c0.026,0.026,0.045,0.052,0.079,0.077c0.024,0.034,0.046,0.049,0.07,0.077c0.028,0.025,0.047,0.051,0.082,0.077
			c0.022,0.031,0.043,0.047,0.067,0.07c0.025,0.026,0.041,0.051,0.08,0.079c0.023,0.034,0.049,0.051,0.072,0.077
			c0.021,0.019,0.016,0.038,0.039,0.055c-0.154,0.044-0.311,0.228-0.428,0.612c-0.271,0.868-1.195,1.798-2.063,2.063
			c-0.685,0.211-0.81,0.527-0.409,0.783c0.037,0.051,0.074,0.102,0.148,0.151c0.037,0.051,0.076,0.102,0.15,0.15
			c0.037,0.053,0.074,0.104,0.148,0.15c0.038,0.051,0.075,0.104,0.148,0.15c0.037,0.052,0.074,0.104,0.15,0.15
			c0.037,0.053,0.074,0.104,0.152,0.15c0.035,0.055,0.076,0.104,0.15,0.152c0.037,0.051,0.072,0.102,0.148,0.147
			c0.038,0.054,0.073,0.101,0.146,0.147c0.039,0.053,0.074,0.104,0.152,0.153c0.034,0.052,0.073,0.101,0.147,0.149
			c0.039,0.051,0.075,0.104,0.151,0.148c0.035,0.055,0.074,0.104,0.149,0.154c0.04,0.051,0.075,0.1,0.147,0.146
			c0.039,0.054,0.074,0.104,0.146,0.149c0.04,0.054,0.079,0.104,0.153,0.152c0.041,0.05,0.075,0.1,0.149,0.146
			c0.033,0.045,0.051,0.092,0.116,0.137c0.024,0.037,0.048,0.055,0.075,0.078c0.023,0.024,0.041,0.047,0.07,0.07
			c0.023,0.038,0.051,0.053,0.076,0.079c0.024,0.024,0.045,0.048,0.074,0.071c0.026,0.037,0.053,0.054,0.077,0.08
			c0.024,0.027,0.042,0.049,0.074,0.07c0.024,0.037,0.049,0.053,0.075,0.077c0.023,0.024,0.041,0.05,0.072,0.07
			c0.026,0.04,0.053,0.055,0.078,0.083c0.027,0.023,0.045,0.046,0.075,0.07c0.022,0.033,0.044,0.047,0.069,0.07
			c0.025,0.028,0.043,0.051,0.078,0.076c0.023,0.036,0.049,0.053,0.074,0.077c0.024,0.024,0.043,0.052,0.074,0.075
			c0.024,0.035,0.051,0.05,0.075,0.078c0.024,0.021,0.042,0.047,0.074,0.072c0.024,0.032,0.051,0.051,0.077,0.077
			c0.023,0.024,0.039,0.048,0.072,0.068c0.026,0.04,0.051,0.057,0.08,0.081c0.023,0.021,0.038,0.046,0.069,0.066
			c0.024,0.039,0.05,0.055,0.075,0.082c0.023,0.021,0.041,0.047,0.074,0.072c0.023,0.032,0.051,0.049,0.074,0.076
			c0.024,0.025,0.041,0.049,0.074,0.072c0.025,0.037,0.051,0.05,0.075,0.078c0.028,0.024,0.046,0.047,0.078,0.072
			c0.021,0.034,0.047,0.049,0.071,0.073c0.023,0.026,0.041,0.049,0.074,0.074c0.024,0.034,0.051,0.053,0.074,0.079
			c0.027,0.023,0.042,0.049,0.077,0.07c0.024,0.037,0.048,0.051,0.073,0.076c0.025,0.027,0.045,0.049,0.078,0.074
			c0.024,0.034,0.047,0.049,0.069,0.072c0.025,0.025,0.042,0.049,0.077,0.076c0.025,0.037,0.048,0.053,0.077,0.078
			c0.024,0.024,0.042,0.047,0.069,0.069c0.027,0.039,0.052,0.056,0.08,0.082c0.024,0.022,0.041,0.05,0.074,0.071
			c0.024,0.035,0.049,0.052,0.075,0.076c0.024,0.023,0.041,0.051,0.072,0.07c0.026,0.037,0.05,0.053,0.075,0.078
			s0.043,0.049,0.076,0.074c0.021,0.033,0.047,0.051,0.069,0.076c0.027,0.023,0.044,0.046,0.08,0.072
			c0.022,0.035,0.048,0.053,0.074,0.078c0.024,0.024,0.042,0.049,0.073,0.069c0.025,0.039,0.052,0.056,0.078,0.082
			c0.026,0.024,0.039,0.047,0.07,0.065c0.026,0.039,0.053,0.058,0.079,0.082c0.024,0.021,0.039,0.043,0.067,0.068
			c0.027,0.037,0.053,0.055,0.08,0.08c0.023,0.023,0.041,0.049,0.074,0.068c0.024,0.039,0.051,0.055,0.076,0.084
			c0.021,0.025,0.039,0.047,0.073,0.07c0.022,0.033,0.05,0.051,0.073,0.08c0.025,0.022,0.043,0.045,0.074,0.067
			c0.025,0.039,0.051,0.052,0.076,0.078c0.024,0.024,0.041,0.049,0.074,0.073c0.023,0.035,0.049,0.05,0.072,0.074
			c0.027,0.025,0.044,0.049,0.076,0.074c0.025,0.035,0.052,0.051,0.076,0.078c0.023,0.025,0.041,0.047,0.076,0.07
			c0.024,0.037,0.049,0.055,0.076,0.08c0.021,0.025,0.04,0.045,0.071,0.07c0.024,0.034,0.05,0.051,0.073,0.08
			c0.025,0.022,0.047,0.045,0.076,0.069c0.023,0.034,0.049,0.051,0.074,0.078c0.024,0.024,0.041,0.047,0.076,0.071
			c0.023,0.037,0.049,0.049,0.077,0.078c0.022,0.023,0.037,0.047,0.069,0.068c0.026,0.039,0.052,0.057,0.08,0.086
			c0.023,0.021,0.041,0.045,0.074,0.064c0.024,0.037,0.049,0.053,0.072,0.08c0.027,0.024,0.039,0.045,0.075,0.07
			c0.022,0.036,0.048,0.053,0.073,0.079c0.025,0.022,0.045,0.046,0.072,0.07c0.027,0.036,0.051,0.055,0.076,0.077
			c0.023,0.025,0.043,0.048,0.078,0.072c0.021,0.037,0.047,0.051,0.073,0.078c0.026,0.023,0.038,0.049,0.073,0.07
			c0.026,0.037,0.049,0.053,0.076,0.078c0.023,0.025,0.043,0.047,0.075,0.072c0.025,0.035,0.052,0.053,0.075,0.08
			c0.025,0.022,0.042,0.047,0.075,0.067c0.022,0.035,0.048,0.056,0.071,0.08c0.027,0.022,0.043,0.047,0.076,0.074
			c0.025,0.034,0.053,0.051,0.076,0.073c0.023,0.025,0.041,0.05,0.074,0.074c0.025,0.033,0.051,0.051,0.074,0.078
			c0.025,0.027,0.041,0.049,0.076,0.068c0.022,0.037,0.047,0.055,0.074,0.078c0.023,0.025,0.041,0.049,0.071,0.07
			c0.026,0.039,0.054,0.055,0.079,0.084c0.027,0.024,0.044,0.045,0.074,0.067c0.025,0.035,0.049,0.05,0.068,0.074
			c0.029,0.026,0.045,0.049,0.078,0.075c0.027,0.039,0.051,0.054,0.076,0.076c0.023,0.027,0.041,0.051,0.072,0.072
			c0.027,0.037,0.053,0.053,0.078,0.082c0.027,0.025,0.045,0.047,0.076,0.07c0.022,0.033,0.047,0.051,0.071,0.074
			c0.024,0.025,0.041,0.051,0.074,0.072c0.026,0.041,0.051,0.053,0.079,0.082c0.021,0.024,0.04,0.045,0.07,0.069
			c0.023,0.035,0.051,0.052,0.074,0.076c0.024,0.022,0.041,0.049,0.078,0.073c0.025,0.037,0.047,0.054,0.074,0.078
			c0.023,0.025,0.043,0.047,0.072,0.069c0.025,0.038,0.05,0.052,0.074,0.081c0.026,0.025,0.047,0.047,0.08,0.07
			c0.022,0.033,0.045,0.051,0.067,0.07c0.026,0.028,0.043,0.055,0.08,0.078c0.024,0.033,0.047,0.051,0.071,0.075
			c0.023,0.029,0.041,0.052,0.078,0.076c0.023,0.035,0.047,0.049,0.07,0.078c0.026,0.021,0.043,0.045,0.074,0.069
			c0.029,0.037,0.053,0.056,0.08,0.078c0.023,0.025,0.041,0.047,0.07,0.071c0.025,0.034,0.05,0.052,0.076,0.079
			c0.024,0.025,0.045,0.048,0.076,0.072c0.022,0.035,0.047,0.049,0.071,0.074c0.026,0.026,0.043,0.049,0.078,0.074
			c0.024,0.036,0.047,0.055,0.071,0.077c0.027,0.025,0.045,0.05,0.076,0.07c0.027,0.039,0.053,0.058,0.078,0.084
			c0.027,0.021,0.041,0.043,0.072,0.065c0.023,0.037,0.051,0.056,0.075,0.082c0.024,0.021,0.042,0.047,0.075,0.069
			c0.024,0.034,0.048,0.052,0.074,0.077c0.024,0.027,0.045,0.05,0.075,0.07c0.023,0.037,0.048,0.053,0.072,0.08
			c0.026,0.022,0.043,0.047,0.076,0.072c0.024,0.034,0.051,0.053,0.075,0.077c0.023,0.022,0.041,0.048,0.074,0.07
			c0.027,0.038,0.051,0.057,0.078,0.082c0.025,0.022,0.041,0.045,0.072,0.065c0.023,0.039,0.049,0.06,0.076,0.084
			c0.025,0.021,0.039,0.043,0.07,0.064c0.026,0.037,0.052,0.059,0.078,0.084c0.024,0.025,0.041,0.046,0.073,0.066
			c0.022,0.037,0.048,0.055,0.074,0.082c0.024,0.022,0.041,0.047,0.073,0.07c0.025,0.036,0.052,0.053,0.076,0.079
			c0.023,0.022,0.041,0.046,0.074,0.069c0.025,0.037,0.051,0.054,0.076,0.08c0.025,0.025,0.045,0.045,0.074,0.068
			c0.025,0.039,0.049,0.053,0.078,0.082c0.021,0.023,0.039,0.045,0.07,0.068c0.026,0.035,0.049,0.051,0.074,0.08
			c0.024,0.023,0.045,0.045,0.077,0.07c0.026,0.035,0.048,0.053,0.072,0.08c0.024,0.022,0.041,0.045,0.077,0.068
			c0.023,0.038,0.048,0.051,0.072,0.079c0.025,0.024,0.043,0.046,0.078,0.071c0.023,0.035,0.047,0.054,0.07,0.078
			s0.045,0.045,0.078,0.07c0.025,0.037,0.049,0.053,0.074,0.079c0.025,0.024,0.043,0.048,0.074,0.069
			c0.024,0.039,0.047,0.054,0.071,0.08c0.027,0.025,0.048,0.045,0.08,0.072c0.022,0.031,0.045,0.049,0.065,0.067
			c0.029,0.029,0.045,0.056,0.084,0.079c0.023,0.04,0.048,0.057,0.074,0.079c0.023,0.026,0.041,0.049,0.072,0.069
			c0.027,0.037,0.053,0.059,0.078,0.084c0.025,0.021,0.041,0.041,0.07,0.066c0.025,0.037,0.051,0.055,0.078,0.081
			c0.023,0.022,0.041,0.048,0.074,0.067c0.024,0.039,0.049,0.056,0.071,0.08c0.026,0.027,0.045,0.047,0.076,0.07
			c0.026,0.039,0.052,0.057,0.078,0.084c0.024,0.023,0.045,0.045,0.075,0.067c0.021,0.035,0.047,0.052,0.072,0.076
			c0.023,0.024,0.041,0.051,0.074,0.073c0.025,0.037,0.051,0.052,0.074,0.08c0.025,0.022,0.045,0.045,0.076,0.07
			c0.023,0.035,0.049,0.051,0.074,0.079c0.028,0.024,0.045,0.046,0.076,0.067c0.022,0.037,0.049,0.054,0.071,0.078
			c0.024,0.023,0.043,0.049,0.076,0.072c0.026,0.039,0.049,0.053,0.077,0.082c0.025,0.023,0.044,0.045,0.074,0.069
			c0.026,0.035,0.049,0.05,0.074,0.073c0.025,0.025,0.039,0.052,0.072,0.072c0.025,0.035,0.051,0.057,0.074,0.08
			c0.027,0.026,0.043,0.047,0.076,0.07c0.004,0.008,0.012,0.01,0.016,0.02c1.742-2.76,3.066-5.801,3.904-9.043
			c-0.004-0.004-0.01-0.008-0.014-0.013c-0.023-0.026-0.043-0.05-0.078-0.073c-0.021-0.037-0.047-0.049-0.068-0.076
			c-0.026-0.023-0.043-0.049-0.078-0.078c-0.027-0.032-0.049-0.049-0.073-0.072c-0.026-0.025-0.042-0.048-0.075-0.072
			c-0.026-0.037-0.047-0.051-0.074-0.076c-0.026-0.024-0.041-0.049-0.075-0.072c-0.022-0.035-0.048-0.055-0.074-0.08
			c-0.024-0.024-0.041-0.047-0.076-0.074c-0.026-0.033-0.049-0.048-0.073-0.075c-0.025-0.024-0.045-0.046-0.078-0.071
			c-0.021-0.037-0.047-0.049-0.07-0.074s-0.043-0.049-0.08-0.073c-0.021-0.037-0.045-0.052-0.068-0.075
			c-0.024-0.027-0.045-0.052-0.078-0.078c-0.026-0.033-0.047-0.049-0.071-0.074c-0.029-0.024-0.041-0.049-0.078-0.07
			c-0.022-0.039-0.047-0.055-0.076-0.079c-0.024-0.024-0.041-0.05-0.073-0.073c-0.025-0.035-0.05-0.052-0.076-0.076
			c-0.023-0.025-0.041-0.051-0.072-0.076c-0.027-0.033-0.049-0.047-0.072-0.074c-0.027-0.023-0.045-0.047-0.08-0.071
			c-0.023-0.035-0.045-0.054-0.068-0.077c-0.029-0.023-0.045-0.05-0.08-0.072c-0.024-0.035-0.047-0.053-0.074-0.076
			c-0.024-0.024-0.04-0.047-0.071-0.07c-0.022-0.041-0.051-0.055-0.078-0.084c-0.024-0.023-0.041-0.045-0.073-0.07
			c-0.025-0.033-0.047-0.048-0.074-0.072c-0.023-0.026-0.043-0.053-0.08-0.078c-0.021-0.033-0.045-0.045-0.066-0.069
			c-0.025-0.028-0.043-0.056-0.08-0.078c-0.023-0.035-0.047-0.051-0.07-0.075c-0.026-0.025-0.045-0.05-0.078-0.074
			c-0.024-0.033-0.045-0.051-0.071-0.074c-0.024-0.024-0.045-0.047-0.074-0.072c-0.024-0.041-0.053-0.053-0.078-0.079
			c-0.026-0.024-0.043-0.048-0.073-0.073c-0.025-0.035-0.052-0.05-0.076-0.074c-0.023-0.026-0.041-0.051-0.072-0.076
			c-0.025-0.037-0.053-0.051-0.078-0.077c-0.027-0.024-0.045-0.05-0.076-0.07c-0.023-0.038-0.047-0.051-0.07-0.077
			c-0.026-0.025-0.043-0.048-0.076-0.072c-0.024-0.035-0.049-0.051-0.073-0.078c-0.024-0.024-0.045-0.047-0.078-0.07
			c-0.021-0.038-0.047-0.053-0.071-0.079c-0.024-0.024-0.041-0.05-0.078-0.071c-0.023-0.037-0.047-0.05-0.071-0.076
			c-0.026-0.026-0.044-0.053-0.079-0.076c-0.021-0.034-0.046-0.047-0.07-0.071c-0.023-0.026-0.045-0.052-0.08-0.074
			c-0.023-0.038-0.045-0.053-0.068-0.079c-0.028-0.023-0.047-0.048-0.08-0.074c-0.022-0.033-0.045-0.049-0.069-0.072
			c-0.026-0.026-0.047-0.049-0.08-0.076c-0.024-0.034-0.045-0.051-0.069-0.075c-0.028-0.024-0.043-0.052-0.08-0.071
			c-0.023-0.037-0.045-0.049-0.068-0.078c-0.029-0.024-0.047-0.049-0.08-0.076c-0.023-0.032-0.045-0.047-0.07-0.071
			c-0.027-0.026-0.047-0.049-0.078-0.073c-0.024-0.037-0.047-0.054-0.07-0.078c-0.028-0.023-0.045-0.045-0.079-0.07
			c-0.025-0.039-0.05-0.055-0.074-0.082c-0.024-0.023-0.043-0.045-0.076-0.066c-0.024-0.037-0.045-0.053-0.069-0.076
			c-0.025-0.027-0.047-0.055-0.08-0.078c-0.023-0.033-0.049-0.049-0.073-0.074c-0.024-0.024-0.042-0.051-0.075-0.075
			c-0.023-0.033-0.047-0.05-0.07-0.074c-0.029-0.026-0.047-0.051-0.078-0.073c-0.024-0.039-0.051-0.052-0.076-0.076
			c-0.022-0.023-0.021-0.004-0.055-0.023c-0.023-0.035-0.047-0.051-0.074-0.08c-0.026-0.023-0.043-0.047-0.078-0.068
			c-0.024-0.039-0.047-0.053-0.071-0.076c-0.022-0.024-0.045-0.049-0.078-0.076c-0.024-0.034-0.047-0.049-0.069-0.075
			c-0.025-0.026-0.047-0.052-0.08-0.076c-0.023-0.034-0.045-0.051-0.07-0.075c-0.029-0.025-0.044-0.05-0.078-0.074
			c-0.025-0.037-0.047-0.053-0.07-0.08c-0.025-0.023-0.043-0.047-0.074-0.07c-0.025-0.037-0.051-0.055-0.078-0.08
			c-0.024-0.025-0.043-0.047-0.076-0.072c-0.024-0.037-0.051-0.051-0.075-0.078c-0.022-0.025-0.041-0.051-0.074-0.072
			c-0.024-0.037-0.049-0.051-0.073-0.078c-0.025-0.024-0.043-0.049-0.076-0.073c-0.023-0.035-0.045-0.052-0.072-0.076
			s-0.044-0.049-0.076-0.073c-0.025-0.037-0.051-0.052-0.076-0.078c-0.023-0.023-0.041-0.049-0.074-0.072
			c-0.023-0.035-0.045-0.053-0.069-0.076c-0.029-0.023-0.046-0.051-0.079-0.076c-0.023-0.033-0.049-0.049-0.073-0.072
			c-0.024-0.027-0.048-0.049-0.084-0.074c-0.024-0.034-0.051-0.051-0.075-0.077c-0.025-0.024-0.041-0.051-0.074-0.073
			c-0.024-0.035-0.049-0.051-0.076-0.076c-0.023-0.025-0.038-0.049-0.073-0.074c-0.024-0.037-0.048-0.053-0.075-0.079
			c-0.023-0.025-0.041-0.05-0.076-0.074c-0.022-0.036-0.049-0.051-0.076-0.077c-0.022-0.026-0.043-0.049-0.074-0.075
			c-0.022-0.034-0.047-0.049-0.071-0.074c-0.026-0.026-0.044-0.052-0.078-0.077c-0.021-0.034-0.047-0.049-0.071-0.075
			c-0.024-0.025-0.043-0.051-0.076-0.077C54.533,31.595,54.514,31.578,54.486,31.554z"/>
	</g>
	<path fill="#F5D76E" d="M21.928,21.962c1.649-0.953,3.424-1.482,5.203-1.649c-2.801,3.955-3.233,9.332-0.654,13.8
		c2.581,4.47,7.453,6.783,12.279,6.334c-1.031,1.461-2.379,2.73-4.031,3.687c-6.121,3.533-13.953,1.437-17.483-4.684
		C13.708,33.329,15.808,25.498,21.928,21.962z M45.759,29.463c-0.263-0.867-0.7-0.867-0.967,0c-0.271,0.869-1.196,1.798-2.063,2.063
		c-0.871,0.267-0.871,0.708,0,0.975c0.867,0.267,1.791,1.194,2.063,2.065c0.267,0.867,0.704,0.867,0.967,0
		c0.271-0.871,1.199-1.799,2.063-2.065c0.869-0.267,0.869-0.708,0-0.975C46.958,31.261,46.029,30.333,45.759,29.463z M41.491,18.799
		c-0.263-0.867-0.699-0.867-0.966,0c-0.271,0.869-1.196,1.798-2.063,2.063c-0.871,0.267-0.871,0.708,0,0.975
		c0.866,0.267,1.791,1.195,2.063,2.063c0.267,0.866,0.703,0.866,0.966,0c0.271-0.869,1.2-1.799,2.063-2.063
		c0.869-0.267,0.869-0.708,0-0.975C42.691,20.595,41.764,19.667,41.491,18.799z M35.092,27.33c-0.263-0.867-0.699-0.867-0.967,0
		c-0.271,0.869-1.197,1.798-2.063,2.065c-0.87,0.267-0.87,0.706,0,0.975c0.866,0.265,1.793,1.195,2.063,2.064
		c0.268,0.866,0.704,0.866,0.967,0c0.271-0.869,1.2-1.799,2.063-2.064c0.871-0.269,0.871-0.708,0-0.975
		C36.292,29.128,35.361,28.199,35.092,27.33z"/>
</g>
</svg>
