<?xml version="1.0" encoding="utf-8"?>
<!-- Generator: Adobe Illustrator 16.0.0, SVG Export Plug-In . SVG Version: 6.00 Build 0)  -->
<!DOCTYPE svg PUBLIC "-//W3C//DTD SVG 1.1//EN" "http://www.w3.org/Graphics/SVG/1.1/DTD/svg11.dtd">
<svg version="1.1" id="STORMY" xmlns="http://www.w3.org/2000/svg" xmlns:xlink="http://www.w3.org/1999/xlink" x="0px" y="0px"
	 width="64px" height="64px" viewBox="0 0 64 64" enable-background="new 0 0 64 64" xml:space="preserve">
<g>
	<g id="night_bg_1_">
		<g>
			<circle fill="#34495E" cx="32" cy="32" r="32"/>
		</g>
		<g>
			<path fill="#2C3E50" d="M32,64c17.673,0,32-14.327,32-32S49.673,0,32,0V64z"/>
		</g>
	</g>
	<defs>
		<filter id="Adobe_OpacityMaskFilter" filterUnits="userSpaceOnUse" x="9.602" y="12.8" width="54.298" height="50.7">
			<feColorMatrix  type="matrix" values="1 0 0 0 0  0 1 0 0 0  0 0 1 0 0  0 0 0 1 0"/>
		</filter>
	</defs>
	<mask maskUnits="userSpaceOnUse" x="9.602" y="12.8" width="54.298" height="50.7" id="SVGID_1_">
		<g filter="url(#Adobe_OpacityMaskFilter)">
			<g>
				
					<radialGradient id="SVGID_2_" cx="402.7705" cy="-781.5986" r="37.333" gradientTransform="matrix(1 0 0 -1 -373.9707 -752.7988)" gradientUnits="userSpaceOnUse">
					<stop  offset="0" style="stop-color:#FFFFFF"/>
					<stop  offset="0.1126" style="stop-color:#E8E8E8"/>
					<stop  offset="0.3492" style="stop-color:#ADADAD"/>
					<stop  offset="0.6869" style="stop-color:#4E4E4E"/>
					<stop  offset="0.9519" style="stop-color:#000000"/>
				</radialGradient>
				<circle fill="url(#SVGID_2_)" cx="28.8" cy="28.8" r="37.333"/>
			</g>
		</g>
	</mask>
	<g opacity="0.4" mask="url(#SVGID_1_)">
		<path fill="#1A171B" d="M63.9,33.986c-0.014-0.012-0.025-0.021-0.039-0.034c-0.047-0.052-0.1-0.103-0.148-0.152
			c-0.053-0.054-0.104-0.106-0.156-0.157c-0.048-0.047-0.099-0.097-0.147-0.145c-0.046-0.048-0.101-0.104-0.149-0.152
			c-0.046-0.05-0.101-0.1-0.146-0.146c-0.045-0.05-0.098-0.101-0.146-0.152c-0.05-0.054-0.108-0.106-0.157-0.157
			c-0.049-0.05-0.102-0.099-0.148-0.146c-0.049-0.051-0.098-0.1-0.146-0.148c-0.051-0.051-0.102-0.103-0.15-0.151
			c-0.047-0.049-0.1-0.098-0.146-0.146c-0.05-0.055-0.103-0.105-0.156-0.156c-0.043-0.051-0.098-0.1-0.147-0.149
			c-0.046-0.051-0.097-0.101-0.146-0.149c-0.051-0.052-0.104-0.103-0.154-0.152c-0.047-0.051-0.098-0.1-0.149-0.149
			c-0.044-0.049-0.097-0.099-0.142-0.148c-0.051-0.053-0.108-0.104-0.156-0.157c-0.049-0.049-0.102-0.098-0.148-0.148
			c-0.047-0.051-0.1-0.1-0.149-0.151c-0.048-0.051-0.101-0.1-0.147-0.149c-0.048-0.051-0.103-0.1-0.152-0.152
			c-0.047-0.051-0.1-0.1-0.148-0.149c-0.046-0.051-0.102-0.1-0.148-0.151c-0.043-0.05-0.098-0.099-0.146-0.15
			c-0.05-0.051-0.104-0.102-0.15-0.153c-0.052-0.051-0.104-0.103-0.153-0.154c-0.046-0.047-0.097-0.096-0.142-0.143
			c-0.049-0.051-0.103-0.102-0.154-0.153c-0.047-0.051-0.1-0.101-0.147-0.152c-0.048-0.051-0.101-0.102-0.151-0.151
			c-0.047-0.051-0.103-0.1-0.149-0.152c-0.05-0.049-0.101-0.096-0.146-0.145c-0.051-0.051-0.104-0.102-0.154-0.155
			c-0.047-0.05-0.098-0.099-0.146-0.148c-0.048-0.051-0.1-0.102-0.152-0.151c-0.047-0.051-0.102-0.1-0.148-0.151
			c-0.044-0.052-0.1-0.101-0.148-0.15c-0.045-0.051-0.1-0.1-0.146-0.149c-0.052-0.051-0.104-0.103-0.154-0.154
			c-0.05-0.051-0.1-0.1-0.149-0.151c-0.049-0.051-0.101-0.1-0.149-0.152c-0.046-0.049-0.101-0.098-0.146-0.147
			c-0.051-0.051-0.103-0.102-0.149-0.151c-0.05-0.051-0.103-0.102-0.149-0.152c-0.051-0.051-0.104-0.102-0.154-0.151
			c-0.047-0.049-0.096-0.098-0.146-0.147c-0.048-0.052-0.1-0.101-0.15-0.152c-0.047-0.053-0.104-0.104-0.15-0.155
			c-0.048-0.049-0.096-0.096-0.145-0.145c-0.051-0.052-0.103-0.103-0.153-0.154c-0.046-0.051-0.101-0.1-0.146-0.151
			c-0.051-0.051-0.101-0.101-0.15-0.15c-0.049-0.053-0.104-0.104-0.157-0.157c-0.044-0.047-0.093-0.094-0.14-0.144
			c-0.049-0.051-0.102-0.102-0.15-0.151c-0.053-0.051-0.104-0.102-0.152-0.153c-0.046-0.05-0.1-0.099-0.146-0.148
			c-0.05-0.053-0.104-0.104-0.158-0.155c-0.046-0.049-0.097-0.098-0.142-0.145c-0.053-0.054-0.104-0.103-0.152-0.154
			c-0.05-0.049-0.102-0.098-0.15-0.147c-0.048-0.051-0.1-0.101-0.146-0.152c-0.051-0.051-0.1-0.102-0.154-0.153
			c-0.046-0.049-0.096-0.098-0.146-0.146c-0.049-0.054-0.101-0.105-0.149-0.154c-0.048-0.049-0.101-0.098-0.146-0.147
			c-0.053-0.053-0.104-0.104-0.156-0.156c-0.049-0.049-0.096-0.098-0.145-0.147c-0.051-0.049-0.103-0.098-0.15-0.149
			c-0.049-0.054-0.104-0.105-0.153-0.158c-0.046-0.049-0.097-0.096-0.142-0.143c-0.055-0.053-0.108-0.105-0.158-0.156
			c-0.049-0.051-0.096-0.1-0.145-0.149c-0.048-0.051-0.103-0.1-0.147-0.149c-0.054-0.051-0.104-0.103-0.154-0.154
			c-0.05-0.049-0.1-0.098-0.146-0.147c-0.051-0.051-0.104-0.102-0.158-0.154c-0.047-0.049-0.096-0.098-0.143-0.145
			c-0.047-0.053-0.104-0.104-0.153-0.155c-0.046-0.049-0.101-0.098-0.147-0.148c-1.74-1.781-4.164-2.895-6.857-2.895
			c-0.594,0-1.174,0.088-1.735,0.201c0-0.002-0.005-0.006-0.009-0.008c-0.049-0.054-0.106-0.101-0.154-0.154
			c-0.046-0.051-0.1-0.096-0.146-0.147c-0.045-0.055-0.105-0.103-0.153-0.158c-0.046-0.049-0.097-0.092-0.142-0.141
			c-0.049-0.053-0.104-0.102-0.152-0.156c-0.049-0.053-0.104-0.1-0.154-0.153c-0.043-0.049-0.096-0.094-0.145-0.143
			c-0.045-0.055-0.104-0.104-0.153-0.16c-0.046-0.049-0.101-0.094-0.146-0.145c-0.047-0.053-0.104-0.102-0.154-0.155
			c-0.045-0.052-0.1-0.099-0.147-0.15c-0.044-0.051-0.103-0.098-0.149-0.149c-0.045-0.053-0.101-0.101-0.147-0.152
			c-0.046-0.053-0.101-0.098-0.147-0.149c-0.064-0.061-0.123-0.11-0.172-0.164c-0.047-0.049-0.099-0.094-0.143-0.143
			c-2.27-2.361-5.342-3.833-8.767-3.833c-5.392,0-9.925,3.644-11.297,8.597c-0.811-0.255-1.657-0.43-2.551-0.43
			c-4.712,0-8.533,3.821-8.533,8.533c0,2.396,0.994,4.553,2.583,6.1c0.049,0.051,0.098,0.102,0.15,0.148
			c0.051,0.052,0.1,0.105,0.153,0.152c0.047,0.045,0.096,0.098,0.145,0.142c0.051,0.054,0.103,0.108,0.158,0.158
			c0.047,0.05,0.098,0.1,0.147,0.147c0.049,0.047,0.098,0.1,0.149,0.147c0.05,0.05,0.101,0.104,0.152,0.153
			c0.051,0.049,0.102,0.101,0.153,0.147c0.049,0.048,0.101,0.103,0.152,0.147c0.047,0.051,0.094,0.101,0.143,0.146
			c0.051,0.053,0.104,0.104,0.158,0.156c0.049,0.048,0.098,0.102,0.149,0.146c0.049,0.051,0.098,0.102,0.149,0.15
			c0.051,0.048,0.104,0.1,0.154,0.15c0.047,0.045,0.096,0.098,0.145,0.146c0.051,0.05,0.102,0.104,0.153,0.149
			c0.052,0.053,0.101,0.104,0.152,0.154c0.047,0.045,0.096,0.096,0.145,0.142c0.051,0.055,0.102,0.106,0.156,0.159
			c0.047,0.045,0.096,0.096,0.145,0.144c0.051,0.048,0.102,0.106,0.153,0.151c0.049,0.051,0.101,0.101,0.15,0.146
			c0.051,0.054,0.1,0.104,0.153,0.154c0.049,0.05,0.1,0.101,0.152,0.147c0.047,0.047,0.096,0.098,0.145,0.144
			c0.051,0.053,0.104,0.108,0.157,0.163c0.047,0.044,0.097,0.096,0.146,0.14c0.051,0.048,0.102,0.104,0.153,0.151
			c0.049,0.051,0.1,0.104,0.151,0.15c0.05,0.049,0.099,0.1,0.15,0.146c0.049,0.053,0.098,0.104,0.149,0.148
			c0.049,0.051,0.1,0.104,0.152,0.153c0.051,0.05,0.106,0.125,0.157,0.175c0.047,0.047,0.096,0.096,0.147,0.145
			c0.052,0.048,0.099,0.102,0.15,0.148c0.051,0.049,0.102,0.104,0.155,0.153c0.047,0.048,0.096,0.097,0.148,0.146
			c0.051,0.051,0.1,0.104,0.153,0.149c0.049,0.05,0.098,0.103,0.149,0.149c0.05,0.049,0.101,0.105,0.154,0.152
			c0.047,0.049,0.096,0.096,0.145,0.145c0.051,0.05,0.105,0.105,0.158,0.158c0.049,0.045,0.1,0.101,0.151,0.146
			c0.047,0.052,0.096,0.101,0.145,0.146c0.052,0.051,0.103,0.104,0.156,0.154c0.047,0.049,0.096,0.096,0.143,0.145
			c0.051,0.052,0.104,0.105,0.158,0.156c0.049,0.049,0.096,0.098,0.147,0.146c0.049,0.05,0.1,0.104,0.151,0.149
			c0.05,0.051,0.101,0.101,0.152,0.15c0.049,0.051,0.098,0.1,0.149,0.149c0.049,0.048,0.1,0.101,0.154,0.153
			c0.051,0.054,0.1,0.104,0.149,0.151c0.051,0.052,0.102,0.104,0.155,0.156c0.05,0.046,0.097,0.096,0.148,0.142
			c0.049,0.051,0.098,0.102,0.147,0.15c0.051,0.05,0.104,0.104,0.158,0.154c0.049,0.05,0.1,0.1,0.151,0.148
			c0.047,0.049,0.094,0.096,0.143,0.141c0.051,0.052,0.1,0.104,0.154,0.156c0.049,0.045,0.098,0.102,0.149,0.149
			c0.051,0.05,0.102,0.104,0.156,0.149c0.047,0.045,0.094,0.096,0.141,0.142c0.053,0.055,0.106,0.108,0.159,0.163
			c0.047,0.044,0.094,0.096,0.144,0.14c0.051,0.052,0.103,0.106,0.158,0.158c0.049,0.048,0.098,0.101,0.149,0.147
			c0.05,0.045,0.097,0.096,0.148,0.142c0.051,0.055,0.102,0.108,0.155,0.159c0.047,0.045,0.096,0.096,0.146,0.142
			c0.051,0.052,0.104,0.104,0.157,0.158c0.047,0.048,0.094,0.096,0.143,0.14c0.051,0.053,0.105,0.108,0.158,0.156
			c0.049,0.05,0.098,0.1,0.149,0.148c0.049,0.051,0.1,0.102,0.152,0.146c0.051,0.051,0.1,0.104,0.153,0.152
			c0.049,0.05,0.098,0.102,0.147,0.146c0.049,0.049,0.099,0.1,0.15,0.146c0.051,0.054,0.1,0.105,0.151,0.152
			c0.049,0.049,0.098,0.104,0.15,0.15c0.051,0.05,0.104,0.104,0.158,0.152c0.047,0.047,0.096,0.098,0.145,0.146
			c0.049,0.047,0.101,0.1,0.152,0.148c0.049,0.049,0.098,0.098,0.146,0.146c0.051,0.051,0.102,0.104,0.156,0.157
			c0.049,0.048,0.098,0.097,0.147,0.144c0.049,0.051,0.098,0.101,0.147,0.146c0.051,0.055,0.105,0.107,0.158,0.158
			c0.047,0.046,0.094,0.097,0.143,0.142c0.051,0.054,0.104,0.108,0.158,0.159c0.047,0.046,0.096,0.096,0.145,0.145
			c0.049,0.047,0.1,0.1,0.153,0.151c0.049,0.048,0.098,0.101,0.15,0.149c0.049,0.046,0.098,0.101,0.149,0.146
			c0.051,0.052,0.102,0.104,0.155,0.154c0.05,0.048,0.099,0.101,0.148,0.146c0.049,0.053,0.1,0.104,0.151,0.151
			c0.049,0.048,0.096,0.099,0.147,0.146c0.054,0.051,0.105,0.109,0.161,0.158c0.047,0.049,0.096,0.1,0.145,0.146
			c0.049,0.05,0.099,0.1,0.15,0.149c0.049,0.047,0.1,0.101,0.151,0.146c0.049,0.052,0.1,0.104,0.152,0.152
			c0.049,0.047,0.098,0.1,0.147,0.144c0.051,0.054,0.102,0.106,0.155,0.158c0.049,0.048,0.096,0.096,0.148,0.144
			c0.051,0.053,0.102,0.106,0.155,0.156c0.047,0.046,0.094,0.096,0.143,0.143c0.052,0.053,0.105,0.107,0.158,0.155
			c0.049,0.048,0.1,0.103,0.151,0.149c0.047,0.049,0.096,0.097,0.146,0.141c0.053,0.055,0.104,0.107,0.16,0.162
			c0.047,0.046,0.094,0.096,0.143,0.143c0.052,0.051,0.103,0.104,0.156,0.153c0.049,0.048,0.098,0.101,0.147,0.146
			c0.008,0.009,0.016,0.021,0.024,0.029L28.96,55.15l0.255-0.26l-0.104,0.406l0.256-0.262l-0.105,0.412l0.256-0.26l-0.104,0.485
			l0.256-0.258l-0.105,0.41l0.256-0.261l-0.104,0.41l0.255-0.263l-0.104,0.415l0.256-0.264l-0.105,0.41l0.254-0.26l-0.104,0.41
			l0.256-0.263l-0.105,0.414l0.258-0.263l-0.104,0.412l0.255-0.263l-0.104,0.41l0.256-0.261l-0.105,0.408l0.256-0.263l-0.104,0.412
			l0.256-0.263l-0.105,0.412l0.254-0.26l-0.104,0.41l0.255-0.263l-0.104,0.412l0.256-0.259l-0.105,0.406l0.256-0.263l-0.104,0.414
			l0.256-0.263l-0.105,0.408l0.256-0.258l-0.104,0.407l0.255-0.262l-0.104,0.411l0.254-0.258l-0.105,0.408l0.257-0.263l-0.104,0.412
			l0.256-0.261l-0.104,0.41l0.257-0.261l-0.104,0.406l0.256-0.263l-0.104,0.416l0.254-0.262l-0.104,0.409l0.26-0.262l-0.109,0.414
			l0.256-0.263l-0.104,0.41l0.256-0.261l-0.104,0.425l0.256-0.26l-0.104,0.41l0.256-0.262L33.8,60.02l0.257-0.262l-0.104,0.41
			l0.254-0.262l-0.108,0.408l0.258-0.26l-0.104,0.41l0.252-0.259L34.4,60.615l0.254-0.26l-0.105,0.408l0.258-0.263l-0.104,0.413
			l0.25-0.26l-0.104,0.406l0.258-0.26l-0.108,0.412l0.255-0.261l-0.104,0.405l0.263-0.183l-0.106,0.414l0.254-0.261l-0.104,0.41
			L35.7,61.5l-0.104,0.408l0.26-0.264l-0.108,0.416L36,61.8l-0.104,0.408l0.258-0.263l-0.107,0.412l0.254-0.262l-0.104,0.412
			l0.252-0.263l-0.104,0.409l0.258-0.262l-0.105,0.414l0.254-0.263l-0.104,0.412l0.256-0.263l-0.107,0.41l0.254-0.26l-0.105,0.407
			l0.259-0.263L37.096,63.4l0.254-0.258L37.258,63.5c0.018-0.004,0.033-0.008,0.047-0.008l0.195-0.2l-0.046,0.175
			C51.896,61.009,62.979,48.889,63.9,33.986z"/>
	</g>
	<g>
		<path fill="#6C7A89" d="M44.783,18.833c-0.825,0-1.612,0.136-2.375,0.33c-1.95-3.775-5.883-6.363-10.425-6.363
			c-5.392,0-9.925,3.644-11.297,8.597c-0.811-0.255-1.657-0.43-2.551-0.43c-4.712,0-8.533,3.821-8.533,8.533
			c0,4.713,3.821,8.533,8.533,8.533h1.289h25.12h0.241c5.303,0,9.602-4.301,9.602-9.6C54.387,23.132,50.088,18.833,44.783,18.833z"
			/>
		<polygon fill="#F5AB35" points="37.167,46.908 33.404,46.908 35.033,40.514 26.833,48.889 30.596,48.889 28.969,55.283 		"/>
	</g>
</g>
</svg>
