<?xml version="1.0" encoding="utf-8"?>
<!-- Generator: Adobe Illustrator 16.0.0, SVG Export Plug-In . SVG Version: 6.00 Build 0)  -->
<!DOCTYPE svg PUBLIC "-//W3C//DTD SVG 1.1//EN" "http://www.w3.org/Graphics/SVG/1.1/DTD/svg11.dtd">
<svg version="1.1" id="RAINY" xmlns="http://www.w3.org/2000/svg" xmlns:xlink="http://www.w3.org/1999/xlink" x="0px" y="0px"
	 width="64px" height="64px" viewBox="0 0 64 64" enable-background="new 0 0 64 64" xml:space="preserve">
<g>
	<g id="day_bg_3_">
		<g>
			<circle fill="#89C4F4" cx="32" cy="32" r="32"/>
		</g>
		<g>
			<path fill="#6BB9F0" d="M32,64c17.673,0,32-14.327,32-32S49.673,0,32,0V64z"/>
		</g>
	</g>
	<defs>
		<filter id="Adobe_OpacityMaskFilter" filterUnits="userSpaceOnUse" x="8.03" y="14.933" width="55.762" height="49.051">
			<feColorMatrix  type="matrix" values="1 0 0 0 0  0 1 0 0 0  0 0 1 0 0  0 0 0 1 0"/>
		</filter>
	</defs>
	<mask maskUnits="userSpaceOnUse" x="8.03" y="14.933" width="55.762" height="49.051" id="SVGID_1_">
		<g filter="url(#Adobe_OpacityMaskFilter)">
			<g>
				
					<radialGradient id="SVGID_2_" cx="402.7705" cy="-781.5986" r="37.333" gradientTransform="matrix(1 0 0 -1 -373.9707 -752.7988)" gradientUnits="userSpaceOnUse">
					<stop  offset="0" style="stop-color:#FFFFFF"/>
					<stop  offset="0.1126" style="stop-color:#E8E8E8"/>
					<stop  offset="0.3492" style="stop-color:#ADADAD"/>
					<stop  offset="0.6869" style="stop-color:#4E4E4E"/>
					<stop  offset="0.9519" style="stop-color:#000000"/>
				</radialGradient>
				<circle fill="url(#SVGID_2_)" cx="28.8" cy="28.8" r="37.333"/>
			</g>
		</g>
	</mask>
	<g opacity="0.2" mask="url(#SVGID_1_)">
		<path fill="#1A171B" d="M63.792,35.542c-0.024-0.028-0.054-0.056-0.079-0.082c-0.051-0.052-0.102-0.103-0.15-0.147
			c-0.049-0.054-0.1-0.104-0.149-0.153s-0.104-0.104-0.158-0.152c-0.044-0.043-0.096-0.098-0.142-0.144
			c-0.047-0.051-0.1-0.102-0.146-0.149c-0.05-0.051-0.105-0.101-0.154-0.149c-0.047-0.049-0.1-0.104-0.149-0.15
			c-0.05-0.051-0.101-0.104-0.151-0.152c-0.048-0.047-0.099-0.102-0.148-0.146c-0.045-0.052-0.1-0.104-0.146-0.151
			c-0.048-0.051-0.105-0.104-0.156-0.154c-0.045-0.045-0.094-0.096-0.142-0.142c-0.048-0.053-0.101-0.104-0.149-0.153
			c-0.049-0.051-0.101-0.102-0.152-0.15c-0.049-0.055-0.1-0.104-0.151-0.154c-0.046-0.048-0.101-0.1-0.147-0.146
			c-0.049-0.049-0.098-0.099-0.147-0.147c-0.046-0.052-0.101-0.103-0.149-0.153c-0.049-0.05-0.101-0.101-0.15-0.148
			c-0.051-0.053-0.1-0.105-0.153-0.156c-0.046-0.049-0.097-0.096-0.142-0.145c-0.053-0.052-0.104-0.103-0.154-0.154
			c-0.048-0.049-0.102-0.099-0.146-0.147c-0.049-0.053-0.104-0.104-0.157-0.157c-0.046-0.05-0.097-0.099-0.142-0.146
			c-0.051-0.053-0.101-0.102-0.154-0.153c-0.047-0.049-0.096-0.098-0.146-0.147c-0.048-0.052-0.1-0.103-0.15-0.154
			c-0.049-0.053-0.104-0.104-0.155-0.155c-0.048-0.049-0.097-0.097-0.144-0.146c-0.047-0.051-0.103-0.102-0.149-0.153
			c-0.05-0.049-0.101-0.098-0.15-0.147c-0.046-0.051-0.1-0.103-0.149-0.154c-0.051-0.049-0.098-0.1-0.146-0.146
			c-0.052-0.053-0.107-0.106-0.162-0.161c-0.044-0.049-0.092-0.096-0.14-0.143c-0.048-0.053-0.104-0.104-0.152-0.155
			c-0.046-0.05-0.096-0.097-0.142-0.144c-0.055-0.053-0.108-0.106-0.16-0.16c-0.048-0.049-0.1-0.097-0.145-0.145
			c-0.049-0.054-0.104-0.104-0.153-0.154c-0.046-0.049-0.097-0.098-0.147-0.147c-0.049-0.051-0.101-0.103-0.147-0.154
			c-0.052-0.051-0.103-0.1-0.15-0.149c-0.048-0.051-0.104-0.1-0.149-0.152c-0.051-0.049-0.101-0.098-0.146-0.147
			c-0.054-0.053-0.104-0.104-0.154-0.153c-0.048-0.052-0.104-0.103-0.152-0.154c-0.043-0.049-0.096-0.096-0.139-0.143
			c-0.051-0.053-0.107-0.106-0.158-0.157c-0.051-0.05-0.101-0.099-0.146-0.148c-0.05-0.051-0.104-0.102-0.154-0.153
			c-0.045-0.049-0.1-0.099-0.146-0.148c-0.052-0.053-0.104-0.102-0.152-0.153c-0.048-0.049-0.102-0.098-0.147-0.147
			c-0.051-0.051-0.103-0.103-0.149-0.152c-0.05-0.051-0.101-0.1-0.149-0.151c-0.049-0.049-0.101-0.098-0.146-0.148
			c-0.05-0.053-0.104-0.104-0.154-0.155c-0.048-0.051-0.1-0.102-0.154-0.151c-0.043-0.05-0.096-0.099-0.144-0.148
			c-0.048-0.051-0.104-0.102-0.151-0.153c-0.045-0.049-0.101-0.098-0.149-0.149c-0.046-0.05-0.097-0.101-0.146-0.15
			c-0.052-0.053-0.104-0.104-0.154-0.155c-1.334-1.371-3.184-2.226-5.238-2.226c-0.458,0-0.896,0.065-1.325,0.153
			c-0.008-0.008-0.017-0.017-0.026-0.025c-0.049-0.052-0.103-0.099-0.147-0.15c-0.048-0.051-0.104-0.098-0.147-0.149
			c-0.049-0.051-0.105-0.101-0.153-0.152c-0.044-0.051-0.101-0.098-0.148-0.149c-0.046-0.051-0.1-0.1-0.149-0.151
			c-0.049-0.054-0.106-0.101-0.152-0.152c-0.046-0.051-0.1-0.098-0.146-0.149c-0.047-0.055-0.104-0.102-0.153-0.156
			c-0.048-0.051-0.104-0.098-0.148-0.146c-0.048-0.051-0.1-0.098-0.147-0.149c-0.045-0.052-0.1-0.098-0.147-0.15
			c-0.049-0.054-0.106-0.103-0.157-0.156c-1.633-1.783-3.966-2.903-6.574-2.903c-1.254,0-2.434,0.283-3.512,0.75
			c-0.205-0.017-0.4-0.062-0.609-0.062c-0.457,0-0.891,0.065-1.322,0.153c-0.01-0.011-0.021-0.019-0.031-0.029
			c-0.044-0.051-0.096-0.096-0.144-0.146c-0.044-0.051-0.103-0.098-0.15-0.149c-0.048-0.053-0.104-0.102-0.151-0.155
			c-0.047-0.052-0.102-0.099-0.15-0.15c-0.049-0.053-0.104-0.1-0.15-0.151c-0.048-0.051-0.101-0.096-0.146-0.147
			c-0.049-0.054-0.104-0.103-0.154-0.154c-0.049-0.053-0.103-0.1-0.151-0.151c-0.047-0.051-0.1-0.099-0.148-0.148
			c-0.048-0.053-0.104-0.1-0.152-0.151c-0.047-0.053-0.102-0.1-0.151-0.152c-0.047-0.051-0.101-0.098-0.15-0.147
			c-1.737-1.822-4.076-2.944-6.686-2.944c-4.102,0-7.552,2.771-8.598,6.541c-0.619-0.194-1.262-0.328-1.946-0.328
			c-3.584,0-6.492,2.907-6.492,6.494c0,1.83,0.764,3.477,1.983,4.657c0.049,0.051,0.101,0.102,0.154,0.153
			c0.049,0.051,0.1,0.1,0.151,0.149c0.047,0.051,0.096,0.101,0.147,0.148c0.052,0.053,0.103,0.104,0.156,0.154
			c0.049,0.05,0.096,0.1,0.146,0.147c0.049,0.054,0.101,0.103,0.152,0.152c0.051,0.05,0.102,0.101,0.153,0.153
			c0.049,0.049,0.1,0.101,0.15,0.146c0.049,0.046,0.098,0.1,0.146,0.146c0.049,0.049,0.1,0.1,0.151,0.148
			c0.049,0.053,0.098,0.102,0.152,0.152c0.049,0.052,0.1,0.102,0.151,0.152c0.049,0.053,0.1,0.102,0.151,0.148
			c0.05,0.05,0.101,0.104,0.152,0.15c0.049,0.05,0.1,0.102,0.151,0.148c0.049,0.051,0.098,0.104,0.15,0.146
			c0.049,0.052,0.1,0.104,0.151,0.152c0.047,0.047,0.096,0.102,0.147,0.146c0.052,0.05,0.101,0.104,0.154,0.154
			c0.049,0.047,0.1,0.1,0.151,0.146c0.049,0.049,0.098,0.104,0.15,0.148c0.049,0.05,0.1,0.102,0.151,0.148
			c0.051,0.051,0.1,0.104,0.153,0.154c0.05,0.046,0.099,0.102,0.15,0.148c0.049,0.047,0.098,0.1,0.149,0.146
			c0.049,0.048,0.098,0.102,0.15,0.15c0.051,0.049,0.102,0.104,0.155,0.152c0.047,0.047,0.096,0.098,0.145,0.143
			c0.055,0.063,0.106,0.113,0.158,0.164c0.049,0.05,0.098,0.1,0.149,0.146c0.049,0.049,0.098,0.104,0.147,0.148
			C14.737,37,14.789,37.05,14.839,37.1c0.049,0.049,0.1,0.102,0.151,0.148c0.049,0.052,0.099,0.1,0.15,0.146
			c0.049,0.051,0.098,0.104,0.149,0.146c0.051,0.055,0.1,0.104,0.153,0.154c0.05,0.05,0.099,0.104,0.15,0.148
			c0.049,0.051,0.098,0.104,0.149,0.15c0.049,0.048,0.1,0.1,0.152,0.146c0.049,0.053,0.1,0.106,0.151,0.152
			c0.049,0.051,0.1,0.102,0.151,0.15c0.05,0.05,0.101,0.1,0.152,0.148c0.049,0.051,0.098,0.102,0.149,0.148
			c0.049,0.052,0.1,0.102,0.152,0.15c0.049,0.049,0.098,0.102,0.149,0.146c0.051,0.054,0.102,0.104,0.153,0.157
			c0.05,0.049,0.099,0.097,0.148,0.145c0.049,0.051,0.1,0.1,0.151,0.148c0.049,0.052,0.1,0.102,0.152,0.15
			c0.051,0.051,0.103,0.104,0.155,0.154c0.047,0.05,0.096,0.098,0.145,0.146c0.049,0.047,0.101,0.101,0.152,0.147
			c0.049,0.052,0.1,0.104,0.151,0.151c0.051,0.051,0.1,0.103,0.154,0.15c0.049,0.049,0.098,0.1,0.147,0.145
			c0.051,0.052,0.1,0.105,0.153,0.154c0.049,0.051,0.099,0.102,0.15,0.15c0.049,0.048,0.1,0.1,0.151,0.146
			c0.049,0.049,0.096,0.104,0.147,0.148c0.052,0.051,0.103,0.105,0.156,0.154c0.049,0.05,0.098,0.1,0.151,0.146
			c0.049,0.049,0.099,0.1,0.148,0.149c0.051,0.05,0.102,0.104,0.155,0.153c0.049,0.049,0.098,0.097,0.147,0.145
			c0.05,0.055,0.101,0.105,0.152,0.154c0.049,0.048,0.098,0.1,0.149,0.146c0.049,0.051,0.098,0.1,0.152,0.146
			c0.049,0.055,0.098,0.104,0.149,0.154c0.03,0.028,0.051,0.063,0.082,0.092c-0.534-0.088-1.061,0.225-1.201,0.759l-2.208,8.282
			c-0.12,0.441,0.063,0.889,0.41,1.139c0.047,0.051,0.089,0.107,0.15,0.146c0.049,0.055,0.091,0.11,0.151,0.152
			c0.047,0.051,0.09,0.105,0.147,0.146c0.05,0.052,0.095,0.111,0.154,0.154c0.049,0.049,0.089,0.104,0.149,0.146
			c0.049,0.056,0.091,0.108,0.152,0.149c0.049,0.053,0.092,0.11,0.151,0.154c0.049,0.051,0.092,0.108,0.154,0.146
			c0.047,0.049,0.09,0.111,0.147,0.145c0.049,0.055,0.092,0.115,0.153,0.154c0.047,0.05,0.089,0.107,0.148,0.148
			c0.049,0.051,0.094,0.109,0.153,0.15c0.047,0.055,0.09,0.107,0.149,0.15c0.05,0.05,0.092,0.107,0.154,0.15
			c0.049,0.049,0.092,0.107,0.151,0.148c0.047,0.05,0.092,0.105,0.15,0.146c0.047,0.051,0.092,0.111,0.149,0.148
			c0.049,0.05,0.091,0.107,0.149,0.152c0.049,0.052,0.094,0.107,0.154,0.152c0.049,0.047,0.092,0.104,0.149,0.146
			c0.049,0.052,0.092,0.109,0.154,0.15c0.047,0.047,0.09,0.107,0.149,0.144c0.049,0.065,0.092,0.126,0.152,0.166
			c0.049,0.052,0.091,0.108,0.152,0.149c0.047,0.051,0.092,0.108,0.151,0.15c0.047,0.053,0.09,0.107,0.15,0.15
			c0.049,0.05,0.094,0.107,0.153,0.148c0.047,0.051,0.09,0.105,0.147,0.146c0.049,0.055,0.094,0.113,0.154,0.154
			c0.047,0.051,0.089,0.108,0.146,0.146c0.05,0.054,0.094,0.111,0.155,0.154c0.047,0.05,0.09,0.104,0.147,0.146
			c0.049,0.052,0.094,0.112,0.155,0.151c0.047,0.053,0.089,0.111,0.15,0.15c0.047,0.047,0.092,0.107,0.151,0.147
			c0.047,0.054,0.09,0.108,0.149,0.149c0.048,0.051,0.09,0.107,0.15,0.149c0.049,0.05,0.091,0.108,0.153,0.149
			c0.047,0.053,0.09,0.107,0.15,0.147c0.049,0.052,0.092,0.11,0.151,0.15c0.047,0.052,0.089,0.108,0.149,0.151
			c0.05,0.051,0.092,0.107,0.152,0.149c0.049,0.05,0.094,0.108,0.153,0.149c0.047,0.051,0.092,0.107,0.152,0.149
			c0.047,0.048,0.09,0.106,0.147,0.146c0.049,0.054,0.094,0.113,0.153,0.152c0.048,0.053,0.089,0.108,0.15,0.148
			c0.049,0.05,0.094,0.109,0.153,0.148c0.047,0.056,0.089,0.108,0.148,0.15c0.049,0.051,0.094,0.107,0.153,0.148
			c0.049,0.056,0.092,0.113,0.151,0.15c0.05,0.053,0.093,0.108,0.152,0.152c0.047,0.048,0.089,0.105,0.149,0.146
			c0.047,0.051,0.089,0.106,0.148,0.146c0.049,0.055,0.094,0.111,0.155,0.152c0.047,0.052,0.089,0.104,0.149,0.148
			c0.047,0.053,0.092,0.11,0.152,0.146c0.049,0.054,0.092,0.113,0.151,0.152c0.049,0.053,0.091,0.11,0.15,0.15
			c0.049,0.052,0.092,0.107,0.151,0.146c0.047,0.051,0.09,0.108,0.149,0.15c0.049,0.055,0.092,0.107,0.152,0.148
			c0.049,0.056,0.094,0.109,0.153,0.15c0.047,0.053,0.09,0.108,0.15,0.15c0.049,0.052,0.091,0.107,0.153,0.15
			c0.047,0.049,0.09,0.104,0.149,0.148c0.049,0.05,0.092,0.109,0.152,0.148c0.047,0.052,0.089,0.108,0.149,0.146
			c0.047,0.055,0.091,0.107,0.15,0.148c0.049,0.056,0.092,0.113,0.149,0.15c0.049,0.053,0.094,0.112,0.153,0.152
			c0.049,0.052,0.091,0.109,0.15,0.146c0.033,0.041,0.07,0.071,0.104,0.106c1.229,0.272,2.445,0.36,3.687,0.36
			C48.475,64,62.029,51.546,63.792,35.542z"/>
	</g>
	<g>
		<g>
			<path fill="#DFE0E1" d="M34.8,19.522c-0.625,0-1.221,0.105-1.806,0.252c-1.483-2.872-4.476-4.841-7.932-4.841
				c-4.102,0-7.552,2.771-8.598,6.541c-0.615-0.194-1.258-0.328-1.942-0.328c-3.584,0-6.492,2.907-6.492,6.494
				c0,3.584,2.907,6.491,6.492,6.491h0.983h19.111H34.8c4.038,0,7.31-3.271,7.31-7.304C42.107,22.795,38.838,19.522,34.8,19.522z"/>
			<path fill="#FFFFFF" d="M48.667,23.422c-0.63,0-1.229,0.104-1.812,0.252c-1.48-2.874-4.476-4.843-7.932-4.843
				c-4.102,0-7.552,2.771-8.598,6.541c-0.617-0.194-1.26-0.33-1.943-0.33c-3.584,0-6.492,2.909-6.492,6.495
				c0,3.583,2.907,6.492,6.492,6.492h0.981h19.115h0.183c4.036,0,7.305-3.271,7.305-7.305C55.967,26.69,52.698,23.422,48.667,23.422
				z"/>
		</g>
		<path fill="#CCF1FE" d="M27.623,52.217c-0.152,0.573-0.739,0.908-1.306,0.756l0,0c-0.57-0.154-0.906-0.738-0.755-1.306
			l2.208-8.242c0.151-0.569,0.737-0.907,1.305-0.754l0,0c0.572,0.149,0.907,0.741,0.755,1.304L27.623,52.217z M38.441,43.971
			c0.149-0.566-0.188-1.154-0.754-1.304l0,0c-0.576-0.149-1.154,0.187-1.305,0.754l-2.205,8.241c-0.152,0.57,0.18,1.154,0.754,1.309
			l0,0c0.567,0.15,1.15-0.186,1.305-0.754L38.441,43.971z M47.05,43.971c0.15-0.566-0.188-1.154-0.754-1.304l0,0
			c-0.575-0.149-1.153,0.187-1.308,0.754l-2.205,8.241c-0.154,0.57,0.184,1.154,0.754,1.309l0,0c0.568,0.15,1.152-0.186,1.305-0.754
			L47.05,43.971z M21.223,43.971c0.151-0.566-0.187-1.154-0.755-1.304l0,0c-0.57-0.149-1.154,0.187-1.306,0.754l-2.208,8.241
			c-0.153,0.57,0.185,1.154,0.753,1.309l0,0c0.57,0.15,1.154-0.186,1.307-0.754L21.223,43.971z"/>
	</g>
</g>
</svg>
