<?xml version="1.0" encoding="utf-8"?>
<!-- Generator: Adobe Illustrator 16.0.0, SVG Export Plug-In . SVG Version: 6.00 Build 0)  -->
<!DOCTYPE svg PUBLIC "-//W3C//DTD SVG 1.1//EN" "http://www.w3.org/Graphics/SVG/1.1/DTD/svg11.dtd">
<svg version="1.1" id="RAINY" xmlns="http://www.w3.org/2000/svg" xmlns:xlink="http://www.w3.org/1999/xlink" x="0px" y="0px"
	 width="64px" height="64px" viewBox="0 0 64 64" enable-background="new 0 0 64 64" xml:space="preserve">
<g>
	<g id="day_bg_4_">
		<g>
			<circle fill="#89C4F4" cx="32" cy="32" r="32"/>
		</g>
		<g>
			<path fill="#6BB9F0" d="M32,64c17.673,0,32-14.327,32-32S49.673,0,32,0V64z"/>
		</g>
	</g>
	<defs>
		<filter id="Adobe_OpacityMaskFilter" filterUnits="userSpaceOnUse" x="9.609" y="12.8" width="54.292" height="50.974">
			<feColorMatrix  type="matrix" values="1 0 0 0 0  0 1 0 0 0  0 0 1 0 0  0 0 0 1 0"/>
		</filter>
	</defs>
	<mask maskUnits="userSpaceOnUse" x="9.609" y="12.8" width="54.292" height="50.974" id="SVGID_1_">
		<g filter="url(#Adobe_OpacityMaskFilter)">
			<g>
				
					<radialGradient id="SVGID_2_" cx="402.7705" cy="-781.5986" r="37.333" gradientTransform="matrix(1 0 0 -1 -373.9707 -752.7988)" gradientUnits="userSpaceOnUse">
					<stop  offset="0" style="stop-color:#FFFFFF"/>
					<stop  offset="0.1126" style="stop-color:#E8E8E8"/>
					<stop  offset="0.3492" style="stop-color:#ADADAD"/>
					<stop  offset="0.6869" style="stop-color:#4E4E4E"/>
					<stop  offset="0.9519" style="stop-color:#000000"/>
				</radialGradient>
				<circle fill="url(#SVGID_2_)" cx="28.8" cy="28.8" r="37.333"/>
			</g>
		</g>
	</mask>
	<g opacity="0.2" mask="url(#SVGID_1_)">
		<path d="M63.9,33.979c-0.01-0.006-0.018-0.015-0.025-0.022c-0.048-0.052-0.1-0.103-0.15-0.151
			c-0.05-0.055-0.102-0.104-0.152-0.154c-0.051-0.051-0.1-0.101-0.15-0.147c-0.046-0.048-0.1-0.103-0.148-0.151
			c-0.047-0.047-0.102-0.101-0.146-0.146c-0.046-0.053-0.1-0.104-0.15-0.152c-0.047-0.051-0.1-0.101-0.148-0.15
			c-0.051-0.051-0.102-0.102-0.148-0.149c-0.052-0.051-0.102-0.103-0.15-0.153c-0.047-0.052-0.102-0.101-0.15-0.149
			c-0.048-0.051-0.1-0.102-0.15-0.152c-0.045-0.053-0.1-0.102-0.148-0.152c-0.046-0.049-0.102-0.098-0.146-0.147
			c-0.05-0.051-0.1-0.1-0.148-0.151c-0.051-0.052-0.104-0.103-0.154-0.154c-0.05-0.049-0.098-0.098-0.146-0.146
			c-0.051-0.051-0.104-0.104-0.153-0.154c-0.046-0.049-0.099-0.096-0.142-0.145c-0.051-0.051-0.104-0.102-0.15-0.151
			c-0.051-0.054-0.104-0.105-0.154-0.156c-0.05-0.049-0.1-0.1-0.15-0.149c-0.049-0.049-0.1-0.098-0.148-0.148
			c-0.046-0.051-0.1-0.1-0.146-0.151c-0.049-0.051-0.104-0.102-0.152-0.153c-0.046-0.05-0.098-0.099-0.146-0.15
			c-0.049-0.051-0.101-0.098-0.146-0.149c-0.05-0.053-0.104-0.105-0.158-0.156c-0.05-0.051-0.099-0.1-0.149-0.149
			c-0.043-0.051-0.097-0.1-0.149-0.149c-0.044-0.051-0.097-0.101-0.144-0.15c-0.049-0.051-0.104-0.102-0.152-0.153
			c-0.047-0.049-0.1-0.098-0.146-0.15c-0.051-0.051-0.101-0.1-0.152-0.151c-0.047-0.051-0.103-0.102-0.151-0.153
			c-0.048-0.052-0.101-0.101-0.149-0.152c-0.049-0.049-0.101-0.098-0.147-0.147c-0.048-0.051-0.101-0.102-0.147-0.151
			c-0.051-0.052-0.103-0.101-0.149-0.152c-0.05-0.051-0.104-0.102-0.154-0.153c-0.046-0.049-0.096-0.099-0.146-0.148
			c-0.051-0.051-0.102-0.102-0.15-0.151c-0.048-0.051-0.1-0.102-0.146-0.152c-0.049-0.051-0.102-0.1-0.152-0.151
			c-0.047-0.051-0.1-0.1-0.15-0.149c-0.046-0.052-0.1-0.1-0.146-0.152c-0.049-0.051-0.104-0.102-0.151-0.151
			c-0.048-0.051-0.103-0.1-0.147-0.149c-0.047-0.05-0.101-0.101-0.147-0.15c-0.052-0.053-0.104-0.104-0.158-0.157
			c-0.044-0.049-0.096-0.097-0.14-0.144c-0.051-0.053-0.104-0.104-0.158-0.157c-0.046-0.049-0.096-0.096-0.146-0.145
			c-0.049-0.052-0.101-0.105-0.153-0.156c-0.044-0.049-0.097-0.096-0.142-0.145c-0.049-0.051-0.101-0.1-0.148-0.152
			c-0.053-0.053-0.107-0.104-0.156-0.157c-0.045-0.049-0.098-0.096-0.146-0.146c-0.049-0.054-0.104-0.104-0.153-0.156
			c-0.046-0.047-0.097-0.096-0.142-0.143c-0.055-0.053-0.108-0.105-0.158-0.159c-0.049-0.049-0.096-0.098-0.145-0.146
			c-0.048-0.051-0.101-0.1-0.152-0.151c-0.049-0.051-0.102-0.101-0.148-0.152c-0.051-0.051-0.102-0.102-0.15-0.151
			c-0.045-0.051-0.1-0.1-0.149-0.15c-0.046-0.049-0.101-0.1-0.146-0.149c-0.049-0.051-0.104-0.102-0.152-0.153
			c-0.049-0.05-0.103-0.101-0.149-0.15c-0.048-0.051-0.101-0.102-0.151-0.153c-0.061-0.055-0.11-0.104-0.16-0.153
			c-0.051-0.052-0.104-0.103-0.154-0.154c-0.046-0.049-0.096-0.1-0.146-0.149c-0.048-0.051-0.1-0.101-0.148-0.152
			c-0.049-0.051-0.102-0.102-0.152-0.151c-0.048-0.051-0.096-0.1-0.145-0.15c-0.051-0.051-0.106-0.102-0.154-0.153
			c-0.046-0.049-0.1-0.1-0.146-0.149c-0.049-0.052-0.104-0.104-0.153-0.153c-0.046-0.051-0.101-0.1-0.15-0.151
			c-0.048-0.051-0.096-0.1-0.147-0.149c-0.047-0.052-0.101-0.103-0.149-0.154c-1.743-1.781-4.164-2.893-6.858-2.893
			c-0.594,0-1.17,0.087-1.734,0.201c-0.004-0.005-0.014-0.009-0.018-0.016c-0.043-0.047-0.096-0.089-0.138-0.136
			c-0.046-0.055-0.108-0.106-0.159-0.163c-0.046-0.05-0.098-0.093-0.146-0.144c-0.046-0.053-0.103-0.1-0.15-0.151
			c-0.046-0.054-0.1-0.1-0.149-0.154c-0.045-0.053-0.104-0.1-0.153-0.153c-0.044-0.051-0.101-0.096-0.146-0.147
			c-0.043-0.054-0.101-0.101-0.147-0.152c-0.048-0.051-0.104-0.098-0.154-0.151c-0.044-0.051-0.1-0.099-0.144-0.15
			c-0.051-0.053-0.104-0.1-0.154-0.153c-0.046-0.051-0.1-0.096-0.146-0.145c-0.051-0.056-0.107-0.105-0.153-0.16
			c-0.046-0.049-0.097-0.092-0.142-0.139c-0.051-0.055-0.108-0.106-0.162-0.165c-0.043-0.049-0.096-0.092-0.139-0.139
			c-2.271-2.352-5.343-3.824-8.768-3.824c-5.391,0-9.924,3.644-11.298,8.597c-0.812-0.255-1.656-0.43-2.552-0.43
			c-4.712,0-8.533,3.821-8.533,8.533c0,2.394,0.993,4.55,2.579,6.1c0.051,0.051,0.103,0.104,0.156,0.152
			c0.049,0.048,0.098,0.104,0.149,0.148c0.051,0.045,0.098,0.1,0.149,0.146c0.05,0.052,0.101,0.104,0.152,0.154
			c0.049,0.048,0.098,0.1,0.146,0.146c0.052,0.055,0.102,0.104,0.157,0.154c0.047,0.048,0.096,0.1,0.145,0.146
			c0.051,0.051,0.104,0.104,0.155,0.153c0.05,0.046,0.097,0.099,0.148,0.142c0.051,0.056,0.102,0.108,0.153,0.154
			c0.049,0.053,0.098,0.102,0.15,0.15c0.049,0.05,0.098,0.1,0.151,0.148c0.049,0.051,0.1,0.104,0.151,0.15
			c0.049,0.049,0.097,0.1,0.148,0.146c0.051,0.049,0.102,0.107,0.155,0.156c0.047,0.047,0.096,0.098,0.145,0.143
			c0.052,0.052,0.103,0.105,0.156,0.154c0.049,0.051,0.096,0.102,0.146,0.146c0.051,0.055,0.104,0.104,0.156,0.154
			c0.049,0.048,0.1,0.1,0.151,0.146c0.047,0.049,0.096,0.104,0.145,0.146c0.05,0.048,0.101,0.103,0.152,0.152
			c0.049,0.049,0.098,0.1,0.146,0.146c0.051,0.051,0.103,0.104,0.156,0.155c0.049,0.049,0.096,0.1,0.147,0.146
			c0.051,0.052,0.102,0.104,0.155,0.158c0.05,0.046,0.101,0.101,0.152,0.146c0.049,0.047,0.096,0.098,0.146,0.146
			c0.049,0.051,0.1,0.104,0.154,0.15c0.047,0.049,0.096,0.1,0.147,0.146c0.051,0.053,0.102,0.105,0.155,0.156
			c0.05,0.051,0.099,0.099,0.148,0.146c0.055,0.071,0.106,0.125,0.157,0.174c0.049,0.049,0.099,0.101,0.15,0.146
			c0.049,0.051,0.1,0.104,0.151,0.15c0.049,0.049,0.1,0.104,0.152,0.149c0.049,0.05,0.096,0.101,0.147,0.146
			c0.049,0.051,0.1,0.104,0.151,0.15c0.051,0.055,0.103,0.105,0.154,0.153c0.049,0.053,0.1,0.104,0.151,0.151
			c0.047,0.045,0.096,0.097,0.145,0.141c0.052,0.055,0.105,0.107,0.158,0.158c0.049,0.05,0.1,0.101,0.151,0.15
			c0.049,0.045,0.096,0.096,0.148,0.141c0.051,0.055,0.102,0.109,0.153,0.154c0.049,0.053,0.098,0.101,0.149,0.147
			c0.05,0.052,0.099,0.106,0.15,0.149c0.051,0.049,0.1,0.104,0.153,0.151c0.049,0.052,0.101,0.101,0.152,0.15
			c0.049,0.05,0.1,0.1,0.151,0.149c0.049,0.051,0.096,0.101,0.147,0.146c0.05,0.048,0.101,0.1,0.152,0.154
			c0.051,0.047,0.1,0.1,0.153,0.146c0.049,0.053,0.098,0.104,0.15,0.148c0.049,0.05,0.098,0.1,0.147,0.148
			c0.049,0.051,0.096,0.102,0.147,0.146c0.053,0.054,0.107,0.107,0.163,0.158c0.047,0.049,0.096,0.1,0.147,0.146
			c0.049,0.054,0.098,0.101,0.15,0.147c0.053,0.059,0.101,0.113,0.153,0.154c0.049,0.051,0.098,0.104,0.147,0.15
			c0.051,0.05,0.103,0.104,0.156,0.154c0.049,0.05,0.096,0.1,0.147,0.146c0.051,0.054,0.102,0.104,0.156,0.154
			c0.049,0.048,0.096,0.1,0.146,0.144c0.051,0.053,0.102,0.106,0.153,0.154c0.049,0.052,0.099,0.1,0.15,0.146
			c0.049,0.051,0.098,0.102,0.149,0.15c0.051,0.051,0.1,0.104,0.154,0.15c0.045,0.045,0.084,0.086,0.129,0.133l-1.478,5.518
			c-0.12,0.44,0.061,0.883,0.407,1.133c0.049,0.055,0.094,0.112,0.154,0.154c0.049,0.051,0.09,0.104,0.149,0.146
			c0.047,0.052,0.09,0.107,0.15,0.148c0.049,0.053,0.094,0.108,0.155,0.152c0.047,0.048,0.09,0.104,0.145,0.145
			c0.049,0.055,0.094,0.114,0.154,0.153c0.049,0.05,0.094,0.108,0.153,0.149c0.047,0.051,0.09,0.109,0.15,0.15
			c0.047,0.051,0.09,0.107,0.149,0.145c0.049,0.053,0.092,0.113,0.151,0.152c0.047,0.053,0.089,0.11,0.15,0.147
			c0.049,0.054,0.092,0.11,0.151,0.149c0.047,0.055,0.092,0.108,0.151,0.149c0.048,0.056,0.092,0.112,0.152,0.149
			c0.049,0.055,0.092,0.109,0.151,0.15c0.049,0.053,0.092,0.107,0.15,0.147c0.049,0.052,0.091,0.11,0.153,0.153
			c0.047,0.049,0.09,0.104,0.147,0.145c0.05,0.055,0.093,0.111,0.152,0.152c0.049,0.052,0.092,0.109,0.151,0.15
			c0.049,0.051,0.092,0.108,0.152,0.15c0.047,0.05,0.09,0.107,0.149,0.146c0.047,0.053,0.092,0.112,0.151,0.151
			c0.05,0.052,0.091,0.11,0.152,0.147c0.047,0.055,0.092,0.11,0.149,0.154c0.049,0.051,0.092,0.104,0.152,0.145
			c0.047,0.055,0.091,0.113,0.151,0.15c0.047,0.051,0.089,0.107,0.149,0.149c0.047,0.052,0.092,0.108,0.152,0.147
			c0.049,0.053,0.091,0.109,0.151,0.151c0.047,0.05,0.089,0.106,0.15,0.146c0.049,0.056,0.092,0.113,0.151,0.154
			c0.049,0.051,0.092,0.108,0.151,0.15c0.047,0.05,0.091,0.107,0.15,0.146c0.047,0.053,0.089,0.111,0.149,0.149
			c0.047,0.05,0.092,0.112,0.151,0.151c0.048,0.053,0.093,0.109,0.152,0.147c0.049,0.056,0.092,0.108,0.153,0.154
			c0.047,0.05,0.09,0.104,0.148,0.146c0.049,0.055,0.092,0.11,0.151,0.15c0.049,0.052,0.091,0.107,0.149,0.148
			c0.05,0.054,0.093,0.108,0.152,0.148c0.049,0.053,0.092,0.109,0.153,0.152c0.047,0.05,0.089,0.105,0.148,0.146
			c0.049,0.053,0.091,0.111,0.153,0.151c0.047,0.052,0.092,0.108,0.149,0.147c0.05,0.055,0.095,0.111,0.156,0.153
			c0.047,0.05,0.09,0.108,0.145,0.146c0.049,0.052,0.094,0.113,0.154,0.15c0.047,0.055,0.089,0.11,0.149,0.15
			c0.049,0.052,0.094,0.107,0.156,0.15c0.047,0.053,0.089,0.106,0.147,0.148c0.049,0.05,0.091,0.107,0.149,0.148
			c0.049,0.052,0.091,0.108,0.152,0.148c0.049,0.053,0.094,0.114,0.153,0.154c0.047,0.048,0.091,0.105,0.149,0.146
			c0.047,0.049,0.089,0.104,0.148,0.146c0.049,0.054,0.094,0.111,0.153,0.152c0.049,0.051,0.092,0.106,0.152,0.15
			c0.049,0.049,0.091,0.107,0.151,0.146c0.047,0.055,0.09,0.113,0.149,0.152c0.047,0.047,0.092,0.105,0.15,0.147
			c0.049,0.052,0.092,0.11,0.151,0.149c0.049,0.055,0.091,0.107,0.154,0.151c0.047,0.052,0.09,0.106,0.147,0.147
			c0.047,0.051,0.092,0.107,0.151,0.149c0.049,0.05,0.091,0.108,0.152,0.147c0.049,0.053,0.092,0.115,0.151,0.152
			c0.049,0.049,0.091,0.107,0.152,0.149c0.047,0.05,0.09,0.104,0.149,0.146c0.049,0.055,0.094,0.112,0.155,0.154
			c0.047,0.051,0.09,0.105,0.146,0.146c0.049,0.053,0.094,0.111,0.154,0.152c0.045,0.043,0.086,0.102,0.137,0.135
			c2.34-0.059,4.606-0.396,6.795-0.93c0.004,0.004,0.012,0.014,0.017,0.018c0.346-0.088,0.683-0.202,1.028-0.301
			c0.479-0.133,0.961-0.256,1.43-0.412c0.046-0.012,0.088-0.033,0.131-0.043c1.382-0.469,2.715-1.039,4.009-1.681
			c0.206-0.103,0.41-0.19,0.614-0.302c0.559-0.292,1.1-0.607,1.634-0.934c0.222-0.133,0.45-0.266,0.669-0.404
			c0.521-0.331,1.035-0.686,1.547-1.051c0.205-0.146,0.4-0.299,0.607-0.453c0.502-0.383,1.006-0.774,1.484-1.191
			c0.162-0.143,0.32-0.292,0.487-0.434c0.362-0.325,0.746-0.633,1.093-0.975c-0.01-0.01-0.021-0.018-0.029-0.027
			C59.827,49.471,63.396,42.15,63.9,33.979z"/>
	</g>
	<g>
		<path fill="#FFFFFF" d="M44.792,18.833c-0.825,0-1.612,0.136-2.375,0.33c-1.95-3.775-5.884-6.363-10.425-6.363
			c-5.391,0-9.924,3.644-11.298,8.597c-0.812-0.255-1.656-0.43-2.552-0.43c-4.712,0-8.533,3.821-8.533,8.533
			c0,4.713,3.821,8.533,8.533,8.533h1.288h25.118h0.242c5.302,0,9.601-4.301,9.601-9.6C54.391,23.132,50.096,18.833,44.792,18.833z"
			/>
		<path fill="#CCF1FE" d="M31.925,52.217c-0.151,0.573-0.737,0.908-1.305,0.756l0,0c-0.57-0.154-0.906-0.738-0.755-1.306
			l2.208-8.242c0.152-0.569,0.737-0.907,1.307-0.754l0,0c0.571,0.149,0.904,0.741,0.755,1.304L31.925,52.217z M42.744,43.971
			c0.15-0.566-0.186-1.154-0.758-1.304l0,0c-0.569-0.149-1.153,0.187-1.303,0.754l-2.207,8.241c-0.153,0.57,0.184,1.154,0.756,1.309
			l0,0c0.57,0.15,1.154-0.186,1.305-0.754L42.744,43.971z M25.525,43.971c0.152-0.566-0.186-1.154-0.755-1.304l0,0
			c-0.569-0.149-1.154,0.187-1.306,0.754l-2.208,8.241c-0.153,0.57,0.183,1.154,0.755,1.309l0,0c0.57,0.15,1.154-0.186,1.307-0.754
			L25.525,43.971z"/>
	</g>
</g>
</svg>
