<?xml version="1.0" encoding="utf-8"?>
<!-- Generator: Adobe Illustrator 16.0.0, SVG Export Plug-In . SVG Version: 6.00 Build 0)  -->
<!DOCTYPE svg PUBLIC "-//W3C//DTD SVG 1.1//EN" "http://www.w3.org/Graphics/SVG/1.1/DTD/svg11.dtd">
<svg version="1.1" id="SUNNY" xmlns="http://www.w3.org/2000/svg" xmlns:xlink="http://www.w3.org/1999/xlink" x="0px" y="0px"
	 width="64px" height="64px" viewBox="0 0 64 64" enable-background="new 0 0 64 64" xml:space="preserve">
<g>
	<g id="day_bg_6_">
		<g>
			<circle fill="#89C4F4" cx="32" cy="32" r="32"/>
		</g>
		<g>
			<path fill="#6BB9F0" d="M32,64c17.673,0,32-14.327,32-32S49.673,0,32,0V64z"/>
		</g>
	</g>
	<defs>
		<filter id="Adobe_OpacityMaskFilter" filterUnits="userSpaceOnUse" x="12.267" y="12.268" width="51.471" height="51.473">
			<feColorMatrix  type="matrix" values="1 0 0 0 0  0 1 0 0 0  0 0 1 0 0  0 0 0 1 0"/>
		</filter>
	</defs>
	<mask maskUnits="userSpaceOnUse" x="12.267" y="12.268" width="51.471" height="51.473" id="_x3C_Tracciato_x3E__2_">
		<g filter="url(#Adobe_OpacityMaskFilter)">
			<g>
				
					<radialGradient id="SVGID_1_" cx="70.7803" cy="590.999" r="37.333" gradientTransform="matrix(1 0 0 1 -41.9805 -562.1992)" gradientUnits="userSpaceOnUse">
					<stop  offset="0" style="stop-color:#FFFFFF"/>
					<stop  offset="0.2394" style="stop-color:#B2B2B2"/>
					<stop  offset="0.496" style="stop-color:#676767"/>
					<stop  offset="0.7089" style="stop-color:#2F2F2F"/>
					<stop  offset="0.8666" style="stop-color:#0D0D0D"/>
					<stop  offset="0.9519" style="stop-color:#000000"/>
				</radialGradient>
				<circle fill="url(#SVGID_1_)" cx="28.8" cy="28.8" r="37.333"/>
			</g>
		</g>
	</mask>
	<g id="_x3C_Tracciato_x3E_" opacity="0.2" mask="url(#_x3C_Tracciato_x3E__2_)">
		<path d="M36.018,63.721l0.004-0.017l-0.188,0.037l0.038-0.188l-0.188,0.038l0.039-0.188l-0.189,0.037l0.037-0.188l-0.188,0.038
			l0.037-0.188l-0.188,0.037l0.037-0.188l-0.188,0.038l0.038-0.188l-0.188,0.038l0.036-0.188l-0.188,0.037l0.041-0.188l-0.189,0.04
			l0.037-0.188l-0.188,0.037l0.037-0.188l-0.188,0.036l0.038-0.188l-0.188,0.04l0.036-0.188l-0.188,0.037l0.039-0.188l-0.188,0.038
			l0.037-0.189l-0.188,0.039l0.037-0.188l-0.188,0.037l0.037-0.191l-0.188,0.04l0.037-0.188l-0.188,0.039l0.039-0.188l-0.188,0.038
			l0.037-0.188l-0.188,0.037l0.039-0.189l-0.188,0.039l0.038-0.188l-0.188,0.04l0.037-0.191l-0.189,0.039l0.039-0.188l-0.188,0.04
			l0.038-0.188l-0.188,0.039l0.039-0.189l-0.188,0.037l0.038-0.19l-0.188,0.04l0.038-0.188l-0.188,0.039l0.049-0.186l-0.216,0.021
			l0.039-0.188l-0.188,0.038l0.039-0.188l-0.188,0.037l0.038-0.189l-0.188,0.039l0.039-0.188l-0.188,0.037l0.039-0.188l-0.188,0.037
			l0.039-0.189l-0.19,0.04l0.039-0.188l-0.188,0.037l0.039-0.188l-0.188,0.037l0.039-0.189l-0.188,0.04l0.039-0.188l-0.188,0.037
			l0.038-0.19l-0.188,0.04l0.039-0.188l-0.188,0.039l0.039-0.189l-0.203,0.029l0.039-0.188l-0.19,0.037l0.039-0.191l-0.188,0.04
			l0.039-0.188l-0.188,0.039l0.039-0.19l-0.188,0.039l0.039-0.188l-0.188,0.039l0.039-0.188l-0.188,0.039l0.039-0.191l-0.188,0.038
			l0.037-0.188l-0.188,0.039l0.039-0.188l-0.188,0.04l0.039-0.192l-0.188,0.039l0.038-0.189l-0.188,0.039l0.039-0.188l-0.188,0.04
			l0.039-0.19l-0.188,0.037l0.024-0.191l-0.188,0.037l0.039-0.191L27.4,55.297l0.039-0.188l-0.188,0.039l0.039-0.188l-0.188,0.037
			l0.038-0.188l-0.188,0.037l0.039-0.188l-0.188,0.038l0.039-0.188l-0.188,0.037l0.038-0.191L26.5,54.402l0.039-0.188l-0.188,0.039
			l0.039-0.188l-0.188,0.039l0.038-0.192l-0.188,0.04l0.039-0.188l-0.188,0.039l0.039-0.189l-0.189,0.039l0.039-0.19l-0.188,0.039
			l0.039-0.188l-0.188,0.039l0.039-0.188l-0.188,0.039l0.039-0.191l-0.188,0.039l0.039-0.189l-0.188,0.041l0.038-0.189l-0.189,0.037
			l0.039-0.188L24.708,52.6l0.039-0.188l-0.188,0.04l0.037-0.188l-0.188,0.039l0.039-0.191L24.26,52.15l0.039-0.188l-0.189,0.04
			l0.039-0.189l-0.188,0.037L24,51.662L23.813,51.7l0.039-0.188l-0.188,0.039l0.039-0.188l-0.188,0.039l0.039-0.19l-0.189,0.038
			l0.039-0.188l-0.189,0.039l0.039-0.189l-0.189,0.038l0.039-0.188L22.917,50.8l0.038-0.188l-0.188,0.041l0.039-0.189L22.618,50.5
			l0.039-0.188l-0.186,0.037l0.038-0.188L22.321,50.2l0.039-0.188l-0.188,0.039l0.039-0.189L22.022,49.9l0.039-0.188l-0.188,0.038
			l0.039-0.188L21.724,49.6l0.039-0.188l-0.189,0.038l0.039-0.188L21.425,49.3l0.039-0.188l-0.188,0.039l0.039-0.188L21.126,49
			l0.039-0.188l-0.188,0.037l0.039-0.188L20.828,48.7l0.038-0.188l-0.188,0.038l0.039-0.188L20.529,48.4l0.039-0.188l-0.189,0.038
			l0.038-0.188L20.23,48.1l0.039-0.188l-0.188,0.04l0.039-0.188L19.931,47.8l0.039-0.188l-0.188,0.039l0.039-0.188L19.633,47.5
			l0.039-0.188l-0.187,0.037l0.039-0.188L19.336,47.2l0.039-0.188l-0.187,0.038l0.039-0.188L19.038,46.9l0.039-0.188l-0.188,0.038
			l0.039-0.188L18.74,46.6l0.037-0.188l-0.188,0.04l0.039-0.188L18.44,46.3l0.039-0.19l-0.188,0.039l0.039-0.188l-0.281-0.004
			l0.753-3.772l0.303,0.303l0.149,0.147l0.604,0.604l0.452,0.449l2.109,2.112l0.905,0.904h0.002l0.902,0.903l0.303,0.303
			l0.904,0.904l0.002,0.002l0.905,0.904l0.904,0.903l0.303,0.304l0.904,0.904l0.301,0.301l0.303,0.305l0.301,0.299l1.657,1.658
			l0.904,0.904l0.454,0.454l0.451,0.45l0.902,0.904l0.307,0.307l0.599,0.598l0.304,0.305l0.002,0.002l0.602,0.601l0.302,0.302
			l0.002,0.004l0.753,0.75l0.153,0.154l0.752,0.752l0.151,0.152l0.303,0.302l0.148,0.147l0.301,0.303l0.152,0.152l0.303,0.301
			l0.449,0.453l0.307,0.305l0.055,0.054C38.467,63.333,37.256,63.564,36.018,63.721z M12.417,32.153l0.189,0.126l-0.039,0.025
			l0.188,0.127l-0.039,0.024l0.188,0.126l-0.039,0.026l0.188,0.125l-0.039,0.025l0.188,0.126l-0.039,0.025l0.188,0.125l-0.038,0.026
			l0.188,0.125l-0.039,0.024l0.19,0.129l-0.039,0.024l0.188,0.127l-0.039,0.025l0.188,0.127l-0.039,0.024l0.188,0.125l-0.025,0.017
			l0.188,0.127l-0.039,0.023l0.188,0.125l-0.039,0.025l0.188,0.125l-0.034,0.027l0.188,0.125l-0.039,0.023l0.188,0.127l-0.038,0.023
			l0.189,0.131l-0.041,0.023l0.188,0.125l-0.039,0.025l0.188,0.125l-0.039,0.025l0.189,0.129l-0.041,0.023l0.188,0.127l-0.039,0.027
			l0.188,0.125l-0.038,0.025l0.189,0.129l-0.041,0.024l0.188,0.125l-0.039,0.024l0.19,0.129l-0.039,0.025l0.188,0.125l-0.032,0.035
			l0.188,0.127l-0.038,0.024l0.19,0.128l-0.041,0.025l0.188,0.125l-0.019,0.006l0.188,0.125l-0.039,0.023l0.189,0.126l-0.041,0.029
			l0.188,0.125l-0.039,0.024l0.188,0.125l-0.039,0.024l0.19,0.13l-0.04,0.023l0.188,0.128l-0.039,0.024l0.188,0.127l-0.039,0.025
			l0.19,0.125l-0.041,0.027l0.188,0.125l-0.039,0.025l0.188,0.125l-0.039,0.027l0.191,0.127l-0.041,0.025l0.188,0.127l-0.037,0.029
			l0.19,0.129l-0.023,0.008l0.188,0.127l-0.037,0.021l0.188,0.128l-0.035,0.025l0.189,0.128L19.2,38.938l0.188,0.125l-0.039,0.025
			l0.188,0.127l-0.039,0.026l0.189,0.125l-0.041,0.026l0.188,0.127l-0.039,0.025l0.188,0.125l-0.039,0.025l0.189,0.129l-0.037,0.025
			l0.188,0.125l-0.038,0.027l0.188,0.127l-0.038,0.025l0.189,0.125l-0.041,0.029l0.188,0.125l-0.038,0.023l0.188,0.125l-0.039,0.027
			l0.189,0.127l-0.023,0.01l0.188,0.127l-0.039,0.023l0.188,0.129l-0.039,0.025l0.188,0.127l-0.036,0.025l0.188,0.125l-0.039,0.025
			l0.189,0.129l-0.04,0.024l0.188,0.125l-0.039,0.024l0.188,0.127l-0.039,0.027l0.191,0.125l-0.041,0.026l0.188,0.127l-0.039,0.024
			l0.188,0.125l-0.038,0.025l0.19,0.129l-0.039,0.024l0.188,0.125l-0.039,0.026l0.189,0.132l-0.035,0.024l0.188,0.125l-0.039,0.024
			L23.296,43l-0.041,0.029l0.188,0.125l-0.038,0.023l0.189,0.131l-0.039,0.023l0.188,0.127l-0.039,0.025l0.191,0.127l-0.038,0.029
			l0.188,0.127l-0.039,0.024l0.188,0.125l-0.036,0.024l0.19,0.129l-0.041,0.025l0.188,0.125l-0.039,0.024l0.189,0.127L24.608,44.4
			l0.188,0.125l-0.039,0.024l0.189,0.125l-0.041,0.029l0.188,0.125l-0.039,0.024l0.189,0.129l-0.038,0.025l0.188,0.125l-0.036,0.027
			l0.188,0.127l-0.039,0.025l0.188,0.125l-0.039,0.024l0.19,0.127l-0.041,0.026l0.188,0.125l-0.039,0.027l0.189,0.127l-0.039,0.024
			l0.189,0.127l-0.039,0.026l0.188,0.125l-0.039,0.025l0.189,0.129l-0.038,0.024l0.188,0.125l-0.039,0.024l0.19,0.129l-0.039,0.025
			l0.188,0.125l-0.039,0.026l0.188,0.128l-0.039,0.023l0.188,0.125L27.3,47.133l0.19,0.125l-0.041,0.029l0.188,0.125l-0.039,0.023
			l0.189,0.131L27.75,47.59l0.188,0.127l-0.039,0.025l0.188,0.127L28.053,47.9l0.188,0.125l-0.038,0.023l0.189,0.127l-0.041,0.027
			l0.188,0.125L28.5,48.355l0.191,0.127l-0.039,0.024l0.188,0.127l-0.039,0.026l0.188,0.125l-0.039,0.025l0.19,0.129l-0.039,0.024
			l0.188,0.125l-0.039,0.024l0.19,0.13l-0.038,0.024l0.188,0.125l-0.039,0.026l0.188,0.127L29.7,49.57l0.188,0.125l-0.039,0.025
			l0.188,0.127l-0.039,0.024l0.189,0.127l-0.039,0.026l0.191,0.127L30.3,50.178l0.188,0.127l-0.039,0.027l0.188,0.125l-0.038,0.023
			l0.188,0.125l-0.039,0.025l0.19,0.127l-0.041,0.027l0.188,0.125l-0.038,0.025l0.189,0.129l-0.039,0.025l0.188,0.125l-0.039,0.027
			l0.188,0.125L31.501,51.4l0.189,0.129l-0.039,0.023l0.179,0.121l0.004,0.01l-0.033,0.021l0.089,0.06l0.108-0.029l0.019-0.029
			l0.021,0.014l0.006,0.01L32.01,51.75l0.09,0.059l0.049,0.075l0.021-0.028l0.022,0.017l0.004,0.004L32.162,51.9l0.09,0.058
			l0.049,0.075l0.02-0.029l0.02,0.016l0.004,0.006L32.31,52.05l0.089,0.058l0.052,0.076l0.02-0.029l0.021,0.016l0.004,0.006
			L32.461,52.2l0.089,0.056l0.054,0.077l0.019-0.028l0.017,0.008l0.008,0.014l-0.035,0.021l0.089,0.057l0.053,0.08l0.021-0.031
			l0.021,0.016l0.004,0.008L32.76,52.5l0.092,0.059l0.049,0.075l0.021-0.028l0.021,0.015l0.004,0.006l-0.032,0.024l0.09,0.057
			l0.052,0.077l0.02-0.029l0.017,0.009l0.009,0.014l-0.029,0.027l0.09,0.059l0.052,0.076l0.021-0.029l0.021,0.018l0.002,0.004
			l-0.035,0.024l0.092,0.06l0.051,0.074l0.017-0.029l0.021,0.014l0.008,0.01l-0.036,0.023l0.092,0.061l0.048,0.074l0.021-0.031
			l0.024,0.018v0.006l-0.033,0.022l0.09,0.062l0.048,0.072l0.021-0.029l0.02,0.018l0.005,0.004l-0.036,0.025l0.092,0.059
			l0.051,0.074l0.021-0.027l0.021,0.014l0.004,0.007l-0.032,0.024l0.088,0.057l0.052,0.076l0.02-0.028l0.021,0.013l0.004,0.012
			l-0.032,0.021l0.09,0.061l0.047,0.074l0.021-0.029l0.022,0.017l0.003,0.004l-0.036,0.024l0.092,0.063l0.048,0.07l0.021-0.029
			l0.02,0.015l0.006,0.008l-0.033,0.023l0.082,0.057l0.056,0.08l0.021-0.031l0.018,0.011l0.009,0.013l-0.035,0.022l0.089,0.06
			l0.051,0.073l0.02-0.028l0.021,0.018l0.004,0.004l-0.034,0.023l0.092,0.06l0.048,0.075l0.021-0.029l0.02,0.014l0.006,0.012
			l-0.033,0.021l0.088,0.059l0.051,0.078l0.021-0.029l0.021,0.013l0.005,0.008l-0.025,0.031l0.092,0.06l0.049,0.076l0.019-0.031
			l0.025,0.018l0.004,0.006l-0.037,0.023l0.091,0.063l0.051,0.07l0.02-0.029l0.02,0.018l0.006,0.004l-0.035,0.024l0.088,0.06
			l0.054,0.078l0.021-0.033l0.02,0.016l0.006,0.01l-0.033,0.021l0.088,0.059l0.051,0.077l0.019-0.03l0.022,0.014l0.005,0.011
			l-0.035,0.022l0.091,0.062l0.048,0.069l0.021-0.023l0.021,0.012l0.005,0.01l-0.033,0.021l0.09,0.057l0.029,0.066l0.017-0.031
			l0.024,0.016l0.004,0.008l-0.037,0.021l0.092,0.063l0.051,0.072l0.021-0.031l0.021,0.018l0.005,0.006l-0.038,0.027l0.097,0.061
			l0.045,0.068l0.02-0.025l0.023,0.014l0.004,0.009l-0.035,0.022l0.09,0.057l0.051,0.079l0.016-0.031l0.022,0.015l0.005,0.008
			l-0.035,0.021l0.092,0.059l0.048,0.076l0.021-0.031l0.023,0.018l0.004,0.008l-0.033,0.021l0.086,0.059l0.053,0.075l0.019-0.028
			l0.019,0.012l0.01,0.013l-0.035,0.022l0.089,0.058l0.051,0.079l0.017-0.031l0.022,0.016l0.004,0.008l-0.034,0.021l0.092,0.06
			l0.047,0.076l0.02-0.029l0.021,0.016l0.008,0.007l-0.033,0.022l0.083,0.059l0.056,0.079l0.021-0.033l0.017,0.013l0.01,0.012
			l-0.035,0.023l0.089,0.057l0.05,0.078l0.02-0.03l0.022,0.015l0.004,0.01l-0.037,0.021l0.093,0.063l0.049,0.074l0.021-0.031
			l0.021,0.016L37.324,57l-0.035,0.025l0.092,0.059l0.046,0.072l0.019-0.026l0.022,0.013l0.005,0.008l-0.035,0.023l0.09,0.057
			l0.05,0.078l0.019-0.029l0.023,0.014l0.004,0.01l-0.035,0.02l0.092,0.064l0.049,0.074l0.021-0.031l0.019,0.016l0.008,0.006
			l-0.033,0.023l0.083,0.057l0.054,0.08l0.021-0.033l0.017,0.013l0.008,0.013l-0.034,0.022l0.09,0.06l0.049,0.076l0.02-0.029
			l0.023,0.014l0.006,0.008l-0.035,0.025l0.092,0.059l0.047,0.075l0.021-0.029l0.021,0.013l0.006,0.008l-0.035,0.025l0.089,0.057
			l0.05,0.076l0.021-0.028l0.021,0.013l0.004,0.01l-0.035,0.023l0.091,0.057l0.049,0.077l0.02-0.028l0.023,0.012l0.004,0.009
			l-0.035,0.022l0.091,0.062l0.048,0.073l0.021-0.03l0.019,0.015l0.007,0.01l-0.033,0.023l0.088,0.059l0.033,0.061l0.021-0.029
			l0.021,0.014l0.004,0.008l-0.033,0.025l0.088,0.057l0.066,0.094l0.02-0.029l0.027,0.016v0.006l-0.033,0.023l0.089,0.058
			l0.048,0.077l0.021-0.029l0.017,0.009l0.008,0.013l-0.032,0.024l0.088,0.06l0.049,0.074l0.021-0.029l0.021,0.014l0.004,0.008
			l-0.033,0.025l0.087,0.057l0.052,0.076l0.021-0.028l0.021,0.015l0.004,0.006l-0.033,0.025l0.09,0.057l0.051,0.076l0.02-0.028
			l0.02,0.009l0.006,0.014l-0.033,0.021l0.086,0.057l0.053,0.079l0.021-0.03l0.021,0.014l0.008,0.009l-0.035,0.024l0.091,0.059
			l0.048,0.074l0.02-0.028l0.021,0.015l0.01,0.01l-0.039,0.021l0.092,0.061l0.049,0.074l0.02-0.029l0.024,0.017l0.004,0.004
			l-0.037,0.024l0.093,0.064l0.049,0.069l0.02-0.028l0.021,0.018l0.004,0.004l-0.035,0.025l0.092,0.063l0.048,0.07l0.019-0.029
			l0.021,0.016l0.004,0.006l-0.033,0.024l0.088,0.058l0.053,0.078l0.021-0.031l0.019,0.008l0.006,0.016l-0.033,0.023l0.089,0.058
			l0.048,0.075l0.021-0.029l0.021,0.014l0.006,0.008l-0.035,0.024l0.088,0.056l0.05,0.078l0.021-0.031l0.021,0.016l0.008,0.01
			l-0.037,0.023l0.092,0.061l0.049,0.072l0.019-0.027l0.021,0.012l0.004,0.011l-0.032,0.022l0.09,0.059l0.048,0.074l0.021-0.028
			l0.021,0.013l0.005,0.01l-0.033,0.023l0.09,0.059l0.048,0.076l0.021-0.029l0.021,0.015l0.007,0.01l-0.035,0.021l0.091,0.063
			l0.049,0.072l0.02-0.031l0.023,0.017v0.008l-0.033,0.021l0.091,0.059l0.048,0.076l0.021-0.029l0.022,0.017l0.004,0.005
			l-0.032,0.024l0.086,0.06l0.053,0.073l0.018-0.028l0.021,0.01l0.007,0.016l-0.036,0.021l0.092,0.058l0.049,0.077l0.019-0.031
			l0.024,0.018l0.004,0.006l-0.037,0.022l0.093,0.063l0.05,0.07l0.02-0.029l0.022,0.018l0.004,0.004l-0.035,0.025l0.089,0.058
			l0.051,0.075l0.018-0.029l0.021,0.014l0.006,0.008l-0.035,0.025l0.088,0.059l0.052,0.076l0.022-0.03l0.018,0.011l0.004,0.012
			l-0.033,0.023l0.092,0.059l0.049,0.077l0.02-0.03l0.023,0.017l0.005,0.008l-0.036,0.022l0.082,0.053
			c9.217-3.204,16.504-10.487,19.708-19.706l-0.009-0.004l-0.053-0.08l-0.021,0.03l-0.018-0.01l-0.004-0.011l0.033-0.022
			l-0.086-0.059l-0.052-0.076l-0.022,0.028l-0.02-0.013l-0.009-0.008l0.038-0.025l-0.092-0.059l-0.051-0.076l-0.017,0.029
			l-0.026-0.017l-0.003-0.004l0.037-0.024l-0.092-0.063l-0.05-0.07l-0.021,0.029l-0.017-0.015l-0.009-0.008l0.037-0.023l-0.09-0.059
			L61.525,41.8l-0.021,0.029l-0.018-0.013l-0.008-0.008l0.037-0.025l-0.092-0.063l-0.05-0.07l-0.017,0.027l-0.021-0.012l-0.007-0.01
			l0.034-0.023l-0.086-0.059l-0.053-0.077l-0.022,0.028l-0.021-0.014l-0.006-0.005l0.038-0.024l-0.092-0.06l-0.05-0.077
			l-0.021,0.031l-0.017-0.014l-0.009-0.008l0.037-0.024l-0.092-0.058l-0.05-0.076l-0.019,0.029l-0.02-0.013l-0.007-0.009
			l0.036-0.023l-0.088-0.06l-0.053-0.079l-0.022,0.033l-0.017-0.016l-0.008-0.008l0.037-0.023l-0.093-0.063l-0.05-0.072l-0.02,0.03
			l-0.022-0.017l-0.004-0.006l0.036-0.022l-0.09-0.063l-0.052-0.07l-0.019,0.029l-0.02-0.014l-0.006-0.008l0.033-0.025l-0.086-0.059
			l-0.055-0.079l-0.021,0.033l-0.019-0.015l-0.006-0.008l0.037-0.023l-0.093-0.061l-0.05-0.074l-0.02,0.031l-0.021-0.018
			L60.12,40.45l0.036-0.022l-0.09-0.059l-0.051-0.075l-0.02,0.028l-0.021-0.012l-0.006-0.008l0.035-0.025l-0.09-0.059l-0.051-0.08
			l-0.021,0.031l-0.02-0.012l-0.007-0.012l0.037-0.021l-0.09-0.063l-0.052-0.072l-0.021,0.031l-0.021-0.018l-0.005-0.007
			l0.038-0.022l-0.092-0.063l-0.051-0.071l-0.019,0.029l-0.022-0.017l-0.004-0.004l0.034-0.025l-0.09-0.059l-0.05-0.078
			l-0.021,0.031l-0.019-0.016l-0.007-0.006l0.037-0.023l-0.092-0.059l-0.05-0.077l-0.021,0.03l-0.018-0.014l-0.008-0.009
			l0.033-0.022l-0.088-0.06l-0.051-0.073l-0.019,0.027L59.066,39.4l-0.004-0.004l0.035-0.023l-0.09-0.059l-0.051-0.08l-0.021,0.031
			l-0.018-0.015l-0.007-0.009l0.038-0.021l-0.092-0.063l-0.051-0.073l-0.021,0.028L58.77,39.1l-0.008-0.006l0.032-0.023
			l-0.083-0.059l-0.055-0.078l-0.021,0.032l-0.017-0.013l-0.009-0.01l0.035-0.023l-0.086-0.059l-0.054-0.08l-0.021,0.033
			l-0.02-0.017l-0.006-0.009l0.037-0.021l-0.092-0.063l-0.051-0.075l-0.021,0.031l-0.024-0.017l-0.002-0.004l0.034-0.022
			l-0.092-0.063l-0.048-0.072l-0.02,0.031l-0.021-0.018l-0.009-0.008l0.039-0.023l-0.096-0.063l-0.043-0.069l-0.021,0.024
			l-0.022-0.012l-0.004-0.009l0.035-0.024l-0.092-0.063l-0.05-0.069l-0.018,0.027l-0.021-0.016l-0.006-0.006l0.035-0.024
			l-0.088-0.056l-0.053-0.08l-0.021,0.031l-0.018-0.015L57.7,38.035l0.038-0.021l-0.09-0.062l-0.053-0.075l0.004,0.048l-0.017-0.013
			l-0.008-0.008l0.036-0.025L57.52,37.82l-0.049-0.074l-0.018,0.029l-0.021-0.014l-0.007-0.009l0.036-0.024l-0.088-0.057
			l-0.053-0.078L57.3,37.625l-0.017-0.016l-0.008-0.006l0.037-0.022l-0.092-0.062l-0.051-0.074l-0.021,0.029l-0.017-0.013
			l-0.009-0.009l0.035-0.025l-0.09-0.058l-0.051-0.075l-0.017,0.029l-0.021-0.012l-0.006-0.01l0.034-0.025l-0.088-0.059
			l-0.052-0.076l-0.023,0.03l-0.017-0.015L56.82,37.15l0.037-0.023l-0.092-0.061l-0.05-0.074l-0.019,0.031l-0.023-0.018
			l-0.004-0.005l0.035-0.024l-0.087-0.059l-0.052-0.074l-0.021,0.028l-0.021-0.013l-0.006-0.008l0.037-0.025l-0.093-0.059
			l-0.05-0.078L56.4,36.723l-0.018-0.013l-0.015-0.017l0.034-0.022l-0.092-0.063l-0.047-0.072l-0.02,0.031l-0.021-0.018
			l-0.004-0.006l0.035-0.023l-0.089-0.061l-0.052-0.076l-0.021,0.028L56.073,36.4l-0.005-0.006l0.035-0.023l-0.09-0.059l-0.052-0.08
			l-0.021,0.031l-0.018-0.013l-0.006-0.011l0.035-0.021l-0.092-0.061l-0.049-0.075l-0.019,0.03L55.775,36.1l-0.006-0.006
			l0.033-0.021l-0.089-0.059l-0.05-0.076l-0.02,0.029l-0.021-0.013l-0.004-0.009l0.033-0.024l-0.09-0.06l-0.049-0.074l-0.021,0.029
			L55.475,35.8l-0.006-0.008l0.035-0.021l-0.092-0.063l-0.049-0.071l-0.018,0.03l-0.021-0.017l-0.004-0.008l0.033-0.021
			l-0.086-0.059l-0.055-0.08l-0.021,0.033l-0.019-0.013l-0.004-0.008l0.033-0.024l-0.085-0.06l-0.053-0.079l-0.022,0.033
			l-0.019-0.018l-0.008-0.008l0.035-0.021L54.96,35.26l-0.048-0.076l-0.02,0.028L54.875,35.2l-0.009-0.007l0.038-0.022l-0.092-0.062
			l-0.051-0.076l-0.021,0.029l-0.017-0.01l-0.009-0.012l0.037-0.023l-0.092-0.061l-0.05-0.074l-0.02,0.031L54.573,34.9l-0.005-0.01
			l0.035-0.021l-0.092-0.063l-0.05-0.074l-0.017,0.031l-0.021-0.016l-0.006-0.006l0.035-0.023l-0.088-0.059l-0.053-0.079
			l-0.021,0.032L54.275,34.6l-0.01-0.008l0.027-0.031L54.202,34.5l-0.05-0.075l-0.02,0.029l-0.021-0.013l-0.004-0.008l0.035-0.023
			l-0.092-0.061l-0.048-0.074l-0.021,0.031l-0.021-0.016l-0.005-0.01l0.032-0.02l-0.086-0.06l-0.051-0.077l-0.021,0.031
			l-0.021-0.016l-0.004-0.01l0.032-0.025L53.75,34.05l-0.048-0.077l-0.019,0.031l-0.021-0.013l-0.004-0.009l0.033-0.021l-0.088-0.06
			l-0.051-0.078l-0.021,0.031l-0.018-0.012l-0.006-0.013l0.033-0.021l-0.088-0.063l-0.051-0.075l-0.021,0.029l-0.019-0.012
			l-0.008-0.01l0.033-0.021l-0.088-0.058l-0.05-0.08L53.23,33.55l-0.021-0.012l-0.005-0.009l0.036-0.022l-0.092-0.062L53.1,33.371
			L53.079,33.4l-0.024-0.018l-0.002-0.004l0.035-0.021L53,33.3l-0.05-0.075l-0.017,0.029l-0.021-0.014l-0.006-0.008l0.035-0.024
			l-0.092-0.062l-0.049-0.074L52.783,33.1l-0.021-0.012l-0.004-0.005l0.035-0.022l-0.092-0.062l-0.049-0.075l-0.021,0.027
			l-0.021-0.014l-0.006-0.008l0.033-0.021l-0.082-0.06l-0.056-0.08l-0.021,0.031l-0.021-0.012l-0.007-0.01l0.034-0.023L52.4,32.695
			l-0.049-0.074l-0.02,0.027l-0.021-0.016l-0.004-0.005l0.033-0.022l-0.09-0.061l-0.048-0.076l-0.021,0.029l-0.023-0.015
			l-0.006-0.006l0.037-0.024l-0.09-0.06l-0.05-0.074l-0.017,0.027l-0.021-0.014l-0.006-0.006l0.036-0.023l-0.092-0.061l-0.048-0.076
			l-0.02,0.029l-0.021-0.012l-0.008-0.009l0.037-0.024l-0.09-0.059l-0.05-0.075l-0.019,0.03l-0.021-0.013l-0.005-0.009l0.022-0.025
			l-0.09-0.06l-0.05-0.077l-0.019,0.03l-0.023-0.016l-0.111-0.167l-0.025,0.037l-0.125-0.188l-0.023,0.041l-0.13-0.189l-0.024,0.039
			l-0.121-0.191l-0.024,0.037l-0.128-0.188l-0.021,0.039l-0.129-0.188l-0.025,0.038l-0.125-0.188l-0.027,0.036l-0.125-0.188
			l-0.025,0.039l-0.121-0.19l-0.025,0.039l-0.125-0.188l-0.025,0.036l-0.129-0.188l-0.023,0.039l-0.125-0.188l-0.025,0.039
			l-0.129-0.188L49.6,29.944l-0.125-0.188l-0.023,0.039l-0.129-0.19l-0.025,0.039l-0.127-0.188l-0.025,0.039l-0.127-0.188
			l-0.024,0.039l-0.13-0.189l-0.023,0.039l-0.125-0.188l-0.025,0.037l-0.129-0.189l-0.024,0.037l-0.125-0.188l-0.024,0.037
			l-0.128-0.189l-0.026,0.039l-0.125-0.188l-0.024,0.039l-0.129-0.188l-0.024,0.037L47.8,28.1l-0.024,0.041l-0.129-0.189
			l-0.024,0.039l-0.125-0.188l-0.026,0.038l-0.128-0.188l-0.024,0.037l-0.125-0.188l-0.024,0.039l-0.13-0.188l-0.023,0.037
			l-0.127-0.19l-0.027,0.039l-0.127-0.19l-0.025,0.038l-0.127-0.188l-0.023,0.039L46.43,26.75l-0.023,0.037l-0.125-0.188
			l-0.025,0.037l-0.129-0.188L46.1,26.485l-0.127-0.188l-0.023,0.039l-0.127-0.19l-0.027,0.039l-0.125-0.188l-0.027,0.039
			l-0.125-0.189l-0.024,0.039l-0.13-0.189l-0.023,0.037l-0.125-0.188l-0.025,0.035l-0.127-0.188l-0.026,0.039l-0.127-0.188
			l-0.028,0.036l-0.127-0.188l-0.023,0.035l-0.127-0.187l-0.024,0.039l-0.129-0.187l-0.025,0.037L44.3,24.64l-0.026,0.039
			l-0.127-0.189l-0.024,0.038l-0.127-0.188l-0.027,0.039l-0.125-0.188l-0.024,0.037l-0.125-0.188l-0.024,0.039l-0.13-0.188
			l-0.023,0.036l-0.127-0.188l-0.029,0.037l-0.127-0.189l-0.026,0.038l-0.127-0.188l-0.024,0.037l-0.125-0.188l-0.025,0.036
			l-0.125-0.188l-0.026,0.038l-0.127-0.188L42.6,23.021l-0.127-0.188l-0.025,0.039l-0.129-0.191l-0.024,0.039l-0.127-0.188
			l-0.024,0.037l-0.125-0.189l-0.025,0.039l-0.129-0.188l-0.025,0.039l-0.125-0.188l-0.027,0.036l-0.127-0.188l-0.024,0.039
			l-0.127-0.188l-0.028,0.039l-0.125-0.188l-0.023,0.035l-0.127-0.187l-0.026,0.039l-0.127-0.188l-0.025,0.039l-0.127-0.188
			l-0.024,0.036l-0.127-0.188l-0.024,0.039l-0.13-0.188l-0.025,0.039l-0.125-0.188l-0.025,0.036l-0.127-0.188l-0.024,0.039
			l-0.128-0.188l-0.025,0.039l-0.125-0.188l-0.029,0.038l-0.127-0.19l-0.024,0.039l-0.127-0.189l-0.024,0.039l-0.125-0.188
			l-0.025,0.039l-0.129-0.19l-0.025,0.036l-0.127-0.188l-0.025,0.036l-0.127-0.188l-0.027,0.039l-0.125-0.188l-0.025,0.038
			l-0.014-0.214l-0.024,0.035l-0.125-0.188l-0.024,0.039l-0.127-0.187l-0.028,0.039L38.323,18.6l-0.025,0.035l-0.127-0.188
			l-0.024,0.039l-0.129-0.188l-0.025,0.039l-0.125-0.188l-0.024,0.037l-0.125-0.188l-0.026,0.039l-0.127-0.189l-0.025,0.039
			l-0.129-0.189l-0.016,0.035l-0.125-0.188l-0.021,0.039l-0.127-0.191l-0.025,0.039l-0.125-0.188l-0.025,0.036l-0.125-0.188
			l-0.024,0.038l-0.129-0.19l-0.024,0.039l-0.125-0.188l-0.025,0.037l-0.123-0.188l-0.025,0.039l-0.127-0.189l-0.027,0.036
			l-0.127-0.188l-0.024,0.039l-0.128-0.189l-0.026,0.037l-0.125-0.188l-0.024,0.036l-0.125-0.188l-0.025,0.039l-0.129-0.188
			l-0.025,0.037l-0.127-0.188l-0.025,0.035l-0.127-0.188l-0.025,0.039L35,15.283l-0.014,0.039l-0.129-0.189l-0.024,0.037
			l-0.125-0.188l-0.026,0.039l-0.127-0.19l-0.021,0.039l-0.125-0.188l-0.024,0.038l-0.13-0.188l-0.023,0.037l-0.121-0.191
			l-0.025,0.039l-0.127-0.188l-0.027,0.039l-0.125-0.188l-0.025,0.037l-0.125-0.188l-0.024,0.039l-0.127-0.188l-0.026,0.039
			L33.35,13.63l-0.023,0.037L33.2,13.48l-0.027,0.039l-0.125-0.188l-0.026,0.037l-0.125-0.188l-0.024,0.038l-0.126-0.189
			l-0.021,0.032L32.6,12.873l-0.022,0.036l-0.129-0.188l-0.022,0.037l-0.127-0.188l-0.025,0.039l-0.128-0.189l-0.024,0.036
			l-0.126-0.188l-2.133,3.2h0.252l-0.099,0.152h0.252l-0.1,0.152h0.251l-0.1,0.149h0.25l-0.1,0.152h0.251l-0.1,0.151h0.252
			l-0.101,0.152h0.25l-0.098,0.149h0.251l-0.1,0.151h0.252l-0.1,0.152h0.249l-0.1,0.151h0.252l-0.101,0.151h0.252l-0.1,0.15h0.251
			l-0.1,0.151h0.252l-0.107,0.147h0.252l-0.1,0.152h0.251l-0.1,0.149h0.25l-0.101,0.152h0.25l-0.1,0.151h0.252l-0.101,0.15h0.252
			l-0.102,0.151h0.253l-0.103,0.149h0.252l-0.1,0.152h0.252l-0.102,0.151h0.253l-0.101,0.151h0.25l-0.101,0.15h0.255l-0.076,0.106
			c-0.6-0.085-1.199-0.143-1.815-0.143c-2.801,0-5.38,0.909-7.487,2.434l-0.081-0.016l0.1-0.1l-0.252-0.049l0.103-0.102
			l-0.252-0.049l0.1-0.101l-0.249-0.049l0.1-0.1l-0.254-0.051l0.102-0.1l-0.251-0.05l0.1-0.1l-0.252-0.049l0.101-0.1l-0.252-0.049
			l0.1-0.1l-0.252-0.05l0.101-0.1l-0.252-0.049l0.1-0.1l-0.251-0.049l0.1-0.101l-0.252-0.049l0.101-0.1l-0.252-0.049l0.1-0.1
			l-0.253-0.049l0.101-0.101l-0.253-0.049l0.102-0.102l-0.249-0.049l0.1-0.1l-0.253-0.049l0.101-0.101l-0.245-0.064l0.1-0.102
			l-0.249-0.052l0.1-0.1l-3.774-0.753l0.755,3.772l0.1-0.1l0.049,0.251l0.101-0.1l0.051,0.252l0.1-0.101l0.049,0.25l0.1-0.1
			l0.049,0.25l0.101-0.101l0.051,0.252l0.1-0.1l0.049,0.251l0.1-0.1l0.052,0.252l0.1-0.1L20,23.029l0.1-0.1l0.049,0.249l0.101-0.1
			l0.051,0.252l0.1-0.1l0.049,0.251l0.1-0.1l0.049,0.25L20.7,23.53l0.049,0.252l0.1-0.1l0.049,0.252l0.1-0.101l0.05,0.25l0.1-0.1
			l0.049,0.251l0.1-0.1l0.049,0.252l0.101-0.101l0.049,0.252l0.1-0.1l0.017,0.085C20.106,26.624,19.2,29.203,19.2,32
			c0,0.619,0.057,1.221,0.143,1.816l-0.108,0.07v-0.25l-0.152,0.1v-0.254l-0.149,0.103v-0.252l-0.151,0.101v-0.25l-0.152,0.101
			v-0.255l-0.149,0.1v-0.25l-0.15,0.102v-0.252l-0.152,0.1v-0.252l-0.151,0.105v-0.25l-0.152,0.102v-0.252l-0.149,0.102v-0.252
			l-0.149,0.1v-0.252l-0.152,0.101v-0.252l-0.151,0.1v-0.251l-0.152,0.1v-0.252l-0.149,0.1v-0.251l-0.151,0.1v-0.251l-0.152,0.1
			V31.07l-0.151,0.1v-0.251l-0.15,0.098v-0.25l-0.151,0.101v-0.252l-0.151,0.1v-0.252l-0.152,0.101v-0.25l-0.151,0.1v-0.251
			l-0.15,0.1v-0.252l-0.149,0.109v-0.252l-3.2,2.133l0.188,0.126L12.417,32.153z M54.354,26.675l0.037-0.188l-0.188,0.039
			l0.037-0.188l-0.188,0.038l0.038-0.188l-0.188,0.039l0.039-0.188l-0.189,0.039l0.038-0.188l-0.188,0.038l0.037-0.188l-0.188,0.039
			l0.037-0.19L53.3,25.628l0.038-0.188l-0.188,0.039l0.037-0.188l-0.188,0.039l0.038-0.188l-0.184,0.038l0.037-0.188l-0.187,0.038
			l0.037-0.188l-0.188,0.039l0.038-0.188l-0.188,0.039l0.037-0.188l-0.188,0.039l0.038-0.188l-0.188,0.038l0.039-0.188l-0.188,0.039
			l0.036-0.188l-0.188,0.039l0.038-0.188l-0.188,0.039l0.039-0.188l-0.188,0.039l0.038-0.188l-0.189,0.038l0.041-0.188l-0.188,0.038
			l0.039-0.188l-0.188,0.039l0.039-0.188l-0.188,0.039l0.037-0.188l-0.189,0.037l0.021-0.219l-0.188,0.038l0.04-0.188l-0.191,0.039
			l0.039-0.189l-0.188,0.039l0.04-0.188l-0.189,0.036l0.037-0.188l-0.188,0.039l0.037-0.189l-0.188,0.039l0.038-0.188l-0.189,0.039
			l0.039-0.19l-0.188,0.039l0.037-0.188l-0.188,0.039l0.037-0.188l-0.188,0.039l0.037-0.188L49.08,21.41l0.04-0.188l-0.188,0.039
			l0.037-0.188l-0.188,0.039l0.037-0.188l-0.189,0.038l0.04-0.188l-0.188,0.038l0.037-0.188l-0.19,0.039l0.04-0.189l-0.188,0.038
			l0.038-0.188l-0.188,0.039l0.039-0.188l-0.188,0.039l0.037-0.188L47.73,20.06l0.039-0.188l-0.188,0.039l0.038-0.188l-0.188,0.038
			l0.037-0.188l-0.189,0.039l0.041-0.188l-0.19,0.039l0.04-0.188l-0.191,0.039l0.039-0.19l-0.188,0.039l0.04-0.188l-0.188,0.039
			l0.039-0.189l-0.188,0.039l0.038-0.188l-0.209,0.014l0.041-0.19l-0.188,0.039l0.039-0.188l-0.19,0.039l0.037-0.189l-0.188,0.039
			l0.04-0.188l-3.772,0.755l0.305,0.303l0.149,0.149l0.601,0.604l0.453,0.452l0.754,0.755l0.15,0.149l0.754,0.756l0.904,0.905
			l0.454,0.454l0.45,0.45l3.017,3.019l0.904,0.904l0.905,0.905l0,0l0.301,0.301l0.906,0.904l0.354,0.354l1,1.004l0,0h0.004
			l0.389,0.386l0.515,0.517h0.002l0,0l0.901,0.902l0.903,0.903l0.529,0.529l0.528,0.528l0.904,0.906l0.452,0.449l0.903,0.904
			l2.111,2.111l0.357,0.358c0.294-1.192,0.527-2.407,0.684-3.646l-0.022,0.004l0.036-0.191l-0.188,0.037l0.038-0.188L63.4,35.727
			l0.037-0.188l-0.188,0.039l0.038-0.191L63.1,35.424l0.037-0.188l-0.188,0.039l0.037-0.188l-0.188,0.04l0.038-0.19l-0.188,0.041
			l0.037-0.191l-0.189,0.039l0.04-0.189l-0.188,0.041l0.037-0.191l-0.188,0.039l0.037-0.188l-0.189,0.037l0.04-0.188l-0.188,0.041
			l0.037-0.189l-0.19,0.037l0.04-0.188l-0.188,0.036l0.038-0.188l-0.188,0.041l0.037-0.188l-0.188,0.04l0.038-0.188l-0.188,0.037
			l0.039-0.191l-0.188,0.039l0.038-0.188l-0.192,0.039l0.04-0.189l-0.188,0.039l0.039-0.188l-0.209,0.009l0.039-0.188l-0.188,0.037
			l0.037-0.188l-0.188,0.039l0.037-0.188l-0.189,0.038l0.041-0.189l-0.189,0.038l0.039-0.188l-0.188,0.038l0.037-0.187l-0.188,0.039
			l0.037-0.188l-0.189,0.039l0.039-0.188l-0.188,0.039l0.037-0.188l-0.188,0.039l0.037-0.189l-0.188,0.037l0.041-0.188L58.872,31.2
			l0.037-0.189l-0.188,0.039l0.037-0.188L58.568,30.9l0.041-0.188l-0.188,0.039l0.037-0.188l-0.188,0.039l0.039-0.188l-0.19,0.039
			l0.04-0.188l-0.2,0.024l0.038-0.189l-0.188,0.039l0.039-0.188l-0.189,0.039l0.037-0.188l-0.188,0.038l0.038-0.188l-0.188,0.039
			l0.037-0.188l-0.188,0.039l0.038-0.188l-0.188,0.038l0.036-0.188l-0.188,0.038l0.039-0.188l-0.188,0.039l0.038-0.188l-0.188,0.038
			l0.037-0.188l-0.188,0.039l0.038-0.188l-0.188,0.039l0.036-0.188l-0.188,0.039l0.037-0.188l-0.188,0.039l0.04-0.188l-0.188,0.039
			l0.037-0.188l-0.189,0.039l0.04-0.19l-0.19,0.039l0.04-0.188l-0.188,0.039l0.037-0.188l-0.188,0.039l0.038-0.188l-0.188,0.039
			l0.039-0.188l-0.188,0.039l0.038-0.188l-0.192,0.039l0.04-0.188l-0.188,0.037l0.039-0.188l-0.188,0.039l0.038-0.188L54.354,26.675
			z"/>
	</g>
	<path id="_x3C_Tracciato_x3E__1_" fill="#F5D76E" d="M34.134,48.533L32,51.732l-2.133-3.199H34.134z M34.131,15.469l-2.133-3.2
		l-2.133,3.2H34.131z M15.467,29.869l-3.2,2.133l3.2,2.135V29.869z M48.531,34.134L51.73,32l-3.199-2.133V34.134z M18.801,42.184
		l-0.753,3.772l3.77-0.756L18.801,42.184z M45.195,21.82l0.757-3.772l-3.772,0.755L45.195,21.82z M42.18,45.2l3.774,0.754
		L45.2,42.184L42.18,45.2z M21.818,18.803l-3.774-0.753l0.755,3.772L21.818,18.803z M32,19.2c-7.068,0-12.8,5.732-12.8,12.8
		c0,7.066,5.732,12.8,12.8,12.8c7.066,0,12.8-5.733,12.8-12.8C44.8,24.932,39.066,19.2,32,19.2z"/>
</g>
</svg>
